  0
SECTION
  2
HEADER
  9
$ACADVER
  1
AC1015
  9
$ACADMAINTVER
 70
     6
  9
$DWGCODEPAGE
  3
ANSI_1252
  9
$INSBASE
 10
0.0
 20
0.0
 30
0.0
  9
$EXTMIN
 10
-125.0
 20
-125.0
 30
0.0
  9
$EXTMAX
 10
125.0
 20
125.0
 30
0.0
  9
$LIMMIN
 10
0.0
 20
0.0
  9
$LIMMAX
 10
420.0
 20
297.0
  9
$ORTHOMODE
 70
     0
  9
$REGENMODE
 70
     1
  9
$FILLMODE
 70
     1
  9
$QTEXTMODE
 70
     0
  9
$MIRRTEXT
 70
     1
  9
$LTSCALE
 40
1.0
  9
$ATTMODE
 70
     1
  9
$TEXTSIZE
 40
3.5
  9
$TRACEWID
 40
1.0
  9
$TEXTSTYLE
  7
Standard
  9
$CLAYER
  8
0
  9
$CELTYPE
  6
ByLayer
  9
$CECOLOR
 62
   256
  9
$CELTSCALE
 40
1.0
  9
$DISPSILH
 70
     0
  9
$DIMSCALE
 40
1.0
  9
$DIMASZ
 40
3.302
  9
$DIMEXO
 40
1.0
  9
$DIMDLI
 40
3.75
  9
$DIMRND
 40
0.0
  9
$DIMDLE
 40
0.0
  9
$DIMEXE
 40
1.0
  9
$DIMTP
 40
0.0
  9
$DIMTM
 40
0.0
  9
$DIMTXT
 40
3.5
  9
$DIMCEN
 40
2.5
  9
$DIMTSZ
 40
0.0
  9
$DIMTOL
 70
     0
  9
$DIMLIM
 70
     0
  9
$DIMTIH
 70
     1
  9
$DIMTOH
 70
     1
  9
$DIMSE1
 70
     0
  9
$DIMSE2
 70
     0
  9
$DIMTAD
 70
     1
  9
$DIMZIN
 70
     0
  9
$DIMBLK
  1

  9
$DIMASO
 70
     1
  9
$DIMSHO
 70
     1
  9
$DIMPOST
  1

  9
$DIMAPOST
  1

  9
$DIMALT
 70
     0
  9
$DIMALTD
 70
     3
  9
$DIMALTF
 40
0.0393700787
  9
$DIMLFAC
 40
1.0
  9
$DIMTOFL
 70
     1
  9
$DIMTVP
 40
0.0
  9
$DIMTIX
 70
     0
  9
$DIMSOXD
 70
     0
  9
$DIMSAH
 70
     0
  9
$DIMBLK1
  1

  9
$DIMBLK2
  1

  9
$DIMSTYLE
  2
ISO-25
  9
$DIMCLRD
 70
     0
  9
$DIMCLRE
 70
     0
  9
$DIMCLRT
 70
     0
  9
$DIMTFAC
 40
1.0
  9
$DIMGAP
 40
1.524
  9
$DIMJUST
 70
     0
  9
$DIMSD1
 70
     0
  9
$DIMSD2
 70
     0
  9
$DIMTOLJ
 70
     0
  9
$DIMTZIN
 70
     0
  9
$DIMALTZ
 70
     0
  9
$DIMALTTZ
 70
     0
  9
$DIMUPT
 70
     0
  9
$DIMDEC
 70
     2
  9
$DIMTDEC
 70
     2
  9
$DIMALTU
 70
     2
  9
$DIMALTTD
 70
     3
  9
$DIMTXSTY
  7
Standard
  9
$DIMAUNIT
 70
     0
  9
$DIMADEC
 70
     2
  9
$DIMALTRND
 40
0.0
  9
$DIMAZIN
 70
     0
  9
$DIMDSEP
 70
    44
  9
$DIMATFIT
 70
     3
  9
$DIMFRAC
 70
     0
  9
$DIMLDRBLK
  1

  9
$DIMLUNIT
 70
     2
  9
$DIMLWD
 70
    -2
  9
$DIMLWE
 70
    -2
  9
$DIMTMOVE
 70
     0
  9
$LUNITS
 70
     2
  9
$LUPREC
 70
     2
  9
$SKETCHINC
 40
1.0
  9
$FILLETRAD
 40
10.0
  9
$AUNITS
 70
     0
  9
$AUPREC
 70
     2
  9
$MENU
  1
.
  9
$ELEVATION
 40
0.0
  9
$PELEVATION
 40
0.0
  9
$THICKNESS
 40
0.0
  9
$LIMCHECK
 70
     0
  9
$CHAMFERA
 40
0.0
  9
$CHAMFERB
 40
0.0
  9
$CHAMFERC
 40
0.0
  9
$CHAMFERD
 40
0.0
  9
$SKPOLY
 70
     0
  9
$TDCREATE
 40
2458771.577964398
  9
$TDUCREATE
 40
2458771.702964398
  9
$TDUPDATE
 40
2458771.578099965
  9
$TDUUPDATE
 40
2458771.703099965
  9
$TDINDWG
 40
0.0000000116
  9
$TDUSRTIMER
 40
0.0000000116
  9
$USRTIMER
 70
     1
  9
$ANGBASE
 50
0.0
  9
$ANGDIR
 70
     0
  9
$PDMODE
 70
     0
  9
$PDSIZE
 40
-1.0
  9
$PLINEWID
 40
0.0
  9
$SPLFRAME
 70
     0
  9
$SPLINETYPE
 70
     6
  9
$SPLINESEGS
 70
     8
  9
$HANDSEED
  5
345
  9
$SURFTAB1
 70
     6
  9
$SURFTAB2
 70
     6
  9
$SURFTYPE
 70
     6
  9
$SURFU
 70
     6
  9
$SURFV
 70
     6
  9
$UCSBASE
  2

  9
$UCSNAME
  2

  9
$UCSORG
 10
0.0
 20
0.0
 30
0.0
  9
$UCSXDIR
 10
1.0
 20
0.0
 30
0.0
  9
$UCSYDIR
 10
0.0
 20
1.0
 30
0.0
  9
$UCSORTHOREF
  2

  9
$UCSORTHOVIEW
 70
     0
  9
$UCSORGTOP
 10
0.0
 20
0.0
 30
0.0
  9
$UCSORGBOTTOM
 10
0.0
 20
0.0
 30
0.0
  9
$UCSORGLEFT
 10
0.0
 20
0.0
 30
0.0
  9
$UCSORGRIGHT
 10
0.0
 20
0.0
 30
0.0
  9
$UCSORGFRONT
 10
0.0
 20
0.0
 30
0.0
  9
$UCSORGBACK
 10
0.0
 20
0.0
 30
0.0
  9
$PUCSBASE
  2

  9
$PUCSNAME
  2

  9
$PUCSORG
 10
0.0
 20
0.0
 30
0.0
  9
$PUCSXDIR
 10
1.0
 20
0.0
 30
0.0
  9
$PUCSYDIR
 10
0.0
 20
1.0
 30
0.0
  9
$PUCSORTHOREF
  2

  9
$PUCSORTHOVIEW
 70
     0
  9
$PUCSORGTOP
 10
0.0
 20
0.0
 30
0.0
  9
$PUCSORGBOTTOM
 10
0.0
 20
0.0
 30
0.0
  9
$PUCSORGLEFT
 10
0.0
 20
0.0
 30
0.0
  9
$PUCSORGRIGHT
 10
0.0
 20
0.0
 30
0.0
  9
$PUCSORGFRONT
 10
0.0
 20
0.0
 30
0.0
  9
$PUCSORGBACK
 10
0.0
 20
0.0
 30
0.0
  9
$USERI1
 70
     0
  9
$USERI2
 70
     0
  9
$USERI3
 70
     0
  9
$USERI4
 70
     0
  9
$USERI5
 70
     0
  9
$USERR1
 40
0.0
  9
$USERR2
 40
0.0
  9
$USERR3
 40
0.0
  9
$USERR4
 40
0.0
  9
$USERR5
 40
0.0
  9
$WORLDVIEW
 70
     1
  9
$SHADEDGE
 70
     3
  9
$SHADEDIF
 70
    70
  9
$TILEMODE
 70
     1
  9
$MAXACTVP
 70
    64
  9
$PINSBASE
 10
0.0
 20
0.0
 30
0.0
  9
$PLIMCHECK
 70
     0
  9
$PEXTMIN
 10
1.0000000000E+20
 20
1.0000000000E+20
 30
1.0000000000E+20
  9
$PEXTMAX
 10
-1.0000000000E+20
 20
-1.0000000000E+20
 30
-1.0000000000E+20
  9
$PLIMMIN
 10
0.0
 20
0.0
  9
$PLIMMAX
 10
420.0
 20
297.0
  9
$UNITMODE
 70
     0
  9
$VISRETAIN
 70
     1
  9
$PLINEGEN
 70
     0
  9
$PSLTSCALE
 70
     1
  9
$TREEDEPTH
 70
  3020
  9
$CMLSTYLE
  2
Standard
  9
$CMLJUST
 70
     0
  9
$CMLSCALE
 40
20.0
  9
$PROXYGRAPHICS
 70
     1
  9
$MEASUREMENT
 70
     1
  9
$CELWEIGHT
370
    -1
  9
$ENDCAPS
280
     0
  9
$JOINSTYLE
280
     0
  9
$LWDISPLAY
290
     1
  9
$INSUNITS
 70
     4
  9
$HYPERLINKBASE
  1

  9
$STYLESHEET
  1

  9
$XEDIT
290
     1
  9
$CEPSNTYPE
380
     0
  9
$PSTYLEMODE
290
     1
  9
$FINGERPRINTGUID
  2
{5CBB4169-3CDB-420D-8BCD-3710C1EF57B3}
  9
$VERSIONGUID
  2
{FAEB1C32-E019-11D5-929B-00C0DF256EC4}
  9
$EXTNAMES
290
     1
  9
$PSVPSCALE
 40
0.0
  9
$OLESTARTUP
290
     0
  0
ENDSEC
  0
SECTION
  2
CLASSES
  0
CLASS
  1
ACDBDICTIONARYWDFLT
  2
AcDbDictionaryWithDefault
  3
ObjectDBX Classes
 90
        0
280
     0
281
     0
  0
CLASS
  1
VISUALSTYLE
  2
AcDbVisualStyle
  3
ObjectDBX Classes
 90
     4095
280
     0
281
     0
  0
CLASS
  1
MATERIAL
  2
AcDbMaterial
  3
ObjectDBX Classes
 90
     1153
280
     0
281
     0
  0
CLASS
  1
SCALE
  2
AcDbScale
  3
ObjectDBX Classes
 90
     1153
280
     0
281
     0
  0
CLASS
  1
TABLESTYLE
  2
AcDbTableStyle
  3
ObjectDBX Classes
 90
     4095
280
     0
281
     0
  0
CLASS
  1
MLEADERSTYLE
  2
AcDbMLeaderStyle
  3
ACDB_MLEADERSTYLE_CLASS
 90
     4095
280
     0
281
     0
  0
CLASS
  1
SUN
  2
AcDbSun
  3
SCENEOE
 90
     1153
280
     0
281
     0
  0
CLASS
  1
ACDBPLACEHOLDER
  2
AcDbPlaceHolder
  3
ObjectDBX Classes
 90
        0
280
     0
281
     0
  0
CLASS
  1
LAYOUT
  2
AcDbLayout
  3
ObjectDBX Classes
 90
        0
280
     0
281
     0
  0
ENDSEC
  0
SECTION
  2
TABLES
  0
TABLE
  2
VPORT
  5
8
330
0
100
AcDbSymbolTable
 70
     1
  0
VPORT
  5
29
330
8
100
AcDbSymbolTableRecord
100
AcDbViewportTableRecord
  2
*Active
 70
     0
 10
0.0
 20
0.0
 11
1.0
 21
1.0
 12
0.0
 22
0.0
 13
0.0
 23
0.0
 14
10.0
 24
10.0
 15
10.0
 25
10.0
 16
0.0
 26
0.0
 36
1.0
 17
0.0
 27
0.0
 37
0.0
 40
255.0
 41
1.0
 42
50.0
 43
0.0
 44
0.0
 50
0.0
 51
0.0
 71
     0
 72
   100
 73
     1
 74
     3
 75
     0
 76
     0
 77
     0
 78
     0
281
     0
 65
     1
110
0.0
120
0.0
130
0.0
111
1.0
121
0.0
131
0.0
112
0.0
122
1.0
132
0.0
 79
     0
146
0.0
  0
ENDTAB
  0
TABLE
  2
LTYPE
  5
5
330
0
100
AcDbSymbolTable
 70
     6
  0
LTYPE
  5
14
330
5
100
AcDbSymbolTableRecord
100
AcDbLinetypeTableRecord
  2
ByBlock
 70
     0
  3

 72
    65
 73
     0
 40
0.0
  0
LTYPE
  5
15
330
5
100
AcDbSymbolTableRecord
100
AcDbLinetypeTableRecord
  2
ByLayer
 70
     0
  3

 72
    65
 73
     0
 40
0.0
  0
LTYPE
  5
16
330
5
100
AcDbSymbolTableRecord
100
AcDbLinetypeTableRecord
  2
Continuous
 70
     0
  3
Solid line
 72
    65
 73
     0
 40
0.0
  0
LTYPE
  5
6E
330
5
100
AcDbSymbolTableRecord
100
AcDbLinetypeTableRecord
  2
HIDDEN
 70
     0
  3
Hidden __ __ __ __ __ __ __ __ __ __ __ __ __ __
 72
    65
 73
     2
 40
1.905
 49
1.27
 74
     0
 49
-0.635
 74
     0
  0
LTYPE
  5
6F
330
5
100
AcDbSymbolTableRecord
100
AcDbLinetypeTableRecord
  2
PHANTOM
 70
     0
  3
Phantom ______  __  __  ______  __  __  ______
 72
    65
 73
     6
 40
12.7
 49
6.35
 74
     0
 49
-1.27
 74
     0
 49
1.27
 74
     0
 49
-1.27
 74
     0
 49
1.27
 74
     0
 49
-1.27
 74
     0
  0
LTYPE
  5
70
330
5
100
AcDbSymbolTableRecord
100
AcDbLinetypeTableRecord
  2
CENTER
 70
     0
  3
Center ____ _ ____ _ ____ _ ____ _ ____ _ ____
 72
    65
 73
     4
 40
10.16
 49
6.35
 74
     0
 49
-1.27
 74
     0
 49
1.27
 74
     0
 49
-1.27
 74
     0
  0
LTYPE
  5
71
330
5
100
AcDbSymbolTableRecord
100
AcDbLinetypeTableRecord
  2
CENTERX2
 70
     0
  3
Center (2x) ________  __  ________  __  _____
 72
    65
 73
     4
 40
20.32
 49
12.7
 74
     0
 49
-2.54
 74
     0
 49
2.54
 74
     0
 49
-2.54
 74
     0
  0
LTYPE
  5
72
330
5
100
AcDbSymbolTableRecord
100
AcDbLinetypeTableRecord
  2
DOT2
 70
     0
  3
Dot (.5x) ........................................
 72
    65
 73
     2
 40
0.635
 49
0.0
 74
     0
 49
-0.635
 74
     0
  0
ENDTAB
  0
TABLE
  2
LAYER
  5
2
330
0
100
AcDbSymbolTable
 70
     1
  0
LAYER
  5
10
330
2
100
AcDbSymbolTableRecord
100
AcDbLayerTableRecord
  2
0
 70
     0
 62
     7
  6
Continuous
370
    -3
390
F
  0
ENDTAB
  0
TABLE
  2
STYLE
  5
3
330
0
100
AcDbSymbolTable
 70
     1
  0
STYLE
  5
11
330
3
100
AcDbSymbolTableRecord
100
AcDbTextStyleTableRecord
  2
Standard
 70
     0
 40
0.0
 41
1.0
 50
0.0
 71
     0
 42
3.5
  3
txt
  4

  0
ENDTAB
  0
TABLE
  2
VIEW
  5
6
330
0
100
AcDbSymbolTable
 70
     0
  0
ENDTAB
  0
TABLE
  2
UCS
  5
7
330
0
100
AcDbSymbolTable
 70
     0
  0
ENDTAB
  0
TABLE
  2
APPID
  5
9
330
0
100
AcDbSymbolTable
 70
     1
  0
APPID
  5
12
330
9
100
AcDbSymbolTableRecord
100
AcDbRegAppTableRecord
  2
ACAD
 70
     0
  0
ENDTAB
  0
TABLE
  2
DIMSTYLE
  5
A
330
0
100
AcDbSymbolTable
 70
     1
100
AcDbDimStyleTable
  0
DIMSTYLE
105
27
330
A
100
AcDbSymbolTableRecord
100
AcDbDimStyleTableRecord
  2
ISO-25
 70
     0
 41
2.5
 42
0.625
 43
3.75
 44
1.25
 73
     0
 74
     0
 77
     1
 78
     8
140
2.5
141
2.5
143
0.0393700787
147
0.625
171
     3
172
     1
178
     0
271
     2
272
     2
274
     3
278
    44
283
     0
284
     8
340
11
  0
ENDTAB
  0
TABLE
  2
BLOCK_RECORD
  5
1
330
0
100
AcDbSymbolTable
 70
     1
  0
BLOCK_RECORD
  5
1F
330
1
100
AcDbSymbolTableRecord
100
AcDbBlockTableRecord
  2
*Model_Space
340
22
  0
BLOCK_RECORD
  5
1B
330
1
100
AcDbSymbolTableRecord
100
AcDbBlockTableRecord
  2
*Paper_Space
340
1E
  0
BLOCK_RECORD
  5
23
330
1
100
AcDbSymbolTableRecord
100
AcDbBlockTableRecord
  2
*Paper_Space0
340
26
  0
ENDTAB
  0
ENDSEC
  0
SECTION
  2
BLOCKS
  0
BLOCK
  5
20
330
1F
100
AcDbEntity
  8
0
100
AcDbBlockBegin
  2
*Model_Space
 70
     0
 10
0.0
 20
0.0
 30
0.0
  3
*Model_Space
  1

  0
ENDBLK
  5
21
330
1F
100
AcDbEntity
  8
0
100
AcDbBlockEnd
  0
BLOCK
  5
1C
330
1B
100
AcDbEntity
 67
     1
  8
0
100
AcDbBlockBegin
  2
*Paper_Space
 70
     0
 10
0.0
 20
0.0
 30
0.0
  3
*Paper_Space
  1

  0
ENDBLK
  5
1D
330
1B
100
AcDbEntity
 67
     1
  8
0
100
AcDbBlockEnd
  0
BLOCK
  5
24
330
23
100
AcDbEntity
  8
0
100
AcDbBlockBegin
  2
*Paper_Space0
 70
     0
 10
0.0
 20
0.0
 30
0.0
  3
*Paper_Space0
  1

  0
ENDBLK
  5
25
330
23
100
AcDbEntity
  8
0
100
AcDbBlockEnd
  0
ENDSEC
  0
SECTION
  2
ENTITIES
  0
CIRCLE
  5
73
330
1F
100
AcDbEntity
  8
0
  6
Continuous
 62
     7
100
AcDbCircle
 10
0.0
 20
0.0
 30
0.0
 40
125.0
  0
CIRCLE
  5
74
330
1F
100
AcDbEntity
  8
0
  6
Continuous
 62
     7
100
AcDbCircle
 10
0.0178801075
 20
0.0061566148
 30
0.0
 40
85.01711730510232
  0
LINE
  5
75
330
1F
100
AcDbEntity
  8
0
  6
Continuous
 62
     7
100
AcDbLine
 10
0.0
 20
0.0
 30
0.0
 11
0.02
 21
0.0
 31
0.0
  0
LINE
  5
76
330
1F
100
AcDbEntity
  8
0
  6
Continuous
 62
     7
100
AcDbLine
 10
0.000001523
 20
0.0001745241
 30
0.0
 11
0.019998477
 21
-0.0001745241
 31
0.0
  0
LINE
  5
77
330
1F
100
AcDbEntity
  8
0
  6
Continuous
 62
     7
100
AcDbLine
 10
0.0000060917
 20
0.000348995
 30
0.0
 11
0.0199939083
 21
-0.000348995
 31
0.0
  0
LINE
  5
78
330
1F
100
AcDbEntity
  8
0
  6
Continuous
 62
     7
100
AcDbLine
 10
0.0000137047
 20
0.0005233596
 30
0.0
 11
0.0199862953
 21
-0.0005233596
 31
0.0
  0
LINE
  5
79
330
1F
100
AcDbEntity
  8
0
  6
Continuous
 62
     7
100
AcDbLine
 10
0.0000243595
 20
0.0006975647
 30
0.0
 11
0.0199756405
 21
-0.0006975647
 31
0.0
  0
LINE
  5
7A
330
1F
100
AcDbEntity
  8
0
  6
Continuous
 62
     7
100
AcDbLine
 10
0.000038053
 20
0.0008715574
 30
0.0
 11
0.019961947
 21
-0.0008715574
 31
0.0
  0
LINE
  5
7B
330
1F
100
AcDbEntity
  8
0
  6
Continuous
 62
     7
100
AcDbLine
 10
0.000054781
 20
0.0010452846
 30
0.0
 11
0.019945219
 21
-0.0010452846
 31
0.0
  0
LINE
  5
7C
330
1F
100
AcDbEntity
  8
0
  6
Continuous
 62
     7
100
AcDbLine
 10
0.0000745385
 20
0.0012186934
 30
0.0
 11
0.0199254615
 21
-0.0012186934
 31
0.0
  0
LINE
  5
7D
330
1F
100
AcDbEntity
  8
0
  6
Continuous
 62
     7
100
AcDbLine
 10
0.0000973193
 20
0.001391731
 30
0.0
 11
0.0199026807
 21
-0.001391731
 31
0.0
  0
LINE
  5
7E
330
1F
100
AcDbEntity
  8
0
  6
Continuous
 62
     7
100
AcDbLine
 10
0.0001231166
 20
0.0015643447
 30
0.0
 11
0.0198768834
 21
-0.0015643447
 31
0.0
  0
LINE
  5
7F
330
1F
100
AcDbEntity
  8
0
  6
Continuous
 62
     7
100
AcDbLine
 10
0.0001519225
 20
0.0017364818
 30
0.0
 11
0.0198480775
 21
-0.0017364818
 31
0.0
  0
LINE
  5
80
330
1F
100
AcDbEntity
  8
0
  6
Continuous
 62
     7
100
AcDbLine
 10
0.0001837282
 20
0.00190809
 30
0.0
 11
0.0198162718
 21
-0.00190809
 31
0.0
  0
LINE
  5
81
330
1F
100
AcDbEntity
  8
0
  6
Continuous
 62
     7
100
AcDbLine
 10
0.000218524
 20
0.0020791169
 30
0.0
 11
0.019781476
 21
-0.0020791169
 31
0.0
  0
LINE
  5
82
330
1F
100
AcDbEntity
  8
0
  6
Continuous
 62
     7
100
AcDbLine
 10
0.0002562994
 20
0.0022495105
 30
0.0
 11
0.0197437006
 21
-0.0022495105
 31
0.0
  0
LINE
  5
83
330
1F
100
AcDbEntity
  8
0
  6
Continuous
 62
     7
100
AcDbLine
 10
0.0002970427
 20
0.002419219
 30
0.0
 11
0.0197029573
 21
-0.002419219
 31
0.0
  0
LINE
  5
84
330
1F
100
AcDbEntity
  8
0
  6
Continuous
 62
     7
100
AcDbLine
 10
0.0003407417
 20
0.0025881905
 30
0.0
 11
0.0196592583
 21
-0.0025881905
 31
0.0
  0
LINE
  5
85
330
1F
100
AcDbEntity
  8
0
  6
Continuous
 62
     7
100
AcDbLine
 10
0.000387383
 20
0.0027563736
 30
0.0
 11
0.019612617
 21
-0.0027563736
 31
0.0
  0
LINE
  5
86
330
1F
100
AcDbEntity
  8
0
  6
Continuous
 62
     7
100
AcDbLine
 10
0.0004369524
 20
0.002923717
 30
0.0
 11
0.0195630476
 21
-0.002923717
 31
0.0
  0
LINE
  5
87
330
1F
100
AcDbEntity
  8
0
  6
Continuous
 62
     7
100
AcDbLine
 10
0.0004894348
 20
0.0030901699
 30
0.0
 11
0.0195105652
 21
-0.0030901699
 31
0.0
  0
LINE
  5
88
330
1F
100
AcDbEntity
  8
0
  6
Continuous
 62
     7
100
AcDbLine
 10
0.0005448142
 20
0.0032556815
 30
0.0
 11
0.0194551858
 21
-0.0032556815
 31
0.0
  0
LINE
  5
89
330
1F
100
AcDbEntity
  8
0
  6
Continuous
 62
     7
100
AcDbLine
 10
0.0006030738
 20
0.0034202014
 30
0.0
 11
0.0193969262
 21
-0.0034202014
 31
0.0
  0
LINE
  5
8A
330
1F
100
AcDbEntity
  8
0
  6
Continuous
 62
     7
100
AcDbLine
 10
0.0006641957
 20
0.0035836795
 30
0.0
 11
0.0193358043
 21
-0.0035836795
 31
0.0
  0
LINE
  5
8B
330
1F
100
AcDbEntity
  8
0
  6
Continuous
 62
     7
100
AcDbLine
 10
0.0007281615
 20
0.0037460659
 30
0.0
 11
0.0192718385
 21
-0.0037460659
 31
0.0
  0
LINE
  5
8C
330
1F
100
AcDbEntity
  8
0
  6
Continuous
 62
     7
100
AcDbLine
 10
0.0007949515
 20
0.0039073113
 30
0.0
 11
0.01
 21
0.0
 31
0.0
  0
LINE
  5
8D
330
1F
100
AcDbEntity
  8
0
  6
Continuous
 62
     7
100
AcDbLine
 10
0.0008645454
 20
0.0040673664
 30
0.0
 11
0.0191354546
 21
-0.0040673664
 31
0.0
  0
LINE
  5
8E
330
1F
100
AcDbEntity
  8
0
  6
Continuous
 62
     7
100
AcDbLine
 10
0.0009369221
 20
0.0042261826
 30
0.0
 11
0.0190630779
 21
-0.0042261826
 31
0.0
  0
LINE
  5
8F
330
1F
100
AcDbEntity
  8
0
  6
Continuous
 62
     7
100
AcDbLine
 10
0.0010120595
 20
0.0043837115
 30
0.0
 11
0.01
 21
0.0
 31
0.0
  0
LINE
  5
90
330
1F
100
AcDbEntity
  8
0
  6
Continuous
 62
     7
100
AcDbLine
 10
0.0010899348
 20
0.004539905
 30
0.0
 11
0.0189100652
 21
-0.004539905
 31
0.0
  0
LINE
  5
91
330
1F
100
AcDbEntity
  8
0
  6
Continuous
 62
     7
100
AcDbLine
 10
0.0011705241
 20
0.0046947156
 30
0.0
 11
0.0188294759
 21
-0.0046947156
 31
0.0
  0
LINE
  5
92
330
1F
100
AcDbEntity
  8
0
  6
Continuous
 62
     7
100
AcDbLine
 10
0.0012538029
 20
0.0048480962
 30
0.0
 11
0.0187461971
 21
-0.0048480962
 31
0.0
  0
LINE
  5
93
330
1F
100
AcDbEntity
  8
0
  6
Continuous
 62
     7
100
AcDbLine
 10
0.001339746
 20
0.005
 30
0.0
 11
0.018660254
 21
-0.005
 31
0.0
  0
LINE
  5
94
330
1F
100
AcDbEntity
  8
0
  6
Continuous
 62
     7
100
AcDbLine
 10
0.001428327
 20
0.0051503807
 30
0.0
 11
0.018571673
 21
-0.0051503807
 31
0.0
  0
LINE
  5
95
330
1F
100
AcDbEntity
  8
0
  6
Continuous
 62
     7
100
AcDbLine
 10
0.001519519
 20
0.0052991926
 30
0.0
 11
0.018480481
 21
-0.0052991926
 31
0.0
  0
LINE
  5
96
330
1F
100
AcDbEntity
  8
0
  6
Continuous
 62
     7
100
AcDbLine
 10
0.0016132943
 20
0.0054463904
 30
0.0
 11
0.0183867057
 21
-0.0054463904
 31
0.0
  0
LINE
  5
97
330
1F
100
AcDbEntity
  8
0
  6
Continuous
 62
     7
100
AcDbLine
 10
0.0017096243
 20
0.005591929
 30
0.0
 11
0.0182903757
 21
-0.005591929
 31
0.0
  0
LINE
  5
98
330
1F
100
AcDbEntity
  8
0
  6
Continuous
 62
     7
100
AcDbLine
 10
0.0018084796
 20
0.0057357644
 30
0.0
 11
0.0181915204
 21
-0.0057357644
 31
0.0
  0
LINE
  5
99
330
1F
100
AcDbEntity
  8
0
  6
Continuous
 62
     7
100
AcDbLine
 10
0.0019098301
 20
0.0058778525
 30
0.0
 11
0.0180901699
 21
-0.0058778525
 31
0.0
  0
LINE
  5
9A
330
1F
100
AcDbEntity
  8
0
  6
Continuous
 62
     7
100
AcDbLine
 10
0.0020136449
 20
0.0060181502
 30
0.0
 11
0.0179863551
 21
-0.0060181502
 31
0.0
  0
LINE
  5
9B
330
1F
100
AcDbEntity
  8
0
  6
Continuous
 62
     7
100
AcDbLine
 10
0.0021198925
 20
0.0061566148
 30
0.0
 11
0.0178801075
 21
-0.0061566148
 31
0.0
  0
LINE
  5
9C
330
1F
100
AcDbEntity
  8
0
  6
Continuous
 62
     7
100
AcDbLine
 10
0.0022285404
 20
0.0062932039
 30
0.0
 11
0.0177714596
 21
-0.0062932039
 31
0.0
  0
LINE
  5
9D
330
1F
100
AcDbEntity
  8
0
  6
Continuous
 62
     7
100
AcDbLine
 10
0.0023395556
 20
0.0064278761
 30
0.0
 11
0.0176604444
 21
-0.0064278761
 31
0.0
  0
LINE
  5
9E
330
1F
100
AcDbEntity
  8
0
  6
Continuous
 62
     7
100
AcDbLine
 10
0.0024529042
 20
0.0065605903
 30
0.0
 11
0.0175470958
 21
-0.0065605903
 31
0.0
  0
LINE
  5
9F
330
1F
100
AcDbEntity
  8
0
  6
Continuous
 62
     7
100
AcDbLine
 10
0.0025685517
 20
0.0066913061
 30
0.0
 11
0.0174314483
 21
-0.0066913061
 31
0.0
  0
LINE
  5
A0
330
1F
100
AcDbEntity
  8
0
  6
Continuous
 62
     7
100
AcDbLine
 10
0.002686463
 20
0.0068199836
 30
0.0
 11
0.017313537
 21
-0.0068199836
 31
0.0
  0
LINE
  5
A1
330
1F
100
AcDbEntity
  8
0
  6
Continuous
 62
     7
100
AcDbLine
 10
0.002806602
 20
0.0069465837
 30
0.0
 11
0.017193398
 21
-0.0069465837
 31
0.0
  0
LINE
  5
A2
330
1F
100
AcDbEntity
  8
0
  6
Continuous
 62
     7
100
AcDbLine
 10
0.0029289322
 20
0.0070710678
 30
0.0
 11
0.01
 21
0.0
 31
0.0
  0
LINE
  5
A3
330
1F
100
AcDbEntity
  8
0
  6
Continuous
 62
     7
100
AcDbLine
 10
0.0030534163
 20
0.007193398
 30
0.0
 11
0.0169465837
 21
-0.007193398
 31
0.0
  0
LINE
  5
A4
330
1F
100
AcDbEntity
  8
0
  6
Continuous
 62
     7
100
AcDbLine
 10
0.0031800164
 20
0.007313537
 30
0.0
 11
0.0168199836
 21
-0.007313537
 31
0.0
  0
LINE
  5
A5
330
1F
100
AcDbEntity
  8
0
  6
Continuous
 62
     7
100
AcDbLine
 10
0.0033086939
 20
0.0074314483
 30
0.0
 11
0.0166913061
 21
-0.0074314483
 31
0.0
  0
LINE
  5
A6
330
1F
100
AcDbEntity
  8
0
  6
Continuous
 62
     7
100
AcDbLine
 10
0.0034394097
 20
0.0075470958
 30
0.0
 11
0.0165605903
 21
-0.0075470958
 31
0.0
  0
LINE
  5
A7
330
1F
100
AcDbEntity
  8
0
  6
Continuous
 62
     7
100
AcDbLine
 10
0.0035721239
 20
0.0076604444
 30
0.0
 11
0.0164278761
 21
-0.0076604444
 31
0.0
  0
LINE
  5
A8
330
1F
100
AcDbEntity
  8
0
  6
Continuous
 62
     7
100
AcDbLine
 10
0.0037067961
 20
0.0077714596
 30
0.0
 11
0.0162932039
 21
-0.0077714596
 31
0.0
  0
LINE
  5
A9
330
1F
100
AcDbEntity
  8
0
  6
Continuous
 62
     7
100
AcDbLine
 10
0.0038433852
 20
0.0078801075
 30
0.0
 11
0.0161566148
 21
-0.0078801075
 31
0.0
  0
LINE
  5
AA
330
1F
100
AcDbEntity
  8
0
  6
Continuous
 62
     7
100
AcDbLine
 10
0.0039818498
 20
0.0079863551
 30
0.0
 11
0.0160181502
 21
-0.0079863551
 31
0.0
  0
LINE
  5
AB
330
1F
100
AcDbEntity
  8
0
  6
Continuous
 62
     7
100
AcDbLine
 10
0.0041221475
 20
0.0080901699
 30
0.0
 11
0.0158778525
 21
-0.0080901699
 31
0.0
  0
LINE
  5
AC
330
1F
100
AcDbEntity
  8
0
  6
Continuous
 62
     7
100
AcDbLine
 10
0.0042642356
 20
0.0081915204
 30
0.0
 11
0.01
 21
0.0
 31
0.0
  0
LINE
  5
AD
330
1F
100
AcDbEntity
  8
0
  6
Continuous
 62
     7
100
AcDbLine
 10
0.004408071
 20
0.0082903757
 30
0.0
 11
0.015591929
 21
-0.0082903757
 31
0.0
  0
LINE
  5
AE
330
1F
100
AcDbEntity
  8
0
  6
Continuous
 62
     7
100
AcDbLine
 10
0.0045536096
 20
0.0083867057
 30
0.0
 11
0.0154463904
 21
-0.0083867057
 31
0.0
  0
LINE
  5
AF
330
1F
100
AcDbEntity
  8
0
  6
Continuous
 62
     7
100
AcDbLine
 10
0.0047008074
 20
0.008480481
 30
0.0
 11
0.0152991926
 21
-0.008480481
 31
0.0
  0
LINE
  5
B0
330
1F
100
AcDbEntity
  8
0
  6
Continuous
 62
     7
100
AcDbLine
 10
0.0048496193
 20
0.008571673
 30
0.0
 11
0.0151503807
 21
-0.008571673
 31
0.0
  0
LINE
  5
B1
330
1F
100
AcDbEntity
  8
0
  6
Continuous
 62
     7
100
AcDbLine
 10
0.005
 20
0.008660254
 30
0.0
 11
0.015
 21
-0.008660254
 31
0.0
  0
LINE
  5
B2
330
1F
100
AcDbEntity
  8
0
  6
Continuous
 62
     7
100
AcDbLine
 10
0.0051519038
 20
0.0087461971
 30
0.0
 11
0.01
 21
0.0
 31
0.0
  0
LINE
  5
B3
330
1F
100
AcDbEntity
  8
0
  6
Continuous
 62
     7
100
AcDbLine
 10
0.0053052844
 20
0.0088294759
 30
0.0
 11
0.0146947156
 21
-0.0088294759
 31
0.0
  0
LINE
  5
B4
330
1F
100
AcDbEntity
  8
0
  6
Continuous
 62
     7
100
AcDbLine
 10
0.005460095
 20
0.0089100652
 30
0.0
 11
0.014539905
 21
-0.0089100652
 31
0.0
  0
LINE
  5
B5
330
1F
100
AcDbEntity
  8
0
  6
Continuous
 62
     7
100
AcDbLine
 10
0.0056162885
 20
0.0089879405
 30
0.0
 11
0.0143837115
 21
-0.0089879405
 31
0.0
  0
LINE
  5
B6
330
1F
100
AcDbEntity
  8
0
  6
Continuous
 62
     7
100
AcDbLine
 10
0.0057738174
 20
0.0090630779
 30
0.0
 11
0.0142261826
 21
-0.0090630779
 31
0.0
  0
LINE
  5
B7
330
1F
100
AcDbEntity
  8
0
  6
Continuous
 62
     7
100
AcDbLine
 10
0.0059326336
 20
0.0091354546
 30
0.0
 11
0.0140673664
 21
-0.0091354546
 31
0.0
  0
LINE
  5
B8
330
1F
100
AcDbEntity
  8
0
  6
Continuous
 62
     7
100
AcDbLine
 10
0.0060926887
 20
0.0092050485
 30
0.0
 11
0.0139073113
 21
-0.0092050485
 31
0.0
  0
LINE
  5
B9
330
1F
100
AcDbEntity
  8
0
  6
Continuous
 62
     7
100
AcDbLine
 10
0.0062539341
 20
0.0092718385
 30
0.0
 11
0.0137460659
 21
-0.0092718385
 31
0.0
  0
LINE
  5
BA
330
1F
100
AcDbEntity
  8
0
  6
Continuous
 62
     7
100
AcDbLine
 10
0.0064163205
 20
0.0093358043
 30
0.0
 11
0.0135836795
 21
-0.0093358043
 31
0.0
  0
LINE
  5
BB
330
1F
100
AcDbEntity
  8
0
  6
Continuous
 62
     7
100
AcDbLine
 10
0.0065797986
 20
0.0093969262
 30
0.0
 11
0.0134202014
 21
-0.0093969262
 31
0.0
  0
LINE
  5
BC
330
1F
100
AcDbEntity
  8
0
  6
Continuous
 62
     7
100
AcDbLine
 10
0.0067443185
 20
0.0094551858
 30
0.0
 11
0.0132556815
 21
-0.0094551858
 31
0.0
  0
LINE
  5
BD
330
1F
100
AcDbEntity
  8
0
  6
Continuous
 62
     7
100
AcDbLine
 10
0.0069098301
 20
0.0095105652
 30
0.0
 11
0.0130901699
 21
-0.0095105652
 31
0.0
  0
LINE
  5
BE
330
1F
100
AcDbEntity
  8
0
  6
Continuous
 62
     7
100
AcDbLine
 10
0.007076283
 20
0.0095630476
 30
0.0
 11
0.012923717
 21
-0.0095630476
 31
0.0
  0
LINE
  5
BF
330
1F
100
AcDbEntity
  8
0
  6
Continuous
 62
     7
100
AcDbLine
 10
0.0072436264
 20
0.009612617
 30
0.0
 11
0.0127563736
 21
-0.009612617
 31
0.0
  0
LINE
  5
C0
330
1F
100
AcDbEntity
  8
0
  6
Continuous
 62
     7
100
AcDbLine
 10
0.0074118095
 20
0.0096592583
 30
0.0
 11
0.0125881905
 21
-0.0096592583
 31
0.0
  0
LINE
  5
C1
330
1F
100
AcDbEntity
  8
0
  6
Continuous
 62
     7
100
AcDbLine
 10
0.007580781
 20
0.0097029573
 30
0.0
 11
0.012419219
 21
-0.0097029573
 31
0.0
  0
LINE
  5
C2
330
1F
100
AcDbEntity
  8
0
  6
Continuous
 62
     7
100
AcDbLine
 10
0.0077504895
 20
0.0097437006
 30
0.0
 11
0.0122495105
 21
-0.0097437006
 31
0.0
  0
LINE
  5
C3
330
1F
100
AcDbEntity
  8
0
  6
Continuous
 62
     7
100
AcDbLine
 10
0.0079208831
 20
0.009781476
 30
0.0
 11
0.0120791169
 21
-0.009781476
 31
0.0
  0
LINE
  5
C4
330
1F
100
AcDbEntity
  8
0
  6
Continuous
 62
     7
100
AcDbLine
 10
0.00809191
 20
0.0098162718
 30
0.0
 11
0.01190809
 21
-0.0098162718
 31
0.0
  0
LINE
  5
C5
330
1F
100
AcDbEntity
  8
0
  6
Continuous
 62
     7
100
AcDbLine
 10
0.0082635182
 20
0.0098480775
 30
0.0
 11
0.0117364818
 21
-0.0098480775
 31
0.0
  0
LINE
  5
C6
330
1F
100
AcDbEntity
  8
0
  6
Continuous
 62
     7
100
AcDbLine
 10
0.0084356553
 20
0.0098768834
 30
0.0
 11
0.01
 21
0.0
 31
0.0
  0
LINE
  5
C7
330
1F
100
AcDbEntity
  8
0
  6
Continuous
 62
     7
100
AcDbLine
 10
0.008608269
 20
0.0099026807
 30
0.0
 11
0.011391731
 21
-0.0099026807
 31
0.0
  0
LINE
  5
C8
330
1F
100
AcDbEntity
  8
0
  6
Continuous
 62
     7
100
AcDbLine
 10
0.0087813066
 20
0.0099254615
 30
0.0
 11
0.0112186934
 21
-0.0099254615
 31
0.0
  0
LINE
  5
C9
330
1F
100
AcDbEntity
  8
0
  6
Continuous
 62
     7
100
AcDbLine
 10
0.0089547154
 20
0.009945219
 30
0.0
 11
0.0110452846
 21
-0.009945219
 31
0.0
  0
LINE
  5
CA
330
1F
100
AcDbEntity
  8
0
  6
Continuous
 62
     7
100
AcDbLine
 10
0.0091284426
 20
0.009961947
 30
0.0
 11
0.0108715574
 21
-0.009961947
 31
0.0
  0
LINE
  5
CB
330
1F
100
AcDbEntity
  8
0
  6
Continuous
 62
     7
100
AcDbLine
 10
0.0093024353
 20
0.0099756405
 30
0.0
 11
0.0106975647
 21
-0.0099756405
 31
0.0
  0
LINE
  5
CC
330
1F
100
AcDbEntity
  8
0
  6
Continuous
 62
     7
100
AcDbLine
 10
0.0094766404
 20
0.0099862953
 30
0.0
 11
0.0105233596
 21
-0.0099862953
 31
0.0
  0
LINE
  5
CD
330
1F
100
AcDbEntity
  8
0
  6
Continuous
 62
     7
100
AcDbLine
 10
0.009651005
 20
0.0099939083
 30
0.0
 11
0.010348995
 21
-0.0099939083
 31
0.0
  0
LINE
  5
CE
330
1F
100
AcDbEntity
  8
0
  6
Continuous
 62
     7
100
AcDbLine
 10
0.0098254759
 20
0.009998477
 30
0.0
 11
0.0101745241
 21
-0.009998477
 31
0.0
  0
LINE
  5
CF
330
1F
100
AcDbEntity
  8
0
  6
Continuous
 62
     7
100
AcDbLine
 10
0.01
 20
0.01
 30
0.0
 11
0.01
 21
-0.01
 31
0.0
  0
LINE
  5
D0
330
1F
100
AcDbEntity
  8
0
  6
Continuous
 62
     7
100
AcDbLine
 10
0.0101745241
 20
0.009998477
 30
0.0
 11
0.0098254759
 21
-0.009998477
 31
0.0
  0
LINE
  5
D1
330
1F
100
AcDbEntity
  8
0
  6
Continuous
 62
     7
100
AcDbLine
 10
0.010348995
 20
0.0099939083
 30
0.0
 11
0.009651005
 21
-0.0099939083
 31
0.0
  0
LINE
  5
D2
330
1F
100
AcDbEntity
  8
0
  6
Continuous
 62
     7
100
AcDbLine
 10
0.0105233596
 20
0.0099862953
 30
0.0
 11
0.0094766404
 21
-0.0099862953
 31
0.0
  0
LINE
  5
D3
330
1F
100
AcDbEntity
  8
0
  6
Continuous
 62
     7
100
AcDbLine
 10
0.0106975647
 20
0.0099756405
 30
0.0
 11
0.0093024353
 21
-0.0099756405
 31
0.0
  0
LINE
  5
D4
330
1F
100
AcDbEntity
  8
0
  6
Continuous
 62
     7
100
AcDbLine
 10
0.0108715574
 20
0.009961947
 30
0.0
 11
0.0091284426
 21
-0.009961947
 31
0.0
  0
LINE
  5
D5
330
1F
100
AcDbEntity
  8
0
  6
Continuous
 62
     7
100
AcDbLine
 10
0.0110452846
 20
0.009945219
 30
0.0
 11
0.0089547154
 21
-0.009945219
 31
0.0
  0
LINE
  5
D6
330
1F
100
AcDbEntity
  8
0
  6
Continuous
 62
     7
100
AcDbLine
 10
0.0112186934
 20
0.0099254615
 30
0.0
 11
0.0087813066
 21
-0.0099254615
 31
0.0
  0
LINE
  5
D7
330
1F
100
AcDbEntity
  8
0
  6
Continuous
 62
     7
100
AcDbLine
 10
0.011391731
 20
0.0099026807
 30
0.0
 11
0.008608269
 21
-0.0099026807
 31
0.0
  0
LINE
  5
D8
330
1F
100
AcDbEntity
  8
0
  6
Continuous
 62
     7
100
AcDbLine
 10
0.0115643447
 20
0.0098768834
 30
0.0
 11
0.0084356553
 21
-0.0098768834
 31
0.0
  0
LINE
  5
D9
330
1F
100
AcDbEntity
  8
0
  6
Continuous
 62
     7
100
AcDbLine
 10
0.0117364818
 20
0.0098480775
 30
0.0
 11
0.0082635182
 21
-0.0098480775
 31
0.0
  0
LINE
  5
DA
330
1F
100
AcDbEntity
  8
0
  6
Continuous
 62
     7
100
AcDbLine
 10
0.01190809
 20
0.0098162718
 30
0.0
 11
0.00809191
 21
-0.0098162718
 31
0.0
  0
LINE
  5
DB
330
1F
100
AcDbEntity
  8
0
  6
Continuous
 62
     7
100
AcDbLine
 10
0.0120791169
 20
0.009781476
 30
0.0
 11
0.0079208831
 21
-0.009781476
 31
0.0
  0
LINE
  5
DC
330
1F
100
AcDbEntity
  8
0
  6
Continuous
 62
     7
100
AcDbLine
 10
0.0122495105
 20
0.0097437006
 30
0.0
 11
0.0077504895
 21
-0.0097437006
 31
0.0
  0
LINE
  5
DD
330
1F
100
AcDbEntity
  8
0
  6
Continuous
 62
     7
100
AcDbLine
 10
0.012419219
 20
0.0097029573
 30
0.0
 11
0.007580781
 21
-0.0097029573
 31
0.0
  0
LINE
  5
DE
330
1F
100
AcDbEntity
  8
0
  6
Continuous
 62
     7
100
AcDbLine
 10
0.0125881905
 20
0.0096592583
 30
0.0
 11
0.0074118095
 21
-0.0096592583
 31
0.0
  0
LINE
  5
DF
330
1F
100
AcDbEntity
  8
0
  6
Continuous
 62
     7
100
AcDbLine
 10
0.0127563736
 20
0.009612617
 30
0.0
 11
0.0072436264
 21
-0.009612617
 31
0.0
  0
LINE
  5
E0
330
1F
100
AcDbEntity
  8
0
  6
Continuous
 62
     7
100
AcDbLine
 10
0.012923717
 20
0.0095630476
 30
0.0
 11
0.007076283
 21
-0.0095630476
 31
0.0
  0
LINE
  5
E1
330
1F
100
AcDbEntity
  8
0
  6
Continuous
 62
     7
100
AcDbLine
 10
0.0130901699
 20
0.0095105652
 30
0.0
 11
0.0069098301
 21
-0.0095105652
 31
0.0
  0
LINE
  5
E2
330
1F
100
AcDbEntity
  8
0
  6
Continuous
 62
     7
100
AcDbLine
 10
0.0132556815
 20
0.0094551858
 30
0.0
 11
0.0067443185
 21
-0.0094551858
 31
0.0
  0
LINE
  5
E3
330
1F
100
AcDbEntity
  8
0
  6
Continuous
 62
     7
100
AcDbLine
 10
0.0134202014
 20
0.0093969262
 30
0.0
 11
0.0065797986
 21
-0.0093969262
 31
0.0
  0
LINE
  5
E4
330
1F
100
AcDbEntity
  8
0
  6
Continuous
 62
     7
100
AcDbLine
 10
0.0135836795
 20
0.0093358043
 30
0.0
 11
0.0064163205
 21
-0.0093358043
 31
0.0
  0
LINE
  5
E5
330
1F
100
AcDbEntity
  8
0
  6
Continuous
 62
     7
100
AcDbLine
 10
0.0137460659
 20
0.0092718385
 30
0.0
 11
0.0062539341
 21
-0.0092718385
 31
0.0
  0
LINE
  5
E6
330
1F
100
AcDbEntity
  8
0
  6
Continuous
 62
     7
100
AcDbLine
 10
0.0139073113
 20
0.0092050485
 30
0.0
 11
0.0060926887
 21
-0.0092050485
 31
0.0
  0
LINE
  5
E7
330
1F
100
AcDbEntity
  8
0
  6
Continuous
 62
     7
100
AcDbLine
 10
0.0140673664
 20
0.0091354546
 30
0.0
 11
0.0059326336
 21
-0.0091354546
 31
0.0
  0
LINE
  5
E8
330
1F
100
AcDbEntity
  8
0
  6
Continuous
 62
     7
100
AcDbLine
 10
0.0142261826
 20
0.0090630779
 30
0.0
 11
0.0057738174
 21
-0.0090630779
 31
0.0
  0
LINE
  5
E9
330
1F
100
AcDbEntity
  8
0
  6
Continuous
 62
     7
100
AcDbLine
 10
0.0143837115
 20
0.0089879405
 30
0.0
 11
0.0056162885
 21
-0.0089879405
 31
0.0
  0
LINE
  5
EA
330
1F
100
AcDbEntity
  8
0
  6
Continuous
 62
     7
100
AcDbLine
 10
0.014539905
 20
0.0089100652
 30
0.0
 11
0.005460095
 21
-0.0089100652
 31
0.0
  0
LINE
  5
EB
330
1F
100
AcDbEntity
  8
0
  6
Continuous
 62
     7
100
AcDbLine
 10
0.0146947156
 20
0.0088294759
 30
0.0
 11
0.0053052844
 21
-0.0088294759
 31
0.0
  0
LINE
  5
EC
330
1F
100
AcDbEntity
  8
0
  6
Continuous
 62
     7
100
AcDbLine
 10
0.0148480962
 20
0.0087461971
 30
0.0
 11
0.0051519038
 21
-0.0087461971
 31
0.0
  0
LINE
  5
ED
330
1F
100
AcDbEntity
  8
0
  6
Continuous
 62
     7
100
AcDbLine
 10
0.015
 20
0.008660254
 30
0.0
 11
0.005
 21
-0.008660254
 31
0.0
  0
LINE
  5
EE
330
1F
100
AcDbEntity
  8
0
  6
Continuous
 62
     7
100
AcDbLine
 10
0.0151503807
 20
0.008571673
 30
0.0
 11
0.0048496193
 21
-0.008571673
 31
0.0
  0
LINE
  5
EF
330
1F
100
AcDbEntity
  8
0
  6
Continuous
 62
     7
100
AcDbLine
 10
0.0152991926
 20
0.008480481
 30
0.0
 11
0.0047008074
 21
-0.008480481
 31
0.0
  0
LINE
  5
F0
330
1F
100
AcDbEntity
  8
0
  6
Continuous
 62
     7
100
AcDbLine
 10
0.0154463904
 20
0.0083867057
 30
0.0
 11
0.0045536096
 21
-0.0083867057
 31
0.0
  0
LINE
  5
F1
330
1F
100
AcDbEntity
  8
0
  6
Continuous
 62
     7
100
AcDbLine
 10
0.015591929
 20
0.0082903757
 30
0.0
 11
0.004408071
 21
-0.0082903757
 31
0.0
  0
LINE
  5
F2
330
1F
100
AcDbEntity
  8
0
  6
Continuous
 62
     7
100
AcDbLine
 10
0.0157357644
 20
0.0081915204
 30
0.0
 11
0.0042642356
 21
-0.0081915204
 31
0.0
  0
LINE
  5
F3
330
1F
100
AcDbEntity
  8
0
  6
Continuous
 62
     7
100
AcDbLine
 10
0.0158778525
 20
0.0080901699
 30
0.0
 11
0.0041221475
 21
-0.0080901699
 31
0.0
  0
LINE
  5
F4
330
1F
100
AcDbEntity
  8
0
  6
Continuous
 62
     7
100
AcDbLine
 10
0.0160181502
 20
0.0079863551
 30
0.0
 11
0.0039818498
 21
-0.0079863551
 31
0.0
  0
LINE
  5
F5
330
1F
100
AcDbEntity
  8
0
  6
Continuous
 62
     7
100
AcDbLine
 10
0.0161566148
 20
0.0078801075
 30
0.0
 11
0.0038433852
 21
-0.0078801075
 31
0.0
  0
LINE
  5
F6
330
1F
100
AcDbEntity
  8
0
  6
Continuous
 62
     7
100
AcDbLine
 10
0.0162932039
 20
0.0077714596
 30
0.0
 11
0.0037067961
 21
-0.0077714596
 31
0.0
  0
LINE
  5
F7
330
1F
100
AcDbEntity
  8
0
  6
Continuous
 62
     7
100
AcDbLine
 10
0.0164278761
 20
0.0076604444
 30
0.0
 11
0.0035721239
 21
-0.0076604444
 31
0.0
  0
LINE
  5
F8
330
1F
100
AcDbEntity
  8
0
  6
Continuous
 62
     7
100
AcDbLine
 10
0.0165605903
 20
0.0075470958
 30
0.0
 11
0.0034394097
 21
-0.0075470958
 31
0.0
  0
LINE
  5
F9
330
1F
100
AcDbEntity
  8
0
  6
Continuous
 62
     7
100
AcDbLine
 10
0.0166913061
 20
0.0074314483
 30
0.0
 11
0.0033086939
 21
-0.0074314483
 31
0.0
  0
LINE
  5
FA
330
1F
100
AcDbEntity
  8
0
  6
Continuous
 62
     7
100
AcDbLine
 10
0.0168199836
 20
0.007313537
 30
0.0
 11
0.0031800164
 21
-0.007313537
 31
0.0
  0
LINE
  5
FB
330
1F
100
AcDbEntity
  8
0
  6
Continuous
 62
     7
100
AcDbLine
 10
0.0169465837
 20
0.007193398
 30
0.0
 11
0.0030534163
 21
-0.007193398
 31
0.0
  0
LINE
  5
FC
330
1F
100
AcDbEntity
  8
0
  6
Continuous
 62
     7
100
AcDbLine
 10
0.0170710678
 20
0.0070710678
 30
0.0
 11
0.0029289322
 21
-0.0070710678
 31
0.0
  0
LINE
  5
FD
330
1F
100
AcDbEntity
  8
0
  6
Continuous
 62
     7
100
AcDbLine
 10
0.017193398
 20
0.0069465837
 30
0.0
 11
0.002806602
 21
-0.0069465837
 31
0.0
  0
LINE
  5
FE
330
1F
100
AcDbEntity
  8
0
  6
Continuous
 62
     7
100
AcDbLine
 10
0.017313537
 20
0.0068199836
 30
0.0
 11
0.002686463
 21
-0.0068199836
 31
0.0
  0
LINE
  5
FF
330
1F
100
AcDbEntity
  8
0
  6
Continuous
 62
     7
100
AcDbLine
 10
0.0174314483
 20
0.0066913061
 30
0.0
 11
0.0025685517
 21
-0.0066913061
 31
0.0
  0
LINE
  5
100
330
1F
100
AcDbEntity
  8
0
  6
Continuous
 62
     7
100
AcDbLine
 10
0.0175470958
 20
0.0065605903
 30
0.0
 11
0.0024529042
 21
-0.0065605903
 31
0.0
  0
LINE
  5
101
330
1F
100
AcDbEntity
  8
0
  6
Continuous
 62
     7
100
AcDbLine
 10
0.0176604444
 20
0.0064278761
 30
0.0
 11
0.0023395556
 21
-0.0064278761
 31
0.0
  0
LINE
  5
102
330
1F
100
AcDbEntity
  8
0
  6
Continuous
 62
     7
100
AcDbLine
 10
0.0177714596
 20
0.0062932039
 30
0.0
 11
0.0022285404
 21
-0.0062932039
 31
0.0
  0
LINE
  5
103
330
1F
100
AcDbEntity
  8
0
  6
Continuous
 62
     7
100
AcDbLine
 10
0.0178801075
 20
0.0061566148
 30
0.0
 11
0.0021198925
 21
-0.0061566148
 31
0.0
  0
LINE
  5
104
330
1F
100
AcDbEntity
  8
0
  6
Continuous
 62
     7
100
AcDbLine
 10
0.0179863551
 20
0.0060181502
 30
0.0
 11
0.0020136449
 21
-0.0060181502
 31
0.0
  0
LINE
  5
105
330
1F
100
AcDbEntity
  8
0
  6
Continuous
 62
     7
100
AcDbLine
 10
0.0180901699
 20
0.0058778525
 30
0.0
 11
0.0019098301
 21
-0.0058778525
 31
0.0
  0
LINE
  5
106
330
1F
100
AcDbEntity
  8
0
  6
Continuous
 62
     7
100
AcDbLine
 10
0.0181915204
 20
0.0057357644
 30
0.0
 11
0.0018084796
 21
-0.0057357644
 31
0.0
  0
LINE
  5
107
330
1F
100
AcDbEntity
  8
0
  6
Continuous
 62
     7
100
AcDbLine
 10
0.0182903757
 20
0.005591929
 30
0.0
 11
0.0017096243
 21
-0.005591929
 31
0.0
  0
LINE
  5
108
330
1F
100
AcDbEntity
  8
0
  6
Continuous
 62
     7
100
AcDbLine
 10
0.0183867057
 20
0.0054463904
 30
0.0
 11
0.0016132943
 21
-0.0054463904
 31
0.0
  0
LINE
  5
109
330
1F
100
AcDbEntity
  8
0
  6
Continuous
 62
     7
100
AcDbLine
 10
0.018480481
 20
0.0052991926
 30
0.0
 11
0.001519519
 21
-0.0052991926
 31
0.0
  0
LINE
  5
10A
330
1F
100
AcDbEntity
  8
0
  6
Continuous
 62
     7
100
AcDbLine
 10
0.018571673
 20
0.0051503807
 30
0.0
 11
0.001428327
 21
-0.0051503807
 31
0.0
  0
LINE
  5
10B
330
1F
100
AcDbEntity
  8
0
  6
Continuous
 62
     7
100
AcDbLine
 10
0.018660254
 20
0.005
 30
0.0
 11
0.001339746
 21
-0.005
 31
0.0
  0
LINE
  5
10C
330
1F
100
AcDbEntity
  8
0
  6
Continuous
 62
     7
100
AcDbLine
 10
0.0187461971
 20
0.0048480962
 30
0.0
 11
0.0012538029
 21
-0.0048480962
 31
0.0
  0
LINE
  5
10D
330
1F
100
AcDbEntity
  8
0
  6
Continuous
 62
     7
100
AcDbLine
 10
0.0188294759
 20
0.0046947156
 30
0.0
 11
0.0011705241
 21
-0.0046947156
 31
0.0
  0
LINE
  5
10E
330
1F
100
AcDbEntity
  8
0
  6
Continuous
 62
     7
100
AcDbLine
 10
0.0189100652
 20
0.004539905
 30
0.0
 11
0.0010899348
 21
-0.004539905
 31
0.0
  0
LINE
  5
10F
330
1F
100
AcDbEntity
  8
0
  6
Continuous
 62
     7
100
AcDbLine
 10
0.0189879405
 20
0.0043837115
 30
0.0
 11
0.0010120595
 21
-0.0043837115
 31
0.0
  0
LINE
  5
110
330
1F
100
AcDbEntity
  8
0
  6
Continuous
 62
     7
100
AcDbLine
 10
0.0190630779
 20
0.0042261826
 30
0.0
 11
0.0009369221
 21
-0.0042261826
 31
0.0
  0
LINE
  5
111
330
1F
100
AcDbEntity
  8
0
  6
Continuous
 62
     7
100
AcDbLine
 10
0.0191354546
 20
0.0040673664
 30
0.0
 11
0.0008645454
 21
-0.0040673664
 31
0.0
  0
LINE
  5
112
330
1F
100
AcDbEntity
  8
0
  6
Continuous
 62
     7
100
AcDbLine
 10
0.0192050485
 20
0.0039073113
 30
0.0
 11
0.0007949515
 21
-0.0039073113
 31
0.0
  0
LINE
  5
113
330
1F
100
AcDbEntity
  8
0
  6
Continuous
 62
     7
100
AcDbLine
 10
0.0192718385
 20
0.0037460659
 30
0.0
 11
0.0007281615
 21
-0.0037460659
 31
0.0
  0
LINE
  5
114
330
1F
100
AcDbEntity
  8
0
  6
Continuous
 62
     7
100
AcDbLine
 10
0.0193358043
 20
0.0035836795
 30
0.0
 11
0.0006641957
 21
-0.0035836795
 31
0.0
  0
LINE
  5
115
330
1F
100
AcDbEntity
  8
0
  6
Continuous
 62
     7
100
AcDbLine
 10
0.0193969262
 20
0.0034202014
 30
0.0
 11
0.0006030738
 21
-0.0034202014
 31
0.0
  0
LINE
  5
116
330
1F
100
AcDbEntity
  8
0
  6
Continuous
 62
     7
100
AcDbLine
 10
0.0194551858
 20
0.0032556815
 30
0.0
 11
0.0005448142
 21
-0.0032556815
 31
0.0
  0
LINE
  5
117
330
1F
100
AcDbEntity
  8
0
  6
Continuous
 62
     7
100
AcDbLine
 10
0.0195105652
 20
0.0030901699
 30
0.0
 11
0.0004894348
 21
-0.0030901699
 31
0.0
  0
LINE
  5
118
330
1F
100
AcDbEntity
  8
0
  6
Continuous
 62
     7
100
AcDbLine
 10
0.0195630476
 20
0.002923717
 30
0.0
 11
0.0004369524
 21
-0.002923717
 31
0.0
  0
LINE
  5
119
330
1F
100
AcDbEntity
  8
0
  6
Continuous
 62
     7
100
AcDbLine
 10
0.019612617
 20
0.0027563736
 30
0.0
 11
0.000387383
 21
-0.0027563736
 31
0.0
  0
LINE
  5
11A
330
1F
100
AcDbEntity
  8
0
  6
Continuous
 62
     7
100
AcDbLine
 10
0.0196592583
 20
0.0025881905
 30
0.0
 11
0.0003407417
 21
-0.0025881905
 31
0.0
  0
LINE
  5
11B
330
1F
100
AcDbEntity
  8
0
  6
Continuous
 62
     7
100
AcDbLine
 10
0.0197029573
 20
0.002419219
 30
0.0
 11
0.0002970427
 21
-0.002419219
 31
0.0
  0
LINE
  5
11C
330
1F
100
AcDbEntity
  8
0
  6
Continuous
 62
     7
100
AcDbLine
 10
0.0197437006
 20
0.0022495105
 30
0.0
 11
0.0002562994
 21
-0.0022495105
 31
0.0
  0
LINE
  5
11D
330
1F
100
AcDbEntity
  8
0
  6
Continuous
 62
     7
100
AcDbLine
 10
0.019781476
 20
0.0020791169
 30
0.0
 11
0.000218524
 21
-0.0020791169
 31
0.0
  0
LINE
  5
11E
330
1F
100
AcDbEntity
  8
0
  6
Continuous
 62
     7
100
AcDbLine
 10
0.0198162718
 20
0.00190809
 30
0.0
 11
0.0001837282
 21
-0.00190809
 31
0.0
  0
LINE
  5
11F
330
1F
100
AcDbEntity
  8
0
  6
Continuous
 62
     7
100
AcDbLine
 10
0.0198480775
 20
0.0017364818
 30
0.0
 11
0.0001519225
 21
-0.0017364818
 31
0.0
  0
LINE
  5
120
330
1F
100
AcDbEntity
  8
0
  6
Continuous
 62
     7
100
AcDbLine
 10
0.0198768834
 20
0.0015643447
 30
0.0
 11
0.0001231166
 21
-0.0015643447
 31
0.0
  0
LINE
  5
121
330
1F
100
AcDbEntity
  8
0
  6
Continuous
 62
     7
100
AcDbLine
 10
0.0199026807
 20
0.001391731
 30
0.0
 11
0.0000973193
 21
-0.001391731
 31
0.0
  0
LINE
  5
122
330
1F
100
AcDbEntity
  8
0
  6
Continuous
 62
     7
100
AcDbLine
 10
0.0199254615
 20
0.0012186934
 30
0.0
 11
0.0000745385
 21
-0.0012186934
 31
0.0
  0
LINE
  5
123
330
1F
100
AcDbEntity
  8
0
  6
Continuous
 62
     7
100
AcDbLine
 10
0.019945219
 20
0.0010452846
 30
0.0
 11
0.000054781
 21
-0.0010452846
 31
0.0
  0
LINE
  5
124
330
1F
100
AcDbEntity
  8
0
  6
Continuous
 62
     7
100
AcDbLine
 10
0.019961947
 20
0.0008715574
 30
0.0
 11
0.000038053
 21
-0.0008715574
 31
0.0
  0
LINE
  5
125
330
1F
100
AcDbEntity
  8
0
  6
Continuous
 62
     7
100
AcDbLine
 10
0.0199756405
 20
0.0006975647
 30
0.0
 11
0.0000243595
 21
-0.0006975647
 31
0.0
  0
LINE
  5
126
330
1F
100
AcDbEntity
  8
0
  6
Continuous
 62
     7
100
AcDbLine
 10
0.0199862953
 20
0.0005233596
 30
0.0
 11
0.0000137047
 21
-0.0005233596
 31
0.0
  0
LINE
  5
127
330
1F
100
AcDbEntity
  8
0
  6
Continuous
 62
     7
100
AcDbLine
 10
0.0199939083
 20
0.000348995
 30
0.0
 11
0.0000060917
 21
-0.000348995
 31
0.0
  0
LINE
  5
128
330
1F
100
AcDbEntity
  8
0
  6
Continuous
 62
     7
100
AcDbLine
 10
0.019998477
 20
0.0001745241
 30
0.0
 11
0.000001523
 21
-0.0001745241
 31
0.0
  0
LINE
  5
129
330
1F
100
AcDbEntity
  8
0
  6
Continuous
 62
     7
100
AcDbLine
 10
0.02
 20
0.0
 30
0.0
 11
0.0
 21
0.0
 31
0.0
  0
LINE
  5
12A
330
1F
100
AcDbEntity
  8
0
  6
Continuous
 62
     7
100
AcDbLine
 10
0.019998477
 20
-0.0001745241
 30
0.0
 11
0.000001523
 21
0.0001745241
 31
0.0
  0
LINE
  5
12B
330
1F
100
AcDbEntity
  8
0
  6
Continuous
 62
     7
100
AcDbLine
 10
0.0199939083
 20
-0.000348995
 30
0.0
 11
0.0000060917
 21
0.000348995
 31
0.0
  0
LINE
  5
12C
330
1F
100
AcDbEntity
  8
0
  6
Continuous
 62
     7
100
AcDbLine
 10
0.0199862953
 20
-0.0005233596
 30
0.0
 11
0.0000137047
 21
0.0005233596
 31
0.0
  0
LINE
  5
12D
330
1F
100
AcDbEntity
  8
0
  6
Continuous
 62
     7
100
AcDbLine
 10
0.0199756405
 20
-0.0006975647
 30
0.0
 11
0.0000243595
 21
0.0006975647
 31
0.0
  0
LINE
  5
12E
330
1F
100
AcDbEntity
  8
0
  6
Continuous
 62
     7
100
AcDbLine
 10
0.019961947
 20
-0.0008715574
 30
0.0
 11
0.000038053
 21
0.0008715574
 31
0.0
  0
LINE
  5
12F
330
1F
100
AcDbEntity
  8
0
  6
Continuous
 62
     7
100
AcDbLine
 10
0.019945219
 20
-0.0010452846
 30
0.0
 11
0.000054781
 21
0.0010452846
 31
0.0
  0
LINE
  5
130
330
1F
100
AcDbEntity
  8
0
  6
Continuous
 62
     7
100
AcDbLine
 10
0.0199254615
 20
-0.0012186934
 30
0.0
 11
0.0000745385
 21
0.0012186934
 31
0.0
  0
LINE
  5
131
330
1F
100
AcDbEntity
  8
0
  6
Continuous
 62
     7
100
AcDbLine
 10
0.0199026807
 20
-0.001391731
 30
0.0
 11
0.0000973193
 21
0.001391731
 31
0.0
  0
LINE
  5
132
330
1F
100
AcDbEntity
  8
0
  6
Continuous
 62
     7
100
AcDbLine
 10
0.0198768834
 20
-0.0015643447
 30
0.0
 11
0.0001231166
 21
0.0015643447
 31
0.0
  0
LINE
  5
133
330
1F
100
AcDbEntity
  8
0
  6
Continuous
 62
     7
100
AcDbLine
 10
0.0198480775
 20
-0.0017364818
 30
0.0
 11
0.0001519225
 21
0.0017364818
 31
0.0
  0
LINE
  5
134
330
1F
100
AcDbEntity
  8
0
  6
Continuous
 62
     7
100
AcDbLine
 10
0.0198162718
 20
-0.00190809
 30
0.0
 11
0.0001837282
 21
0.00190809
 31
0.0
  0
LINE
  5
135
330
1F
100
AcDbEntity
  8
0
  6
Continuous
 62
     7
100
AcDbLine
 10
0.019781476
 20
-0.0020791169
 30
0.0
 11
0.000218524
 21
0.0020791169
 31
0.0
  0
LINE
  5
136
330
1F
100
AcDbEntity
  8
0
  6
Continuous
 62
     7
100
AcDbLine
 10
0.0197437006
 20
-0.0022495105
 30
0.0
 11
0.0002562994
 21
0.0022495105
 31
0.0
  0
LINE
  5
137
330
1F
100
AcDbEntity
  8
0
  6
Continuous
 62
     7
100
AcDbLine
 10
0.0197029573
 20
-0.002419219
 30
0.0
 11
0.0002970427
 21
0.002419219
 31
0.0
  0
LINE
  5
138
330
1F
100
AcDbEntity
  8
0
  6
Continuous
 62
     7
100
AcDbLine
 10
0.0196592583
 20
-0.0025881905
 30
0.0
 11
0.0003407417
 21
0.0025881905
 31
0.0
  0
LINE
  5
139
330
1F
100
AcDbEntity
  8
0
  6
Continuous
 62
     7
100
AcDbLine
 10
0.019612617
 20
-0.0027563736
 30
0.0
 11
0.000387383
 21
0.0027563736
 31
0.0
  0
LINE
  5
13A
330
1F
100
AcDbEntity
  8
0
  6
Continuous
 62
     7
100
AcDbLine
 10
0.0195630476
 20
-0.002923717
 30
0.0
 11
0.0004369524
 21
0.002923717
 31
0.0
  0
LINE
  5
13B
330
1F
100
AcDbEntity
  8
0
  6
Continuous
 62
     7
100
AcDbLine
 10
0.0195105652
 20
-0.0030901699
 30
0.0
 11
0.0004894348
 21
0.0030901699
 31
0.0
  0
LINE
  5
13C
330
1F
100
AcDbEntity
  8
0
  6
Continuous
 62
     7
100
AcDbLine
 10
0.0194551858
 20
-0.0032556815
 30
0.0
 11
0.0005448142
 21
0.0032556815
 31
0.0
  0
LINE
  5
13D
330
1F
100
AcDbEntity
  8
0
  6
Continuous
 62
     7
100
AcDbLine
 10
0.0193969262
 20
-0.0034202014
 30
0.0
 11
0.0006030738
 21
0.0034202014
 31
0.0
  0
LINE
  5
13E
330
1F
100
AcDbEntity
  8
0
  6
Continuous
 62
     7
100
AcDbLine
 10
0.0193358043
 20
-0.0035836795
 30
0.0
 11
0.0006641957
 21
0.0035836795
 31
0.0
  0
LINE
  5
13F
330
1F
100
AcDbEntity
  8
0
  6
Continuous
 62
     7
100
AcDbLine
 10
0.0192718385
 20
-0.0037460659
 30
0.0
 11
0.0007281615
 21
0.0037460659
 31
0.0
  0
LINE
  5
140
330
1F
100
AcDbEntity
  8
0
  6
Continuous
 62
     7
100
AcDbLine
 10
0.01
 20
0.0
 30
0.0
 11
0.0007949515
 21
0.0039073113
 31
0.0
  0
LINE
  5
141
330
1F
100
AcDbEntity
  8
0
  6
Continuous
 62
     7
100
AcDbLine
 10
0.0191354546
 20
-0.0040673664
 30
0.0
 11
0.0008645454
 21
0.0040673664
 31
0.0
  0
LINE
  5
142
330
1F
100
AcDbEntity
  8
0
  6
Continuous
 62
     7
100
AcDbLine
 10
0.0190630779
 20
-0.0042261826
 30
0.0
 11
0.0009369221
 21
0.0042261826
 31
0.0
  0
LINE
  5
143
330
1F
100
AcDbEntity
  8
0
  6
Continuous
 62
     7
100
AcDbLine
 10
-76.3989383866
 20
37.2671293088
 30
0.0
 11
-112.3302678469
 21
54.7920096372
 31
0.0
  0
LINE
  5
144
330
1F
100
AcDbEntity
  8
0
  6
Continuous
 62
     7
100
AcDbLine
 10
0.0189100652
 20
-0.004539905
 30
0.0
 11
0.0010899348
 21
0.004539905
 31
0.0
  0
LINE
  5
145
330
1F
100
AcDbEntity
  8
0
  6
Continuous
 62
     7
100
AcDbLine
 10
0.0188294759
 20
-0.0046947156
 30
0.0
 11
0.0011705241
 21
0.0046947156
 31
0.0
  0
LINE
  5
146
330
1F
100
AcDbEntity
  8
0
  6
Continuous
 62
     7
100
AcDbLine
 10
0.0187461971
 20
-0.0048480962
 30
0.0
 11
0.0012538029
 21
0.0048480962
 31
0.0
  0
LINE
  5
147
330
1F
100
AcDbEntity
  8
0
  6
Continuous
 62
     7
100
AcDbLine
 10
0.018660254
 20
-0.005
 30
0.0
 11
0.001339746
 21
0.005
 31
0.0
  0
LINE
  5
148
330
1F
100
AcDbEntity
  8
0
  6
Continuous
 62
     7
100
AcDbLine
 10
0.018571673
 20
-0.0051503807
 30
0.0
 11
0.001428327
 21
0.0051503807
 31
0.0
  0
LINE
  5
149
330
1F
100
AcDbEntity
  8
0
  6
Continuous
 62
     7
100
AcDbLine
 10
0.018480481
 20
-0.0052991926
 30
0.0
 11
0.01
 21
0.0
 31
0.0
  0
LINE
  5
14A
330
1F
100
AcDbEntity
  8
0
  6
Continuous
 62
     7
100
AcDbLine
 10
0.0183867057
 20
-0.0054463904
 30
0.0
 11
0.0016132943
 21
0.0054463904
 31
0.0
  0
LINE
  5
14B
330
1F
100
AcDbEntity
  8
0
  6
Continuous
 62
     7
100
AcDbLine
 10
0.0182903757
 20
-0.005591929
 30
0.0
 11
0.0017096243
 21
0.005591929
 31
0.0
  0
LINE
  5
14C
330
1F
100
AcDbEntity
  8
0
  6
Continuous
 62
     7
100
AcDbLine
 10
0.0181915204
 20
-0.0057357644
 30
0.0
 11
0.0018084796
 21
0.0057357644
 31
0.0
  0
LINE
  5
14D
330
1F
100
AcDbEntity
  8
0
  6
Continuous
 62
     7
100
AcDbLine
 10
0.0180901699
 20
-0.0058778525
 30
0.0
 11
0.0019098301
 21
0.0058778525
 31
0.0
  0
LINE
  5
14E
330
1F
100
AcDbEntity
  8
0
  6
Continuous
 62
     7
100
AcDbLine
 10
0.0179863551
 20
-0.0060181502
 30
0.0
 11
0.0020136449
 21
0.0060181502
 31
0.0
  0
LINE
  5
14F
330
1F
100
AcDbEntity
  8
0
  6
Continuous
 62
     7
100
AcDbLine
 10
0.0178801075
 20
-0.0061566148
 30
0.0
 11
0.0021198925
 21
0.0061566148
 31
0.0
  0
LINE
  5
150
330
1F
100
AcDbEntity
  8
0
  6
Continuous
 62
     7
100
AcDbLine
 10
0.0177714596
 20
-0.0062932039
 30
0.0
 11
0.0022285404
 21
0.0062932039
 31
0.0
  0
LINE
  5
151
330
1F
100
AcDbEntity
  8
0
  6
Continuous
 62
     7
100
AcDbLine
 10
0.0176604444
 20
-0.0064278761
 30
0.0
 11
0.0023395556
 21
0.0064278761
 31
0.0
  0
LINE
  5
152
330
1F
100
AcDbEntity
  8
0
  6
Continuous
 62
     7
100
AcDbLine
 10
0.0175470958
 20
-0.0065605903
 30
0.0
 11
0.0024529042
 21
0.0065605903
 31
0.0
  0
LINE
  5
153
330
1F
100
AcDbEntity
  8
0
  6
Continuous
 62
     7
100
AcDbLine
 10
0.0174314483
 20
-0.0066913061
 30
0.0
 11
0.0025685517
 21
0.0066913061
 31
0.0
  0
LINE
  5
154
330
1F
100
AcDbEntity
  8
0
  6
Continuous
 62
     7
100
AcDbLine
 10
0.017313537
 20
-0.0068199836
 30
0.0
 11
0.002686463
 21
0.0068199836
 31
0.0
  0
LINE
  5
155
330
1F
100
AcDbEntity
  8
0
  6
Continuous
 62
     7
100
AcDbLine
 10
0.017193398
 20
-0.0069465837
 30
0.0
 11
0.002806602
 21
0.0069465837
 31
0.0
  0
LINE
  5
156
330
1F
100
AcDbEntity
  8
0
  6
Continuous
 62
     7
100
AcDbLine
 10
0.01
 20
0.0
 30
0.0
 11
0.0029289322
 21
0.0070710678
 31
0.0
  0
LINE
  5
157
330
1F
100
AcDbEntity
  8
0
  6
Continuous
 62
     7
100
AcDbLine
 10
0.0169465837
 20
-0.007193398
 30
0.0
 11
0.0030534163
 21
0.007193398
 31
0.0
  0
LINE
  5
158
330
1F
100
AcDbEntity
  8
0
  6
Continuous
 62
     7
100
AcDbLine
 10
0.0168199836
 20
-0.007313537
 30
0.0
 11
0.0031800164
 21
0.007313537
 31
0.0
  0
LINE
  5
159
330
1F
100
AcDbEntity
  8
0
  6
Continuous
 62
     7
100
AcDbLine
 10
0.0166913061
 20
-0.0074314483
 30
0.0
 11
0.0033086939
 21
0.0074314483
 31
0.0
  0
LINE
  5
15A
330
1F
100
AcDbEntity
  8
0
  6
Continuous
 62
     7
100
AcDbLine
 10
0.0165605903
 20
-0.0075470958
 30
0.0
 11
0.0034394097
 21
0.0075470958
 31
0.0
  0
LINE
  5
15B
330
1F
100
AcDbEntity
  8
0
  6
Continuous
 62
     7
100
AcDbLine
 10
0.0164278761
 20
-0.0076604444
 30
0.0
 11
0.0035721239
 21
0.0076604444
 31
0.0
  0
LINE
  5
15C
330
1F
100
AcDbEntity
  8
0
  6
Continuous
 62
     7
100
AcDbLine
 10
0.0162932039
 20
-0.0077714596
 30
0.0
 11
0.0037067961
 21
0.0077714596
 31
0.0
  0
LINE
  5
15D
330
1F
100
AcDbEntity
  8
0
  6
Continuous
 62
     7
100
AcDbLine
 10
0.0161566148
 20
-0.0078801075
 30
0.0
 11
0.0038433852
 21
0.0078801075
 31
0.0
  0
LINE
  5
15E
330
1F
100
AcDbEntity
  8
0
  6
Continuous
 62
     7
100
AcDbLine
 10
0.0160181502
 20
-0.0079863551
 30
0.0
 11
0.0039818498
 21
0.0079863551
 31
0.0
  0
LINE
  5
15F
330
1F
100
AcDbEntity
  8
0
  6
Continuous
 62
     7
100
AcDbLine
 10
0.0158778525
 20
-0.0080901699
 30
0.0
 11
0.0041221475
 21
0.0080901699
 31
0.0
  0
LINE
  5
160
330
1F
100
AcDbEntity
  8
0
  6
Continuous
 62
     7
100
AcDbLine
 10
0.01
 20
0.0
 30
0.0
 11
0.0042642356
 21
0.0081915204
 31
0.0
  0
LINE
  5
161
330
1F
100
AcDbEntity
  8
0
  6
Continuous
 62
     7
100
AcDbLine
 10
0.015591929
 20
-0.0082903757
 30
0.0
 11
0.004408071
 21
0.0082903757
 31
0.0
  0
LINE
  5
162
330
1F
100
AcDbEntity
  8
0
  6
Continuous
 62
     7
100
AcDbLine
 10
0.0154463904
 20
-0.0083867057
 30
0.0
 11
0.0045536096
 21
0.0083867057
 31
0.0
  0
LINE
  5
163
330
1F
100
AcDbEntity
  8
0
  6
Continuous
 62
     7
100
AcDbLine
 10
0.0152991926
 20
-0.008480481
 30
0.0
 11
0.0047008074
 21
0.008480481
 31
0.0
  0
LINE
  5
164
330
1F
100
AcDbEntity
  8
0
  6
Continuous
 62
     7
100
AcDbLine
 10
0.0151503807
 20
-0.008571673
 30
0.0
 11
0.0048496193
 21
0.008571673
 31
0.0
  0
LINE
  5
165
330
1F
100
AcDbEntity
  8
0
  6
Continuous
 62
     7
100
AcDbLine
 10
0.015
 20
-0.008660254
 30
0.0
 11
0.005
 21
0.008660254
 31
0.0
  0
LINE
  5
166
330
1F
100
AcDbEntity
  8
0
  6
Continuous
 62
     7
100
AcDbLine
 10
0.01
 20
0.0
 30
0.0
 11
0.0051519038
 21
0.0087461971
 31
0.0
  0
LINE
  5
167
330
1F
100
AcDbEntity
  8
0
  6
Continuous
 62
     7
100
AcDbLine
 10
0.0146947156
 20
-0.0088294759
 30
0.0
 11
0.0053052844
 21
0.0088294759
 31
0.0
  0
LINE
  5
168
330
1F
100
AcDbEntity
  8
0
  6
Continuous
 62
     7
100
AcDbLine
 10
0.014539905
 20
-0.0089100652
 30
0.0
 11
0.005460095
 21
0.0089100652
 31
0.0
  0
LINE
  5
169
330
1F
100
AcDbEntity
  8
0
  6
Continuous
 62
     7
100
AcDbLine
 10
0.0143837115
 20
-0.0089879405
 30
0.0
 11
0.0056162885
 21
0.0089879405
 31
0.0
  0
LINE
  5
16A
330
1F
100
AcDbEntity
  8
0
  6
Continuous
 62
     7
100
AcDbLine
 10
0.0142261826
 20
-0.0090630779
 30
0.0
 11
0.0057738174
 21
0.0090630779
 31
0.0
  0
LINE
  5
16B
330
1F
100
AcDbEntity
  8
0
  6
Continuous
 62
     7
100
AcDbLine
 10
0.0140673664
 20
-0.0091354546
 30
0.0
 11
0.0059326336
 21
0.0091354546
 31
0.0
  0
LINE
  5
16C
330
1F
100
AcDbEntity
  8
0
  6
Continuous
 62
     7
100
AcDbLine
 10
0.0139073113
 20
-0.0092050485
 30
0.0
 11
0.0060926887
 21
0.0092050485
 31
0.0
  0
LINE
  5
16D
330
1F
100
AcDbEntity
  8
0
  6
Continuous
 62
     7
100
AcDbLine
 10
0.0137460659
 20
-0.0092718385
 30
0.0
 11
0.0062539341
 21
0.0092718385
 31
0.0
  0
LINE
  5
16E
330
1F
100
AcDbEntity
  8
0
  6
Continuous
 62
     7
100
AcDbLine
 10
0.0135836795
 20
-0.0093358043
 30
0.0
 11
0.0064163205
 21
0.0093358043
 31
0.0
  0
LINE
  5
16F
330
1F
100
AcDbEntity
  8
0
  6
Continuous
 62
     7
100
AcDbLine
 10
0.0134202014
 20
-0.0093969262
 30
0.0
 11
0.0065797986
 21
0.0093969262
 31
0.0
  0
LINE
  5
170
330
1F
100
AcDbEntity
  8
0
  6
Continuous
 62
     7
100
AcDbLine
 10
0.0132556815
 20
-0.0094551858
 30
0.0
 11
0.0067443185
 21
0.0094551858
 31
0.0
  0
LINE
  5
171
330
1F
100
AcDbEntity
  8
0
  6
Continuous
 62
     7
100
AcDbLine
 10
0.0130901699
 20
-0.0095105652
 30
0.0
 11
0.0069098301
 21
0.0095105652
 31
0.0
  0
LINE
  5
172
330
1F
100
AcDbEntity
  8
0
  6
Continuous
 62
     7
100
AcDbLine
 10
0.012923717
 20
-0.0095630476
 30
0.0
 11
0.007076283
 21
0.0095630476
 31
0.0
  0
LINE
  5
173
330
1F
100
AcDbEntity
  8
0
  6
Continuous
 62
     7
100
AcDbLine
 10
0.0127563736
 20
-0.009612617
 30
0.0
 11
0.0072436264
 21
0.009612617
 31
0.0
  0
LINE
  5
174
330
1F
100
AcDbEntity
  8
0
  6
Continuous
 62
     7
100
AcDbLine
 10
0.0125881905
 20
-0.0096592583
 30
0.0
 11
0.0074118095
 21
0.0096592583
 31
0.0
  0
LINE
  5
175
330
1F
100
AcDbEntity
  8
0
  6
Continuous
 62
     7
100
AcDbLine
 10
0.012419219
 20
-0.0097029573
 30
0.0
 11
0.007580781
 21
0.0097029573
 31
0.0
  0
LINE
  5
176
330
1F
100
AcDbEntity
  8
0
  6
Continuous
 62
     7
100
AcDbLine
 10
0.0122495105
 20
-0.0097437006
 30
0.0
 11
0.0077504895
 21
0.0097437006
 31
0.0
  0
LINE
  5
177
330
1F
100
AcDbEntity
  8
0
  6
Continuous
 62
     7
100
AcDbLine
 10
0.0120791169
 20
-0.009781476
 30
0.0
 11
0.0079208831
 21
0.009781476
 31
0.0
  0
LINE
  5
178
330
1F
100
AcDbEntity
  8
0
  6
Continuous
 62
     7
100
AcDbLine
 10
0.01190809
 20
-0.0098162718
 30
0.0
 11
0.00809191
 21
0.0098162718
 31
0.0
  0
LINE
  5
179
330
1F
100
AcDbEntity
  8
0
  6
Continuous
 62
     7
100
AcDbLine
 10
0.0117364818
 20
-0.0098480775
 30
0.0
 11
0.0082635182
 21
0.0098480775
 31
0.0
  0
LINE
  5
17A
330
1F
100
AcDbEntity
  8
0
  6
Continuous
 62
     7
100
AcDbLine
 10
0.01
 20
0.0
 30
0.0
 11
0.0084356553
 21
0.0098768834
 31
0.0
  0
LINE
  5
17B
330
1F
100
AcDbEntity
  8
0
  6
Continuous
 62
     7
100
AcDbLine
 10
0.011391731
 20
-0.0099026807
 30
0.0
 11
0.008608269
 21
0.0099026807
 31
0.0
  0
LINE
  5
17C
330
1F
100
AcDbEntity
  8
0
  6
Continuous
 62
     7
100
AcDbLine
 10
0.0112186934
 20
-0.0099254615
 30
0.0
 11
0.0087813066
 21
0.0099254615
 31
0.0
  0
LINE
  5
17D
330
1F
100
AcDbEntity
  8
0
  6
Continuous
 62
     7
100
AcDbLine
 10
0.0110452846
 20
-0.009945219
 30
0.0
 11
0.0089547154
 21
0.009945219
 31
0.0
  0
LINE
  5
17E
330
1F
100
AcDbEntity
  8
0
  6
Continuous
 62
     7
100
AcDbLine
 10
0.0108715574
 20
-0.009961947
 30
0.0
 11
0.0091284426
 21
0.009961947
 31
0.0
  0
LINE
  5
17F
330
1F
100
AcDbEntity
  8
0
  6
Continuous
 62
     7
100
AcDbLine
 10
0.0106975647
 20
-0.0099756405
 30
0.0
 11
0.0093024353
 21
0.0099756405
 31
0.0
  0
LINE
  5
180
330
1F
100
AcDbEntity
  8
0
  6
Continuous
 62
     7
100
AcDbLine
 10
0.0105233596
 20
-0.0099862953
 30
0.0
 11
0.0094766404
 21
0.0099862953
 31
0.0
  0
LINE
  5
181
330
1F
100
AcDbEntity
  8
0
  6
Continuous
 62
     7
100
AcDbLine
 10
0.010348995
 20
-0.0099939083
 30
0.0
 11
0.009651005
 21
0.0099939083
 31
0.0
  0
LINE
  5
182
330
1F
100
AcDbEntity
  8
0
  6
Continuous
 62
     7
100
AcDbLine
 10
0.0101745241
 20
-0.009998477
 30
0.0
 11
0.0098254759
 21
0.009998477
 31
0.0
  0
LINE
  5
183
330
1F
100
AcDbEntity
  8
0
  6
Continuous
 62
     7
100
AcDbLine
 10
0.01
 20
-0.01
 30
0.0
 11
0.01
 21
0.01
 31
0.0
  0
LINE
  5
184
330
1F
100
AcDbEntity
  8
0
  6
Continuous
 62
     7
100
AcDbLine
 10
0.0098254759
 20
-0.009998477
 30
0.0
 11
0.0101745241
 21
0.009998477
 31
0.0
  0
LINE
  5
185
330
1F
100
AcDbEntity
  8
0
  6
Continuous
 62
     7
100
AcDbLine
 10
0.009651005
 20
-0.0099939083
 30
0.0
 11
0.010348995
 21
0.0099939083
 31
0.0
  0
LINE
  5
186
330
1F
100
AcDbEntity
  8
0
  6
Continuous
 62
     7
100
AcDbLine
 10
0.0094766404
 20
-0.0099862953
 30
0.0
 11
0.0105233596
 21
0.0099862953
 31
0.0
  0
LINE
  5
187
330
1F
100
AcDbEntity
  8
0
  6
Continuous
 62
     7
100
AcDbLine
 10
0.0093024353
 20
-0.0099756405
 30
0.0
 11
0.0106975647
 21
0.0099756405
 31
0.0
  0
LINE
  5
188
330
1F
100
AcDbEntity
  8
0
  6
Continuous
 62
     7
100
AcDbLine
 10
0.0091284426
 20
-0.009961947
 30
0.0
 11
0.0108715574
 21
0.009961947
 31
0.0
  0
LINE
  5
189
330
1F
100
AcDbEntity
  8
0
  6
Continuous
 62
     7
100
AcDbLine
 10
0.0089547154
 20
-0.009945219
 30
0.0
 11
0.0110452846
 21
0.009945219
 31
0.0
  0
LINE
  5
18A
330
1F
100
AcDbEntity
  8
0
  6
Continuous
 62
     7
100
AcDbLine
 10
0.0087813066
 20
-0.0099254615
 30
0.0
 11
0.0112186934
 21
0.0099254615
 31
0.0
  0
LINE
  5
18B
330
1F
100
AcDbEntity
  8
0
  6
Continuous
 62
     7
100
AcDbLine
 10
0.008608269
 20
-0.0099026807
 30
0.0
 11
0.011391731
 21
0.0099026807
 31
0.0
  0
LINE
  5
18C
330
1F
100
AcDbEntity
  8
0
  6
Continuous
 62
     7
100
AcDbLine
 10
0.0084356553
 20
-0.0098768834
 30
0.0
 11
0.0115643447
 21
0.0098768834
 31
0.0
  0
LINE
  5
18D
330
1F
100
AcDbEntity
  8
0
  6
Continuous
 62
     7
100
AcDbLine
 10
0.0082635182
 20
-0.0098480775
 30
0.0
 11
0.0117364818
 21
0.0098480775
 31
0.0
  0
LINE
  5
18E
330
1F
100
AcDbEntity
  8
0
  6
Continuous
 62
     7
100
AcDbLine
 10
0.00809191
 20
-0.0098162718
 30
0.0
 11
0.01190809
 21
0.0098162718
 31
0.0
  0
LINE
  5
18F
330
1F
100
AcDbEntity
  8
0
  6
Continuous
 62
     7
100
AcDbLine
 10
0.0079208831
 20
-0.009781476
 30
0.0
 11
0.0120791169
 21
0.009781476
 31
0.0
  0
LINE
  5
190
330
1F
100
AcDbEntity
  8
0
  6
Continuous
 62
     7
100
AcDbLine
 10
0.0077504895
 20
-0.0097437006
 30
0.0
 11
0.0122495105
 21
0.0097437006
 31
0.0
  0
LINE
  5
191
330
1F
100
AcDbEntity
  8
0
  6
Continuous
 62
     7
100
AcDbLine
 10
0.007580781
 20
-0.0097029573
 30
0.0
 11
0.012419219
 21
0.0097029573
 31
0.0
  0
LINE
  5
192
330
1F
100
AcDbEntity
  8
0
  6
Continuous
 62
     7
100
AcDbLine
 10
0.0074118095
 20
-0.0096592583
 30
0.0
 11
0.0125881905
 21
0.0096592583
 31
0.0
  0
LINE
  5
193
330
1F
100
AcDbEntity
  8
0
  6
Continuous
 62
     7
100
AcDbLine
 10
0.0072436264
 20
-0.009612617
 30
0.0
 11
0.0127563736
 21
0.009612617
 31
0.0
  0
LINE
  5
194
330
1F
100
AcDbEntity
  8
0
  6
Continuous
 62
     7
100
AcDbLine
 10
0.007076283
 20
-0.0095630476
 30
0.0
 11
0.012923717
 21
0.0095630476
 31
0.0
  0
LINE
  5
195
330
1F
100
AcDbEntity
  8
0
  6
Continuous
 62
     7
100
AcDbLine
 10
0.0069098301
 20
-0.0095105652
 30
0.0
 11
0.0130901699
 21
0.0095105652
 31
0.0
  0
LINE
  5
196
330
1F
100
AcDbEntity
  8
0
  6
Continuous
 62
     7
100
AcDbLine
 10
0.0067443185
 20
-0.0094551858
 30
0.0
 11
0.0132556815
 21
0.0094551858
 31
0.0
  0
LINE
  5
197
330
1F
100
AcDbEntity
  8
0
  6
Continuous
 62
     7
100
AcDbLine
 10
0.0065797986
 20
-0.0093969262
 30
0.0
 11
0.0134202014
 21
0.0093969262
 31
0.0
  0
LINE
  5
198
330
1F
100
AcDbEntity
  8
0
  6
Continuous
 62
     7
100
AcDbLine
 10
0.0064163205
 20
-0.0093358043
 30
0.0
 11
0.0135836795
 21
0.0093358043
 31
0.0
  0
LINE
  5
199
330
1F
100
AcDbEntity
  8
0
  6
Continuous
 62
     7
100
AcDbLine
 10
0.0062539341
 20
-0.0092718385
 30
0.0
 11
0.0137460659
 21
0.0092718385
 31
0.0
  0
LINE
  5
19A
330
1F
100
AcDbEntity
  8
0
  6
Continuous
 62
     7
100
AcDbLine
 10
0.0060926887
 20
-0.0092050485
 30
0.0
 11
0.0139073113
 21
0.0092050485
 31
0.0
  0
LINE
  5
19B
330
1F
100
AcDbEntity
  8
0
  6
Continuous
 62
     7
100
AcDbLine
 10
0.0059326336
 20
-0.0091354546
 30
0.0
 11
0.0140673664
 21
0.0091354546
 31
0.0
  0
LINE
  5
19C
330
1F
100
AcDbEntity
  8
0
  6
Continuous
 62
     7
100
AcDbLine
 10
0.0057738174
 20
-0.0090630779
 30
0.0
 11
0.0142261826
 21
0.0090630779
 31
0.0
  0
LINE
  5
19D
330
1F
100
AcDbEntity
  8
0
  6
Continuous
 62
     7
100
AcDbLine
 10
0.0056162885
 20
-0.0089879405
 30
0.0
 11
0.0143837115
 21
0.0089879405
 31
0.0
  0
LINE
  5
19E
330
1F
100
AcDbEntity
  8
0
  6
Continuous
 62
     7
100
AcDbLine
 10
0.005460095
 20
-0.0089100652
 30
0.0
 11
0.014539905
 21
0.0089100652
 31
0.0
  0
LINE
  5
19F
330
1F
100
AcDbEntity
  8
0
  6
Continuous
 62
     7
100
AcDbLine
 10
0.0053052844
 20
-0.0088294759
 30
0.0
 11
0.0146947156
 21
0.0088294759
 31
0.0
  0
LINE
  5
1A0
330
1F
100
AcDbEntity
  8
0
  6
Continuous
 62
     7
100
AcDbLine
 10
0.0051519038
 20
-0.0087461971
 30
0.0
 11
0.0148480962
 21
0.0087461971
 31
0.0
  0
LINE
  5
1A1
330
1F
100
AcDbEntity
  8
0
  6
Continuous
 62
     7
100
AcDbLine
 10
0.005
 20
-0.008660254
 30
0.0
 11
0.015
 21
0.008660254
 31
0.0
  0
LINE
  5
1A2
330
1F
100
AcDbEntity
  8
0
  6
Continuous
 62
     7
100
AcDbLine
 10
0.0048496193
 20
-0.008571673
 30
0.0
 11
0.0151503807
 21
0.008571673
 31
0.0
  0
LINE
  5
1A3
330
1F
100
AcDbEntity
  8
0
  6
Continuous
 62
     7
100
AcDbLine
 10
0.0047008074
 20
-0.008480481
 30
0.0
 11
0.0152991926
 21
0.008480481
 31
0.0
  0
LINE
  5
1A4
330
1F
100
AcDbEntity
  8
0
  6
Continuous
 62
     7
100
AcDbLine
 10
0.0045536096
 20
-0.0083867057
 30
0.0
 11
0.0154463904
 21
0.0083867057
 31
0.0
  0
LINE
  5
1A5
330
1F
100
AcDbEntity
  8
0
  6
Continuous
 62
     7
100
AcDbLine
 10
0.004408071
 20
-0.0082903757
 30
0.0
 11
0.015591929
 21
0.0082903757
 31
0.0
  0
LINE
  5
1A6
330
1F
100
AcDbEntity
  8
0
  6
Continuous
 62
     7
100
AcDbLine
 10
0.0042642356
 20
-0.0081915204
 30
0.0
 11
0.0157357644
 21
0.0081915204
 31
0.0
  0
LINE
  5
1A7
330
1F
100
AcDbEntity
  8
0
  6
Continuous
 62
     7
100
AcDbLine
 10
0.0041221475
 20
-0.0080901699
 30
0.0
 11
0.0158778525
 21
0.0080901699
 31
0.0
  0
LINE
  5
1A8
330
1F
100
AcDbEntity
  8
0
  6
Continuous
 62
     7
100
AcDbLine
 10
0.0039818498
 20
-0.0079863551
 30
0.0
 11
0.0160181502
 21
0.0079863551
 31
0.0
  0
LINE
  5
1A9
330
1F
100
AcDbEntity
  8
0
  6
Continuous
 62
     7
100
AcDbLine
 10
0.0038433852
 20
-0.0078801075
 30
0.0
 11
0.0161566148
 21
0.0078801075
 31
0.0
  0
LINE
  5
1AA
330
1F
100
AcDbEntity
  8
0
  6
Continuous
 62
     7
100
AcDbLine
 10
0.0037067961
 20
-0.0077714596
 30
0.0
 11
0.0162932039
 21
0.0077714596
 31
0.0
  0
LINE
  5
1AB
330
1F
100
AcDbEntity
  8
0
  6
Continuous
 62
     7
100
AcDbLine
 10
0.0035721239
 20
-0.0076604444
 30
0.0
 11
0.0164278761
 21
0.0076604444
 31
0.0
  0
LINE
  5
1AC
330
1F
100
AcDbEntity
  8
0
  6
Continuous
 62
     7
100
AcDbLine
 10
0.0034394097
 20
-0.0075470958
 30
0.0
 11
0.0165605903
 21
0.0075470958
 31
0.0
  0
LINE
  5
1AD
330
1F
100
AcDbEntity
  8
0
  6
Continuous
 62
     7
100
AcDbLine
 10
0.0033086939
 20
-0.0074314483
 30
0.0
 11
0.0166913061
 21
0.0074314483
 31
0.0
  0
LINE
  5
1AE
330
1F
100
AcDbEntity
  8
0
  6
Continuous
 62
     7
100
AcDbLine
 10
0.0031800164
 20
-0.007313537
 30
0.0
 11
0.0168199836
 21
0.007313537
 31
0.0
  0
LINE
  5
1AF
330
1F
100
AcDbEntity
  8
0
  6
Continuous
 62
     7
100
AcDbLine
 10
0.0030534163
 20
-0.007193398
 30
0.0
 11
0.0169465837
 21
0.007193398
 31
0.0
  0
LINE
  5
1B0
330
1F
100
AcDbEntity
  8
0
  6
Continuous
 62
     7
100
AcDbLine
 10
0.0029289322
 20
-0.0070710678
 30
0.0
 11
0.0170710678
 21
0.0070710678
 31
0.0
  0
LINE
  5
1B1
330
1F
100
AcDbEntity
  8
0
  6
Continuous
 62
     7
100
AcDbLine
 10
0.002806602
 20
-0.0069465837
 30
0.0
 11
0.017193398
 21
0.0069465837
 31
0.0
  0
LINE
  5
1B2
330
1F
100
AcDbEntity
  8
0
  6
Continuous
 62
     7
100
AcDbLine
 10
0.002686463
 20
-0.0068199836
 30
0.0
 11
0.017313537
 21
0.0068199836
 31
0.0
  0
LINE
  5
1B3
330
1F
100
AcDbEntity
  8
0
  6
Continuous
 62
     7
100
AcDbLine
 10
0.0025685517
 20
-0.0066913061
 30
0.0
 11
0.0174314483
 21
0.0066913061
 31
0.0
  0
LINE
  5
1B4
330
1F
100
AcDbEntity
  8
0
  6
Continuous
 62
     7
100
AcDbLine
 10
0.0024529042
 20
-0.0065605903
 30
0.0
 11
0.0175470958
 21
0.0065605903
 31
0.0
  0
LINE
  5
1B5
330
1F
100
AcDbEntity
  8
0
  6
Continuous
 62
     7
100
AcDbLine
 10
0.0023395556
 20
-0.0064278761
 30
0.0
 11
0.0176604444
 21
0.0064278761
 31
0.0
  0
LINE
  5
1B6
330
1F
100
AcDbEntity
  8
0
  6
Continuous
 62
     7
100
AcDbLine
 10
0.0022285404
 20
-0.0062932039
 30
0.0
 11
0.0177714596
 21
0.0062932039
 31
0.0
  0
LINE
  5
1B7
330
1F
100
AcDbEntity
  8
0
  6
Continuous
 62
     7
100
AcDbLine
 10
0.0021198925
 20
-0.0061566148
 30
0.0
 11
0.0178801075
 21
0.0061566148
 31
0.0
  0
LINE
  5
1B8
330
1F
100
AcDbEntity
  8
0
  6
Continuous
 62
     7
100
AcDbLine
 10
0.0020136449
 20
-0.0060181502
 30
0.0
 11
0.0179863551
 21
0.0060181502
 31
0.0
  0
LINE
  5
1B9
330
1F
100
AcDbEntity
  8
0
  6
Continuous
 62
     7
100
AcDbLine
 10
0.0019098301
 20
-0.0058778525
 30
0.0
 11
0.0180901699
 21
0.0058778525
 31
0.0
  0
LINE
  5
1BA
330
1F
100
AcDbEntity
  8
0
  6
Continuous
 62
     7
100
AcDbLine
 10
0.0018084796
 20
-0.0057357644
 30
0.0
 11
0.0181915204
 21
0.0057357644
 31
0.0
  0
LINE
  5
1BB
330
1F
100
AcDbEntity
  8
0
  6
Continuous
 62
     7
100
AcDbLine
 10
0.0017096243
 20
-0.005591929
 30
0.0
 11
0.0182903757
 21
0.005591929
 31
0.0
  0
LINE
  5
1BC
330
1F
100
AcDbEntity
  8
0
  6
Continuous
 62
     7
100
AcDbLine
 10
0.0016132943
 20
-0.0054463904
 30
0.0
 11
0.0183867057
 21
0.0054463904
 31
0.0
  0
LINE
  5
1BD
330
1F
100
AcDbEntity
  8
0
  6
Continuous
 62
     7
100
AcDbLine
 10
0.001519519
 20
-0.0052991926
 30
0.0
 11
0.018480481
 21
0.0052991926
 31
0.0
  0
LINE
  5
1BE
330
1F
100
AcDbEntity
  8
0
  6
Continuous
 62
     7
100
AcDbLine
 10
0.001428327
 20
-0.0051503807
 30
0.0
 11
0.018571673
 21
0.0051503807
 31
0.0
  0
LINE
  5
1BF
330
1F
100
AcDbEntity
  8
0
  6
Continuous
 62
     7
100
AcDbLine
 10
0.001339746
 20
-0.005
 30
0.0
 11
0.018660254
 21
0.005
 31
0.0
  0
LINE
  5
1C0
330
1F
100
AcDbEntity
  8
0
  6
Continuous
 62
     7
100
AcDbLine
 10
0.0012538029
 20
-0.0048480962
 30
0.0
 11
0.0187461971
 21
0.0048480962
 31
0.0
  0
LINE
  5
1C1
330
1F
100
AcDbEntity
  8
0
  6
Continuous
 62
     7
100
AcDbLine
 10
0.0011705241
 20
-0.0046947156
 30
0.0
 11
0.0188294759
 21
0.0046947156
 31
0.0
  0
LINE
  5
1C2
330
1F
100
AcDbEntity
  8
0
  6
Continuous
 62
     7
100
AcDbLine
 10
0.0010899348
 20
-0.004539905
 30
0.0
 11
0.0189100652
 21
0.004539905
 31
0.0
  0
LINE
  5
1C3
330
1F
100
AcDbEntity
  8
0
  6
Continuous
 62
     7
100
AcDbLine
 10
0.0010120595
 20
-0.0043837115
 30
0.0
 11
0.0189879405
 21
0.0043837115
 31
0.0
  0
LINE
  5
1C4
330
1F
100
AcDbEntity
  8
0
  6
Continuous
 62
     7
100
AcDbLine
 10
0.0009369221
 20
-0.0042261826
 30
0.0
 11
0.0190630779
 21
0.0042261826
 31
0.0
  0
LINE
  5
1C5
330
1F
100
AcDbEntity
  8
0
  6
Continuous
 62
     7
100
AcDbLine
 10
0.0008645454
 20
-0.0040673664
 30
0.0
 11
0.0191354546
 21
0.0040673664
 31
0.0
  0
LINE
  5
1C6
330
1F
100
AcDbEntity
  8
0
  6
Continuous
 62
     7
100
AcDbLine
 10
0.0007949515
 20
-0.0039073113
 30
0.0
 11
0.0192050485
 21
0.0039073113
 31
0.0
  0
LINE
  5
1C7
330
1F
100
AcDbEntity
  8
0
  6
Continuous
 62
     7
100
AcDbLine
 10
0.0007281615
 20
-0.0037460659
 30
0.0
 11
0.0192718385
 21
0.0037460659
 31
0.0
  0
LINE
  5
1C8
330
1F
100
AcDbEntity
  8
0
  6
Continuous
 62
     7
100
AcDbLine
 10
0.0006641957
 20
-0.0035836795
 30
0.0
 11
0.0193358043
 21
0.0035836795
 31
0.0
  0
LINE
  5
1C9
330
1F
100
AcDbEntity
  8
0
  6
Continuous
 62
     7
100
AcDbLine
 10
0.0006030738
 20
-0.0034202014
 30
0.0
 11
0.0193969262
 21
0.0034202014
 31
0.0
  0
LINE
  5
1CA
330
1F
100
AcDbEntity
  8
0
  6
Continuous
 62
     7
100
AcDbLine
 10
0.0005448142
 20
-0.0032556815
 30
0.0
 11
0.0194551858
 21
0.0032556815
 31
0.0
  0
LINE
  5
1CB
330
1F
100
AcDbEntity
  8
0
  6
Continuous
 62
     7
100
AcDbLine
 10
0.0004894348
 20
-0.0030901699
 30
0.0
 11
0.0195105652
 21
0.0030901699
 31
0.0
  0
LINE
  5
1CC
330
1F
100
AcDbEntity
  8
0
  6
Continuous
 62
     7
100
AcDbLine
 10
0.0004369524
 20
-0.002923717
 30
0.0
 11
0.0195630476
 21
0.002923717
 31
0.0
  0
LINE
  5
1CD
330
1F
100
AcDbEntity
  8
0
  6
Continuous
 62
     7
100
AcDbLine
 10
0.000387383
 20
-0.0027563736
 30
0.0
 11
0.019612617
 21
0.0027563736
 31
0.0
  0
LINE
  5
1CE
330
1F
100
AcDbEntity
  8
0
  6
Continuous
 62
     7
100
AcDbLine
 10
0.0003407417
 20
-0.0025881905
 30
0.0
 11
0.0196592583
 21
0.0025881905
 31
0.0
  0
LINE
  5
1CF
330
1F
100
AcDbEntity
  8
0
  6
Continuous
 62
     7
100
AcDbLine
 10
0.0002970427
 20
-0.002419219
 30
0.0
 11
0.0197029573
 21
0.002419219
 31
0.0
  0
LINE
  5
1D0
330
1F
100
AcDbEntity
  8
0
  6
Continuous
 62
     7
100
AcDbLine
 10
0.0002562994
 20
-0.0022495105
 30
0.0
 11
0.0197437006
 21
0.0022495105
 31
0.0
  0
LINE
  5
1D1
330
1F
100
AcDbEntity
  8
0
  6
Continuous
 62
     7
100
AcDbLine
 10
0.000218524
 20
-0.0020791169
 30
0.0
 11
0.019781476
 21
0.0020791169
 31
0.0
  0
LINE
  5
1D2
330
1F
100
AcDbEntity
  8
0
  6
Continuous
 62
     7
100
AcDbLine
 10
0.0001837282
 20
-0.00190809
 30
0.0
 11
0.0198162718
 21
0.00190809
 31
0.0
  0
LINE
  5
1D3
330
1F
100
AcDbEntity
  8
0
  6
Continuous
 62
     7
100
AcDbLine
 10
0.0001519225
 20
-0.0017364818
 30
0.0
 11
0.0198480775
 21
0.0017364818
 31
0.0
  0
LINE
  5
1D4
330
1F
100
AcDbEntity
  8
0
  6
Continuous
 62
     7
100
AcDbLine
 10
0.0001231166
 20
-0.0015643447
 30
0.0
 11
0.0198768834
 21
0.0015643447
 31
0.0
  0
LINE
  5
1D5
330
1F
100
AcDbEntity
  8
0
  6
Continuous
 62
     7
100
AcDbLine
 10
0.0000973193
 20
-0.001391731
 30
0.0
 11
0.0199026807
 21
0.001391731
 31
0.0
  0
LINE
  5
1D6
330
1F
100
AcDbEntity
  8
0
  6
Continuous
 62
     7
100
AcDbLine
 10
0.0000745385
 20
-0.0012186934
 30
0.0
 11
0.0199254615
 21
0.0012186934
 31
0.0
  0
LINE
  5
1D7
330
1F
100
AcDbEntity
  8
0
  6
Continuous
 62
     7
100
AcDbLine
 10
0.000054781
 20
-0.0010452846
 30
0.0
 11
0.019945219
 21
0.0010452846
 31
0.0
  0
LINE
  5
1D8
330
1F
100
AcDbEntity
  8
0
  6
Continuous
 62
     7
100
AcDbLine
 10
0.000038053
 20
-0.0008715574
 30
0.0
 11
0.019961947
 21
0.0008715574
 31
0.0
  0
LINE
  5
1D9
330
1F
100
AcDbEntity
  8
0
  6
Continuous
 62
     7
100
AcDbLine
 10
0.0000243595
 20
-0.0006975647
 30
0.0
 11
0.0199756405
 21
0.0006975647
 31
0.0
  0
LINE
  5
1DA
330
1F
100
AcDbEntity
  8
0
  6
Continuous
 62
     7
100
AcDbLine
 10
0.0000137047
 20
-0.0005233596
 30
0.0
 11
0.0199862953
 21
0.0005233596
 31
0.0
  0
LINE
  5
1DB
330
1F
100
AcDbEntity
  8
0
  6
Continuous
 62
     7
100
AcDbLine
 10
0.0000060917
 20
-0.000348995
 30
0.0
 11
0.0199939083
 21
0.000348995
 31
0.0
  0
LINE
  5
1DC
330
1F
100
AcDbEntity
  8
0
  6
Continuous
 62
     7
100
AcDbLine
 10
0.000001523
 20
-0.0001745241
 30
0.0
 11
0.019998477
 21
0.0001745241
 31
0.0
  0
LINE
  5
1DD
330
1F
100
AcDbEntity
  8
0
  6
Continuous
 62
     7
100
AcDbLine
 10
-77.0375604706
 20
35.9278674896
 30
0.0
 11
-113.2694103017
 21
52.823056535
 31
0.0
  0
LINE
  5
1DE
330
1F
100
AcDbEntity
  8
0
  6
Continuous
 62
     7
100
AcDbLine
 10
-77.652712081
 20
34.5776671973
 30
0.0
 11
-114.1740467507
 21
50.838013018
 31
0.0
  0
LINE
  5
1DF
330
1F
100
AcDbEntity
  8
0
  6
Continuous
 62
     7
100
AcDbLine
 10
-75.7370401998
 20
38.5950447057
 30
0.0
 11
-111.3569054583
 21
56.7442725624
 31
0.0
  0
LINE
  5
1E0
330
1F
100
AcDbEntity
  8
0
  6
Continuous
 62
     7
100
AcDbLine
 10
-75.0520673716
 20
39.9112091815
 30
0.0
 11
-110.3496196314
 21
58.6792506326
 31
0.0
  0
LINE
  5
1E1
330
1F
100
AcDbEntity
  8
0
  6
Continuous
 62
     7
100
AcDbLine
 10
-74.3442283919
 20
41.2152218114
 30
0.0
 11
-109.3087171954
 21
60.5963544346
 31
0.0
  0
LINE
  5
1E2
330
1F
100
AcDbEntity
  8
0
  6
Continuous
 62
     7
100
AcDbLine
 10
-73.6137387166
 20
42.5066853668
 30
0.0
 11
-108.234515219
 21
62.495
 31
0.0
  0
LINE
  5
1E3
330
1F
100
AcDbEntity
  8
0
  6
Continuous
 62
     7
100
AcDbLine
 10
-72.8608207016
 20
43.7852064358
 30
0.0
 11
-107.1273409148
 21
64.374608983
 31
0.0
  0
LINE
  5
1E4
330
1F
100
AcDbEntity
  8
0
  6
Continuous
 62
     7
100
AcDbLine
 10
-71.2886231701
 20
46.3018672712
 30
0.0
 11
-104.8154342875
 21
68.0744329865
 31
0.0
  0
LINE
  5
1E5
330
1F
100
AcDbEntity
  8
0
  6
Continuous
 62
     7
100
AcDbLine
 10
-70.4698222482
 20
47.539240372
 30
0.0
 11
-103.6114061937
 21
69.8935210048
 31
0.0
  0
LINE
  5
1E6
330
1F
100
AcDbEntity
  8
0
  6
Continuous
 62
     7
100
AcDbLine
 10
-69.6295500307
 20
48.762137889
 30
0.0
 11
-102.3758140157
 21
71.6913187795
 31
0.0
  0
LINE
  5
1E7
330
1F
100
AcDbEntity
  8
0
  6
Continuous
 62
     7
100
AcDbLine
 10
-68.7680623199
 20
49.9701872692
 30
0.0
 11
-101.1090341269
 21
73.467278684
 31
0.0
  0
LINE
  5
1E8
330
1F
100
AcDbEntity
  8
0
  6
Continuous
 62
     7
100
AcDbLine
 10
-67.8856213827
 20
51.1630204772
 30
0.0
 11
-99.8114524008
 21
75.2208597438
 31
0.0
  0
LINE
  5
1E9
330
1F
100
AcDbEntity
  8
0
  6
Continuous
 62
     7
100
AcDbLine
 10
-66.9824958702
 20
52.3402741072
 30
0.0
 11
-98.4834640933
 21
76.951527801
 31
0.0
  0
LINE
  5
1EA
330
1F
100
AcDbEntity
  8
0
  6
Continuous
 62
     7
100
AcDbLine
 10
-66.0589607364
 20
53.5015894941
 30
0.0
 11
-97.1254737225
 21
78.6587556773
 31
0.0
  0
LINE
  5
1EB
330
1F
100
AcDbEntity
  8
0
  6
Continuous
 62
     7
100
AcDbLine
 10
-65.1152971546
 20
54.6466128227
 30
0.0
 11
-95.7378949454
 21
80.3420233347
 31
0.0
  0
LINE
  5
1EC
330
1F
100
AcDbEntity
  8
0
  6
Continuous
 62
     7
100
AcDbLine
 10
-64.1517924316
 20
55.7749952353
 30
0.0
 11
-94.321150432
 21
82.0008180335
 31
0.0
  0
LINE
  5
1ED
330
1F
100
AcDbEntity
  8
0
  6
Continuous
 62
     7
100
AcDbLine
 10
-63.168739921
 20
56.8863929385
 30
0.0
 11
-92.8756717364
 21
83.6346344888
 31
0.0
  0
LINE
  5
1EE
330
1F
100
AcDbEntity
  8
0
  6
Continuous
 62
     7
100
AcDbLine
 10
-62.1664389332
 20
57.9804673076
 30
0.0
 11
-91.4018991654
 21
85.2429750242
 31
0.0
  0
LINE
  5
1EF
330
1F
100
AcDbEntity
  8
0
  6
Continuous
 62
     7
100
AcDbLine
 10
-61.1451946453
 20
59.0568849901
 30
0.0
 11
-89.9002816443
 21
86.8253497237
 31
0.0
  0
LINE
  5
1F0
330
1F
100
AcDbEntity
  8
0
  6
Continuous
 62
     7
100
AcDbLine
 10
-60.1053180073
 20
60.1153180073
 30
0.0
 11
-88.3712765805
 21
88.3812765805
 31
0.0
  0
LINE
  5
1F1
330
1F
100
AcDbEntity
  8
0
  6
Continuous
 62
     7
100
AcDbLine
 10
-59.0471256485
 20
61.1554438543
 30
0.0
 11
-86.8153497237
 21
89.9102816443
 31
0.0
  0
LINE
  5
1F2
330
1F
100
AcDbEntity
  8
0
  6
Continuous
 62
     7
100
AcDbLine
 10
-57.9709397805
 20
62.1769455985
 30
0.0
 11
-85.2329750242
 21
91.4118991654
 31
0.0
  0
LINE
  5
1F3
330
1F
100
AcDbEntity
  8
0
  6
Continuous
 62
     7
100
AcDbLine
 10
-56.8770880997
 20
63.1795119757
 30
0.0
 11
-83.6246344888
 21
92.8856717364
 31
0.0
  0
LINE
  5
1F4
330
1F
100
AcDbEntity
  8
0
  6
Continuous
 62
     7
100
AcDbLine
 10
-55.7659036872
 20
64.162837486
 30
0.0
 11
-81.9908180335
 21
94.331150432
 31
0.0
  0
LINE
  5
1F5
330
1F
100
AcDbEntity
  8
0
  6
Continuous
 62
     7
100
AcDbLine
 10
-54.6377249078
 20
65.1266224859
 30
0.0
 11
-80.3320233347
 21
95.7478949454
 31
0.0
  0
LINE
  5
1F6
330
1F
100
AcDbEntity
  8
0
  6
Continuous
 62
     7
100
AcDbLine
 10
-53.4928953068
 20
66.0705732808
 30
0.0
 11
-78.6487556773
 21
97.1354737225
 31
0.0
  0
LINE
  5
1F7
330
1F
100
AcDbEntity
  8
0
  6
Continuous
 62
     7
100
AcDbLine
 10
-52.3317635059
 20
66.9944022136
 30
0.0
 11
-76.941527801
 21
98.4934640933
 31
0.0
  0
LINE
  5
1F8
330
1F
100
AcDbEntity
  8
0
  6
Continuous
 62
     7
100
AcDbLine
 10
-51.1546830967
 20
67.8978277533
 30
0.0
 11
-75.2108597438
 21
99.8214524008
 31
0.0
  0
LINE
  5
1F9
330
1F
100
AcDbEntity
  8
0
  6
Continuous
 62
     7
100
AcDbLine
 10
-49.9620125332
 20
68.7805745802
 30
0.0
 11
-73.457278684
 21
101.1190341269
 31
0.0
  0
LINE
  5
1FA
330
1F
100
AcDbEntity
  8
0
  6
Continuous
 62
     7
100
AcDbLine
 10
-48.754115023
 20
69.6423736706
 30
0.0
 11
-71.6813187795
 21
102.3858140157
 31
0.0
  0
LINE
  5
1FB
330
1F
100
AcDbEntity
  8
0
  6
Continuous
 62
     7
100
AcDbLine
 10
-47.5313584165
 20
70.4829623784
 30
0.0
 11
-69.8835210048
 21
103.6214061937
 31
0.0
  0
LINE
  5
1FC
330
1F
100
AcDbEntity
  8
0
  6
Continuous
 62
     7
100
AcDbLine
 10
-46.2941150951
 20
71.3020845154
 30
0.0
 11
-68.0644329865
 21
104.8254342875
 31
0.0
  0
LINE
  5
1FD
330
1F
100
AcDbEntity
  8
0
  6
Continuous
 62
     7
100
AcDbLine
 10
-45.0427618578
 20
72.0994904296
 30
0.0
 11
-66.2246088365
 21
105.9975315386
 31
0.0
  0
LINE
  5
1FE
330
1F
100
AcDbEntity
  8
0
  6
Continuous
 62
     7
100
AcDbLine
 10
-43.7776798063
 20
72.8749370814
 30
0.0
 11
-64.364608983
 21
107.1373409148
 31
0.0
  0
LINE
  5
1FF
330
1F
100
AcDbEntity
  8
0
  6
Continuous
 62
     7
100
AcDbLine
 10
-42.4992542297
 20
73.6281881177
 30
0.0
 11
-62.485
 21
108.244515219
 31
0.0
  0
LINE
  5
200
330
1F
100
AcDbEntity
  8
0
  6
Continuous
 62
     7
100
AcDbLine
 10
-41.2078744863
 20
74.3590139441
 30
0.0
 11
-60.5863544346
 21
109.3187171954
 31
0.0
  0
LINE
  5
201
330
1F
100
AcDbEntity
  8
0
  6
Continuous
 62
     7
100
AcDbLine
 10
-39.9039338858
 20
75.0671917951
 30
0.0
 11
-58.6692506326
 21
110.3596196314
 31
0.0
  0
LINE
  5
202
330
1F
100
AcDbEntity
  8
0
  6
Continuous
 62
     7
100
AcDbLine
 10
-38.5878295692
 20
75.7525058022
 30
0.0
 11
-56.7342725624
 21
111.3669054583
 31
0.0
  0
LINE
  5
203
330
1F
100
AcDbEntity
  8
0
  6
Continuous
 62
     7
100
AcDbLine
 10
-37.2599623879
 20
76.4147470595
 30
0.0
 11
-54.7820096372
 21
112.3402678469
 31
0.0
  0
LINE
  5
204
330
1F
100
AcDbEntity
  8
0
  6
Continuous
 62
     7
100
AcDbLine
 10
-35.920736782
 20
77.0537136879
 30
0.0
 11
-52.813056535
 21
113.2794103017
 31
0.0
  0
LINE
  5
205
330
1F
100
AcDbEntity
  8
0
  6
Continuous
 62
     7
100
AcDbLine
 10
-34.5705606564
 20
77.6692108966
 30
0.0
 11
-50.828013018
 21
114.1840467507
 31
0.0
  0
LINE
  5
206
330
1F
100
AcDbEntity
  8
0
  6
Continuous
 62
     7
100
AcDbLine
 10
-33.2098452577
 20
78.2610510427
 30
0.0
 11
-48.8274837499
 21
115.053901633
 31
0.0
  0
LINE
  5
207
330
1F
100
AcDbEntity
  8
0
  6
Continuous
 62
     7
100
AcDbLine
 10
-31.8390050478
 20
78.8290536883
 30
0.0
 11
-46.8120781111
 21
115.8887099823
 31
0.0
  0
LINE
  5
208
330
1F
100
AcDbEntity
  8
0
  6
Continuous
 62
     7
100
AcDbLine
 10
-30.4584575786
 20
79.3730456561
 30
0.0
 11
-44.7824100137
 21
116.6882175079
 31
0.0
  0
LINE
  5
209
330
1F
100
AcDbEntity
  8
0
  6
Continuous
 62
     7
100
AcDbLine
 10
-29.0686233643
 20
79.8928610821
 30
0.0
 11
-42.7390977143
 21
117.452180672
 31
0.0
  0
LINE
  5
20A
330
1F
100
AcDbEntity
  8
0
  6
Continuous
 62
     7
100
AcDbLine
 10
-27.6699257533
 20
80.3883414661
 30
0.0
 11
-40.6827636256
 21
118.1803667642
 31
0.0
  0
LINE
  5
20B
330
1F
100
AcDbEntity
  8
0
  6
Continuous
 62
     7
100
AcDbLine
 10
-26.2627907999
 20
80.8593357206
 30
0.0
 11
-38.6140341269
 21
118.8725539717
 31
0.0
  0
LINE
  5
20C
330
1F
100
AcDbEntity
  8
0
  6
Continuous
 62
     7
100
AcDbLine
 10
-24.8476471337
 20
81.3057002167
 30
0.0
 11
-36.5335393733
 21
119.5285314478
 31
0.0
  0
LINE
  5
20D
330
1F
100
AcDbEntity
  8
0
  6
Continuous
 62
     7
100
AcDbLine
 10
-23.4249258295
 20
81.7272988282
 30
0.0
 11
-34.4419131036
 21
120.1480993753
 31
0.0
  0
LINE
  5
20E
330
1F
100
AcDbEntity
  8
0
  6
Continuous
 62
     7
100
AcDbLine
 10
-78.2442059957
 20
33.2169397076
 30
0.0
 11
-115.043901633
 21
48.8374837499
 31
0.0
  0
LINE
  5
20F
330
1F
100
AcDbEntity
  8
0
  6
Continuous
 62
     7
100
AcDbLine
 10
-78.8118621989
 20
31.8460994975
 30
0.0
 11
-115.8787099823
 21
46.8220781111
 31
0.0
  0
LINE
  5
210
330
1F
100
AcDbEntity
  8
0
  6
Continuous
 62
     7
100
AcDbLine
 10
-79.3555079352
 20
30.4655641186
 30
0.0
 11
-116.6782175079
 21
44.7924100137
 31
0.0
  0
LINE
  5
211
330
1F
100
AcDbEntity
  8
0
  6
Continuous
 62
     7
100
AcDbLine
 10
-79.8749777624
 20
29.0757540705
 30
0.0
 11
-117.442180672
 21
42.7490977143
 31
0.0
  0
LINE
  5
212
330
1F
100
AcDbEntity
  8
0
  6
Continuous
 62
     7
100
AcDbLine
 10
-80.3701136015
 20
27.6770926724
 30
0.0
 11
-118.1703667642
 21
40.6927636256
 31
0.0
  0
LINE
  5
213
330
1F
100
AcDbEntity
  8
0
  6
Continuous
 62
     7
100
AcDbLine
 10
-80.8407647847
 20
26.270005934
 30
0.0
 11
-118.8625539717
 21
38.6240341269
 31
0.0
  0
LINE
  5
214
330
1F
100
AcDbEntity
  8
0
  6
Continuous
 62
     7
100
AcDbLine
 10
-81.286788101
 20
24.8549224265
 30
0.0
 11
-119.5185314478
 21
36.5435393733
 31
0.0
  0
LINE
  5
215
330
1F
100
AcDbEntity
  8
0
  6
Continuous
 62
     7
100
AcDbLine
 10
-82.4757714901
 20
20.5660126686
 30
0.0
 11
-121.2672628272
 21
30.237817731
 31
0.0
  0
LINE
  5
216
330
1F
100
AcDbEntity
  8
0
  6
Continuous
 62
     7
100
AcDbLine
 10
-83.1430015641
 20
17.674716105
 30
0.0
 11
-122.2486686157
 21
25.9868822353
 31
0.0
  0
LINE
  5
217
330
1F
100
AcDbEntity
  8
0
  6
Continuous
 62
     7
100
AcDbLine
 10
-83.4386730225
 20
16.2207788592
 30
0.0
 11
-122.6835816591
 21
23.8492163321
 31
0.0
  0
LINE
  5
218
330
1F
100
AcDbEntity
  8
0
  6
Continuous
 62
     7
100
AcDbLine
 10
-83.7089262909
 20
14.761905501
 30
0.0
 11
-123.081121049
 21
21.7042857266
 31
0.0
  0
LINE
  5
219
330
1F
100
AcDbEntity
  8
0
  6
Continuous
 62
     7
100
AcDbLine
 10
-83.9536791843
 20
13.2985403352
 30
0.0
 11
-123.441165691
 21
19.5527437854
 31
0.0
  0
LINE
  5
21A
330
1F
100
AcDbEntity
  8
0
  6
Continuous
 62
     7
100
AcDbLine
 10
-84.3663939518
 20
10.3601184819
 30
0.0
 11
-124.0483434936
 21
15.2324492322
 31
0.0
  0
LINE
  5
21B
330
1F
100
AcDbEntity
  8
0
  6
Continuous
 62
     7
100
AcDbLine
 10
-84.534230367
 20
8.8859566788
 30
0.0
 11
-124.2952917021
 21
13.0650126238
 31
0.0
  0
LINE
  5
21C
330
1F
100
AcDbEntity
  8
0
  6
Continuous
 62
     7
100
AcDbLine
 10
-84.6763155271
 20
7.4090925644
 30
0.0
 11
-124.5043753145
 21
10.893596286
 31
0.0
  0
LINE
  5
21D
330
1F
100
AcDbEntity
  8
0
  6
Continuous
 62
     7
100
AcDbLine
 10
-84.792606272
 20
5.9299759011
 30
0.0
 11
-124.675530642
 21
8.7188616533
 31
0.0
  0
LINE
  5
21E
330
1F
100
AcDbEntity
  8
0
  6
Continuous
 62
     7
100
AcDbLine
 10
-84.883067295
 20
4.4490571335
 30
0.0
 11
-124.808705549
 21
6.5414711708
 31
0.0
  0
LINE
  5
21F
330
1F
100
AcDbEntity
  8
0
  6
Continuous
 62
     7
100
AcDbLine
 10
-84.9476711536
 20
2.9667872509
 30
0.0
 11
-124.9038594691
 21
4.3620880928
 31
0.0
  0
LINE
  5
220
330
1F
100
AcDbEntity
  8
0
  6
Continuous
 62
     7
100
AcDbLine
 10
-84.9863982775
 20
1.4836176506
 30
0.0
 11
-124.9609634176
 21
2.1813762806
 31
0.0
  0
LINE
  5
221
330
1F
100
AcDbEntity
  8
0
  6
Continuous
 62
     7
100
AcDbLine
 10
-84.9992369746
 20
0.0
 30
0.0
 11
-124.98
 21
0.0
 31
0.0
  0
LINE
  5
222
330
1F
100
AcDbEntity
  8
0
  6
Continuous
 62
     7
100
AcDbLine
 10
-84.9861834346
 20
-1.4836139005
 30
0.0
 11
-124.9609634176
 21
-2.1813762806
 31
0.0
  0
LINE
  5
223
330
1F
100
AcDbEntity
  8
0
  6
Continuous
 62
     7
100
AcDbLine
 10
-84.9472417296
 20
-2.9667722551
 30
0.0
 11
-124.9038594691
 21
-4.3620880928
 31
0.0
  0
LINE
  5
224
330
1F
100
AcDbEntity
  8
0
  6
Continuous
 62
     7
100
AcDbLine
 10
-84.8824238131
 20
-4.44902341
 30
0.0
 11
-124.808705549
 21
-6.5414711708
 31
0.0
  0
LINE
  5
225
330
1F
100
AcDbEntity
  8
0
  6
Continuous
 62
     7
100
AcDbLine
 10
-84.7917495161
 20
-5.9299159909
 30
0.0
 11
-124.675530642
 21
-8.7188616533
 31
0.0
  0
LINE
  5
226
330
1F
100
AcDbEntity
  8
0
  6
Continuous
 62
     7
100
AcDbLine
 10
-84.6752465409
 20
-7.4089990402
 30
0.0
 11
-124.5043753145
 21
-10.893596286
 31
0.0
  0
LINE
  5
227
330
1F
100
AcDbEntity
  8
0
  6
Continuous
 62
     7
100
AcDbLine
 10
-84.5329504528
 20
-8.8858221544
 30
0.0
 11
-124.2952917021
 21
-13.0650126238
 31
0.0
  0
LINE
  5
228
330
1F
100
AcDbEntity
  8
0
  6
Continuous
 62
     7
100
AcDbLine
 10
-84.3649046689
 20
-10.359935621
 30
0.0
 11
-124.0483434936
 21
-15.2324492322
 31
0.0
  0
LINE
  5
229
330
1F
100
AcDbEntity
  8
0
  6
Continuous
 62
     7
100
AcDbLine
 10
-84.1711604451
 20
-11.8308905552
 30
0.0
 11
-123.763605912
 21
-17.395245889
 31
0.0
  0
LINE
  5
22A
330
1F
100
AcDbEntity
  8
0
  6
Continuous
 62
     7
100
AcDbLine
 10
-83.9517768599
 20
-13.2982390366
 30
0.0
 11
-123.441165691
 21
-19.5527437854
 31
0.0
  0
LINE
  5
22B
330
1F
100
AcDbEntity
  8
0
  6
Continuous
 62
     7
100
AcDbLine
 10
-83.7068207968
 20
-14.7615342456
 30
0.0
 11
-123.081121049
 21
-21.7042857266
 31
0.0
  0
LINE
  5
22C
330
1F
100
AcDbEntity
  8
0
  6
Continuous
 62
     7
100
AcDbLine
 10
-83.4363669238
 20
-16.2203305991
 30
0.0
 11
-122.6835816591
 21
-23.8492163321
 31
0.0
  0
LINE
  5
22D
330
1F
100
AcDbEntity
  8
0
  6
Continuous
 62
     7
100
AcDbLine
 10
-83.1404976703
 20
-17.674183886
 30
0.0
 11
-122.2486686157
 21
-25.9868822353
 31
0.0
  0
LINE
  5
22E
330
1F
100
AcDbEntity
  8
0
  6
Continuous
 62
     7
100
AcDbLine
 10
-82.8193032023
 20
-19.1226514025
 30
0.0
 11
-121.7765143975
 21
-28.1166322824
 31
0.0
  0
LINE
  5
22F
330
1F
100
AcDbEntity
  8
0
  6
Continuous
 62
     7
100
AcDbLine
 10
-82.4728813945
 20
-20.5652920868
 30
0.0
 11
-121.2672628272
 21
-30.237817731
 31
0.0
  0
LINE
  5
230
330
1F
100
AcDbEntity
  8
0
  6
Continuous
 62
     7
100
AcDbLine
 10
-82.1013378008
 20
-22.0016666532
 30
0.0
 11
-120.7210690279
 21
-32.3497924474
 31
0.0
  0
LINE
  5
231
330
1F
100
AcDbEntity
  8
0
  6
Continuous
 62
     7
100
AcDbLine
 10
-81.7047856219
 20
-23.4313377254
 30
0.0
 11
-120.1380993753
 21
-34.4519131036
 31
0.0
  0
LINE
  5
232
330
1F
100
AcDbEntity
  8
0
  6
Continuous
 62
     7
100
AcDbLine
 10
-81.2833456709
 20
-24.85386997
 30
0.0
 11
-119.5185314478
 21
-36.5435393733
 31
0.0
  0
LINE
  5
233
330
1F
100
AcDbEntity
  8
0
  6
Continuous
 62
     7
100
AcDbLine
 10
-80.8371463363
 20
-26.2688302289
 30
0.0
 11
-118.8625539717
 21
-38.6240341269
 31
0.0
  0
LINE
  5
234
330
1F
100
AcDbEntity
  8
0
  6
Continuous
 62
     7
100
AcDbLine
 10
-80.3663235432
 20
-27.6757876506
 30
0.0
 11
-118.1703667642
 21
-40.6927636256
 31
0.0
  0
LINE
  5
235
330
1F
100
AcDbEntity
  8
0
  6
Continuous
 62
     7
100
AcDbLine
 10
-79.8710207114
 20
-29.0743138218
 30
0.0
 11
-117.442180672
 21
-42.7490977143
 31
0.0
  0
LINE
  5
236
330
1F
100
AcDbEntity
  8
0
  6
Continuous
 62
     7
100
AcDbLine
 10
-79.3513887123
 20
-30.4639828971
 30
0.0
 11
-116.6782175079
 21
-44.7924100137
 31
0.0
  0
LINE
  5
237
330
1F
100
AcDbEntity
  8
0
  6
Continuous
 62
     7
100
AcDbLine
 10
-78.8075858224
 20
-31.8443717293
 30
0.0
 11
-115.8787099823
 21
-46.8220781111
 31
0.0
  0
LINE
  5
238
330
1F
100
AcDbEntity
  8
0
  6
Continuous
 62
     7
100
AcDbLine
 10
-78.2397776755
 20
-33.2150599973
 30
0.0
 11
-115.043901633
 21
-48.8374837499
 31
0.0
  0
LINE
  5
239
330
1F
100
AcDbEntity
  8
0
  6
Continuous
 62
     7
100
AcDbLine
 10
-77.648137212
 20
-34.5756303344
 30
0.0
 11
-114.1740467507
 21
-50.838013018
 31
0.0
  0
LINE
  5
23A
330
1F
100
AcDbEntity
  8
0
  6
Continuous
 62
     7
100
AcDbLine
 10
-77.0328446263
 20
-35.9256684553
 30
0.0
 11
-113.2694103017
 21
-52.823056535
 31
0.0
  0
LINE
  5
23B
330
1F
100
AcDbEntity
  8
0
  6
Continuous
 62
     7
100
AcDbLine
 10
-76.3940873121
 20
-37.2647632817
 30
0.0
 11
-112.3302678469
 21
-54.7920096372
 31
0.0
  0
LINE
  5
23C
330
1F
100
AcDbEntity
  8
0
  6
Continuous
 62
     7
100
AcDbLine
 10
-75.7320598052
 20
-38.5925070679
 30
0.0
 11
-111.3569054583
 21
-56.7442725624
 31
0.0
  0
LINE
  5
23D
330
1F
100
AcDbEntity
  8
0
  6
Continuous
 62
     7
100
AcDbLine
 10
-75.0469637243
 20
-39.9084955241
 30
0.0
 11
-110.3496196314
 21
-58.6792506326
 31
0.0
  0
LINE
  5
23E
330
1F
100
AcDbEntity
  8
0
  6
Continuous
 62
     7
100
AcDbLine
 10
-74.3390077098
 20
-41.2123279401
 30
0.0
 11
-109.3087171954
 21
-60.5963544346
 31
0.0
  0
LINE
  5
23F
330
1F
100
AcDbEntity
  8
0
  6
Continuous
 62
     7
100
AcDbLine
 10
-73.6084073598
 20
-42.5036073065
 30
0.0
 11
-108.234515219
 21
-62.495
 31
0.0
  0
LINE
  5
240
330
1F
100
AcDbEntity
  8
0
  6
Continuous
 62
     7
100
AcDbLine
 10
-72.8553851653
 20
-43.7819404361
 30
0.0
 11
-107.1273409148
 21
-64.374608983
 31
0.0
  0
LINE
  5
241
330
1F
100
AcDbEntity
  8
0
  6
Continuous
 62
     7
100
AcDbLine
 10
-72.0801704419
 20
-45.046938083
 30
0.0
 11
-105.9875315386
 21
-66.2346088365
 31
0.0
  0
LINE
  5
242
330
1F
100
AcDbEntity
  8
0
  6
Continuous
 62
     7
100
AcDbLine
 10
-71.2829992599
 20
-46.2982150612
 30
0.0
 11
-104.8154342875
 21
-68.0744329865
 31
0.0
  0
LINE
  5
243
330
1F
100
AcDbEntity
  8
0
  6
Continuous
 62
     7
100
AcDbLine
 10
-70.4641143731
 20
-47.5353903616
 30
0.0
 11
-103.6114061937
 21
-69.8935210048
 31
0.0
  0
LINE
  5
244
330
1F
100
AcDbEntity
  8
0
  6
Continuous
 62
     7
100
AcDbLine
 10
-69.6237651445
 20
-48.7580872681
 30
0.0
 11
-102.3758140157
 21
-71.6913187795
 31
0.0
  0
LINE
  5
245
330
1F
100
AcDbEntity
  8
0
  6
Continuous
 62
     7
100
AcDbLine
 10
-68.7622074704
 20
-49.965933472
 30
0.0
 11
-101.1090341269
 21
-73.467278684
 31
0.0
  0
LINE
  5
246
330
1F
100
AcDbEntity
  8
0
  6
Continuous
 62
     7
100
AcDbLine
 10
-67.8797037028
 20
-51.1585611855
 30
0.0
 11
-99.8114524008
 21
-75.2208597438
 31
0.0
  0
LINE
  5
247
330
1F
100
AcDbEntity
  8
0
  6
Continuous
 62
     7
100
AcDbLine
 10
-66.9765225695
 20
-52.3356072532
 30
0.0
 11
-98.4834640933
 21
-76.951527801
 31
0.0
  0
LINE
  5
248
330
1F
100
AcDbEntity
  8
0
  6
Continuous
 62
     7
100
AcDbLine
 10
-66.0529390923
 20
-53.4967132628
 30
0.0
 11
-97.1254737225
 21
-78.6587556773
 31
0.0
  0
LINE
  5
249
330
1F
100
AcDbEntity
  8
0
  6
Continuous
 62
     7
100
AcDbLine
 10
-65.1092345031
 20
-54.6415256541
 30
0.0
 11
-95.7378949454
 21
-80.3420233347
 31
0.0
  0
LINE
  5
24A
330
1F
100
AcDbEntity
  8
0
  6
Continuous
 62
     7
100
AcDbLine
 10
-64.1456961591
 20
-55.7696958265
 30
0.0
 11
-94.321150432
 21
-82.0008180335
 31
0.0
  0
LINE
  5
24B
330
1F
100
AcDbEntity
  8
0
  6
Continuous
 62
     7
100
AcDbLine
 10
-63.1626174545
 20
-56.880880245
 30
0.0
 11
-92.8756717364
 21
-83.6346344888
 31
0.0
  0
LINE
  5
24C
330
1F
100
AcDbEntity
  8
0
  6
Continuous
 62
     7
100
AcDbLine
 10
-62.160297732
 20
-57.9747405448
 30
0.0
 11
-91.4018991654
 21
-85.2429750242
 31
0.0
  0
LINE
  5
24D
330
1F
100
AcDbEntity
  8
0
  6
Continuous
 62
     7
100
AcDbLine
 10
-61.1390421912
 20
-59.0509436342
 30
0.0
 11
-89.9002816443
 21
-86.8253497237
 31
0.0
  0
LINE
  5
24E
330
1F
100
AcDbEntity
  8
0
  6
Continuous
 62
     7
100
AcDbLine
 10
-60.099161796
 20
-60.109161796
 30
0.0
 11
-88.3712765805
 21
-88.3812765805
 31
0.0
  0
LINE
  5
24F
330
1F
100
AcDbEntity
  8
0
  6
Continuous
 62
     7
100
AcDbLine
 10
-59.0409731803
 20
-61.1490727871
 30
0.0
 11
-86.8153497237
 21
-89.9102816443
 31
0.0
  0
LINE
  5
250
330
1F
100
AcDbEntity
  8
0
  6
Continuous
 62
     7
100
AcDbLine
 10
-57.9647985512
 20
-62.1703599363
 30
0.0
 11
-85.2329750242
 21
-91.4118991654
 31
0.0
  0
LINE
  5
251
330
1F
100
AcDbEntity
  8
0
  6
Continuous
 62
     7
100
AcDbLine
 10
-56.8709655913
 20
-63.1727122413
 30
0.0
 11
-83.6246344888
 21
-92.8856717364
 31
0.0
  0
LINE
  5
252
330
1F
100
AcDbEntity
  8
0
  6
Continuous
 62
     7
100
AcDbLine
 10
-55.7598073589
 20
-64.1558244625
 30
0.0
 11
-81.9908180335
 21
-94.331150432
 31
0.0
  0
LINE
  5
253
330
1F
100
AcDbEntity
  8
0
  6
Continuous
 62
     7
100
AcDbLine
 10
-54.6316621871
 20
-65.1193972168
 30
0.0
 11
-80.3320233347
 21
-95.7478949454
 31
0.0
  0
LINE
  5
254
330
1F
100
AcDbEntity
  8
0
  6
Continuous
 62
     7
100
AcDbLine
 10
-53.4868735801
 20
-66.0631370676
 30
0.0
 11
-78.6487556773
 21
-97.1354737225
 31
0.0
  0
LINE
  5
255
330
1F
100
AcDbEntity
  8
0
  6
Continuous
 62
     7
100
AcDbLine
 10
-52.3257901098
 20
-66.9867566153
 30
0.0
 11
-76.941527801
 21
-98.4934640933
 31
0.0
  0
LINE
  5
256
330
1F
100
AcDbEntity
  8
0
  6
Continuous
 62
     7
100
AcDbLine
 10
-51.1487653088
 20
-67.8899745836
 30
0.0
 11
-75.2108597438
 21
-99.8214524008
 31
0.0
  0
LINE
  5
257
330
1F
100
AcDbEntity
  8
0
  6
Continuous
 62
     7
100
AcDbLine
 10
-49.9561575636
 20
-68.772515906
 30
0.0
 11
-73.457278684
 21
-101.1190341269
 31
0.0
  0
LINE
  5
258
330
1F
100
AcDbEntity
  8
0
  6
Continuous
 62
     7
100
AcDbLine
 10
-48.7483300051
 20
-69.6341118089
 30
0.0
 11
-71.6813187795
 21
-102.3858140157
 31
0.0
  0
LINE
  5
259
330
1F
100
AcDbEntity
  8
0
  6
Continuous
 62
     7
100
AcDbLine
 10
-47.5256503986
 20
-70.4744998938
 30
0.0
 11
-69.8835210048
 21
-103.6214061937
 31
0.0
  0
LINE
  5
25A
330
1F
100
AcDbEntity
  8
0
  6
Continuous
 62
     7
100
AcDbLine
 10
-46.2884910316
 20
-71.2934242171
 30
0.0
 11
-68.0644329865
 21
-104.8254342875
 31
0.0
  0
LINE
  5
25B
330
1F
100
AcDbEntity
  8
0
  6
Continuous
 62
     7
100
AcDbLine
 10
-45.0372286009
 20
-72.0906353676
 30
0.0
 11
-66.2246088365
 21
-105.9975315386
 31
0.0
  0
LINE
  5
25C
330
1F
100
AcDbEntity
  8
0
  6
Continuous
 62
     7
100
AcDbLine
 10
-43.7722440977
 20
-72.865890543
 30
0.0
 11
-64.364608983
 21
-107.1373409148
 31
0.0
  0
LINE
  5
25D
330
1F
100
AcDbEntity
  8
0
  6
Continuous
 62
     7
100
AcDbLine
 10
-42.493922692
 20
-73.6189536235
 30
0.0
 11
-62.485
 21
-108.244515219
 31
0.0
  0
LINE
  5
25E
330
1F
100
AcDbEntity
  8
0
  6
Continuous
 62
     7
100
AcDbLine
 10
-41.2026536155
 20
-74.3495952438
 30
0.0
 11
-60.5863544346
 21
-109.3187171954
 31
0.0
  0
LINE
  5
25F
330
1F
100
AcDbEntity
  8
0
  6
Continuous
 62
     7
100
AcDbLine
 10
-39.898830043
 20
-75.0575928628
 30
0.0
 11
-58.6692506326
 21
-110.3596196314
 31
0.0
  0
LINE
  5
260
330
1F
100
AcDbEntity
  8
0
  6
Continuous
 62
     7
100
AcDbLine
 10
-38.5828489728
 20
-75.7427308314
 30
0.0
 11
-56.7342725624
 21
-111.3669054583
 31
0.0
  0
LINE
  5
261
330
1F
100
AcDbEntity
  8
0
  6
Continuous
 62
     7
100
AcDbLine
 10
-37.2551111064
 20
-76.4048004584
 30
0.0
 11
-54.7820096372
 21
-112.3402678469
 31
0.0
  0
LINE
  5
262
330
1F
100
AcDbEntity
  8
0
  6
Continuous
 62
     7
100
AcDbLine
 10
-35.9160207262
 20
-77.0436000737
 30
0.0
 11
-52.813056535
 21
-113.2794103017
 31
0.0
  0
LINE
  5
263
330
1F
100
AcDbEntity
  8
0
  6
Continuous
 62
     7
100
AcDbLine
 10
-34.5659855725
 20
-77.6589350899
 30
0.0
 11
-50.828013018
 21
-114.1840467507
 31
0.0
  0
LINE
  5
264
330
1F
100
AcDbEntity
  8
0
  6
Continuous
 62
     7
100
AcDbLine
 10
-33.2054167201
 20
-78.2506180618
 30
0.0
 11
-48.8274837499
 21
-115.053901633
 31
0.0
  0
LINE
  5
265
330
1F
100
AcDbEntity
  8
0
  6
Continuous
 62
     7
100
AcDbLine
 10
-31.8347284524
 20
-78.8184687431
 30
0.0
 11
-46.8120781111
 21
-115.8887099823
 31
0.0
  0
LINE
  5
266
330
1F
100
AcDbEntity
  8
0
  6
Continuous
 62
     7
100
AcDbLine
 10
-30.4543381361
 20
-79.3623141415
 30
0.0
 11
-44.7824100137
 21
-116.6882175079
 31
0.0
  0
LINE
  5
267
330
1F
100
AcDbEntity
  8
0
  6
Continuous
 62
     7
100
AcDbLine
 10
-29.064666094
 20
-79.8819885715
 30
0.0
 11
-42.7390977143
 21
-117.452180672
 31
0.0
  0
LINE
  5
268
330
1F
100
AcDbEntity
  8
0
  6
Continuous
 62
     7
100
AcDbLine
 10
-27.6661354772
 20
-80.3773337049
 30
0.0
 11
-40.6827636256
 21
-118.1803667642
 31
0.0
  0
LINE
  5
269
330
1F
100
AcDbEntity
  8
0
  6
Continuous
 62
     7
100
AcDbLine
 10
-26.2591721362
 20
-80.8481986189
 30
0.0
 11
-38.6140341269
 21
-118.8725539717
 31
0.0
  0
LINE
  5
26A
330
1F
100
AcDbEntity
  8
0
  6
Continuous
 62
     7
100
AcDbLine
 10
-24.8442044917
 20
-81.2944398421
 30
0.0
 11
-36.5335393733
 21
-119.5285314478
 31
0.0
  0
LINE
  5
26B
330
1F
100
AcDbEntity
  8
0
  6
Continuous
 62
     7
100
AcDbLine
 10
-23.4216634041
 20
-81.7159213987
 30
0.0
 11
-34.4419131036
 21
-120.1480993753
 31
0.0
  0
LINE
  5
26C
330
1F
100
AcDbEntity
  8
0
  6
Continuous
 62
     7
100
AcDbLine
 10
-21.9919820423
 20
-82.1125148492
 30
0.0
 11
-32.3397924474
 21
-120.7310690279
 31
0.0
  0
LINE
  5
26D
330
1F
100
AcDbEntity
  8
0
  6
Continuous
 62
     7
100
AcDbLine
 10
-20.5555957524
 20
-82.4840993305
 30
0.0
 11
-30.227817731
 21
-121.2772628272
 31
0.0
  0
LINE
  5
26E
330
1F
100
AcDbEntity
  8
0
  6
Continuous
 62
     7
100
AcDbLine
 10
-19.1129419246
 20
-82.8305615919
 30
0.0
 11
-28.1066322824
 21
-121.7865143975
 31
0.0
  0
LINE
  5
26F
330
1F
100
AcDbEntity
  8
0
  6
Continuous
 62
     7
100
AcDbLine
 10
-17.6644598609
 20
-83.1517960303
 30
0.0
 11
-25.9768822353
 21
-122.2586686157
 31
0.0
  0
LINE
  5
270
330
1F
100
AcDbEntity
  8
0
  6
Continuous
 62
     7
100
AcDbLine
 10
-16.2105906407
 20
-83.4477047222
 30
0.0
 11
-23.8392163321
 21
-122.6935816591
 31
0.0
  0
LINE
  5
271
330
1F
100
AcDbEntity
  8
0
  6
Continuous
 62
     7
100
AcDbLine
 10
-14.7517769874
 20
-83.7181974536
 30
0.0
 11
-21.6942857266
 21
-123.091121049
 31
0.0
  0
LINE
  5
272
330
1F
100
AcDbEntity
  8
0
  6
Continuous
 62
     7
100
AcDbLine
 10
-13.2884631328
 20
-83.9631917478
 30
0.0
 11
-19.5427437854
 21
-123.451165691
 31
0.0
  0
LINE
  5
273
330
1F
100
AcDbEntity
  8
0
  6
Continuous
 62
     7
100
AcDbLine
 10
-11.821094683
 20
-84.1826128903
 30
0.0
 11
-17.385245889
 21
-123.773605912
 31
0.0
  0
LINE
  5
274
330
1F
100
AcDbEntity
  8
0
  6
Continuous
 62
     7
100
AcDbLine
 10
-10.3501184819
 20
-84.3763939518
 30
0.0
 11
-15.2224492322
 21
-124.0583434936
 31
0.0
  0
LINE
  5
275
330
1F
100
AcDbEntity
  8
0
  6
Continuous
 62
     7
100
AcDbLine
 10
-8.8759824758
 20
-84.5444758088
 30
0.0
 11
-13.0550126238
 21
-124.3052917021
 31
0.0
  0
LINE
  5
276
330
1F
100
AcDbEntity
  8
0
  6
Continuous
 62
     7
100
AcDbLine
 10
-7.3991355768
 20
-84.6868071615
 30
0.0
 11
-10.883596286
 21
-124.5143753145
 31
0.0
  0
LINE
  5
277
330
1F
100
AcDbEntity
  8
0
  6
Continuous
 62
     7
100
AcDbLine
 10
-5.9200275265
 20
-84.8033445499
 30
0.0
 11
-8.7088616533
 21
-124.685530642
 31
0.0
  0
LINE
  5
278
330
1F
100
AcDbEntity
  8
0
  6
Continuous
 62
     7
100
AcDbLine
 10
-4.4391087589
 20
-84.8940523668
 30
0.0
 11
-6.5314711708
 21
-124.818705549
 31
0.0
  0
LINE
  5
279
330
1F
100
AcDbEntity
  8
0
  6
Continuous
 62
     7
100
AcDbLine
 10
-2.9568302634
 20
-84.958902869
 30
0.0
 11
-4.3520880928
 21
-124.9138594691
 31
0.0
  0
LINE
  5
27A
330
1F
100
AcDbEntity
  8
0
  6
Continuous
 62
     7
100
AcDbLine
 10
-1.4736434476
 20
-84.9978761858
 30
0.0
 11
-2.1713762806
 21
-124.9709634176
 31
0.0
  0
LINE
  5
27B
330
1F
100
AcDbEntity
  8
0
  6
Continuous
 62
     7
100
AcDbLine
 10
0.01
 20
-85.0109603252
 30
0.0
 11
0.01
 21
-124.99
 31
0.0
  0
LINE
  5
27C
330
1F
100
AcDbEntity
  8
0
  6
Continuous
 62
     7
100
AcDbLine
 10
1.4936482476
 20
-84.9981511777
 30
0.0
 11
2.1913762806
 21
-124.9709634176
 31
0.0
  0
LINE
  5
27D
330
1F
100
AcDbEntity
  8
0
  6
Continuous
 62
     7
100
AcDbLine
 10
2.9768494575
 20
-84.9594525177
 30
0.0
 11
4.3720880928
 21
-124.9138594691
 31
0.0
  0
LINE
  5
27E
330
1F
100
AcDbEntity
  8
0
  6
Continuous
 62
     7
100
AcDbLine
 10
4.4591519238
 20
-84.8948760028
 30
0.0
 11
6.5514711708
 21
-124.818705549
 31
0.0
  0
LINE
  5
27F
330
1F
100
AcDbEntity
  8
0
  6
Continuous
 62
     7
100
AcDbLine
 10
5.9401042096
 20
-84.8044411697
 30
0.0
 11
8.7288616533
 21
-124.685530642
 31
0.0
  0
LINE
  5
280
330
1F
100
AcDbEntity
  8
0
  6
Continuous
 62
     7
100
AcDbLine
 10
7.4192552847
 20
-84.6881754291
 30
0.0
 11
10.903596286
 21
-124.5143753145
 31
0.0
  0
LINE
  5
281
330
1F
100
AcDbEntity
  8
0
  6
Continuous
 62
     7
100
AcDbLine
 10
8.8961546627
 20
-84.5461140573
 30
0.0
 11
13.0750126238
 21
-124.3052917021
 31
0.0
  0
LINE
  5
282
330
1F
100
AcDbEntity
  8
0
  6
Continuous
 62
     7
100
AcDbLine
 10
10.370352538
 20
-84.3783001853
 30
0.0
 11
15.2424492322
 21
-124.0583434936
 31
0.0
  0
LINE
  5
283
330
1F
100
AcDbEntity
  8
0
  6
Continuous
 62
     7
100
AcDbLine
 10
11.8413999231
 20
-84.1847847866
 30
0.0
 11
17.405245889
 21
-123.773605912
 31
0.0
  0
LINE
  5
284
330
1F
100
AcDbEntity
  8
0
  6
Continuous
 62
     7
100
AcDbLine
 10
13.3088487852
 20
-83.9656266608
 30
0.0
 11
19.5627437854
 21
-123.451165691
 31
0.0
  0
LINE
  5
285
330
1F
100
AcDbEntity
  8
0
  6
Continuous
 62
     7
100
AcDbLine
 10
14.7722521821
 20
-83.7208924169
 30
0.0
 11
21.7142857266
 21
-123.091121049
 31
0.0
  0
LINE
  5
286
330
1F
100
AcDbEntity
  8
0
  6
Continuous
 62
     7
100
AcDbLine
 10
16.231164399
 20
-83.4506564526
 30
0.0
 11
23.8592163321
 21
-122.6935816591
 31
0.0
  0
LINE
  5
287
330
1F
100
AcDbEntity
  8
0
  6
Continuous
 62
     7
100
AcDbLine
 10
17.6851410837
 20
-83.1550009317
 30
0.0
 11
25.9968822353
 21
-122.2586686157
 31
0.0
  0
LINE
  5
288
330
1F
100
AcDbEntity
  8
0
  6
Continuous
 62
     7
100
AcDbLine
 10
19.1337393822
 20
-82.8340157599
 30
0.0
 11
28.1266322824
 21
-121.7865143975
 31
0.0
  0
LINE
  5
289
330
1F
100
AcDbEntity
  8
0
  6
Continuous
 62
     7
100
AcDbLine
 10
20.5765180731
 20
-82.4877985569
 30
0.0
 11
30.247817731
 21
-121.2772628272
 31
0.0
  0
LINE
  5
28A
330
1F
100
AcDbEntity
  8
0
  6
Continuous
 62
     7
100
AcDbLine
 10
22.0130377027
 20
-82.1164546274
 30
0.0
 11
32.3597924474
 21
-120.7310690279
 31
0.0
  0
LINE
  5
28B
330
1F
100
AcDbEntity
  8
0
  6
Continuous
 62
     7
100
AcDbLine
 10
23.4428607181
 20
-81.7200969288
 30
0.0
 11
34.4619131036
 21
-120.1480993753
 31
0.0
  0
LINE
  5
28C
330
1F
100
AcDbEntity
  8
0
  6
Continuous
 62
     7
100
AcDbLine
 10
24.8655516008
 20
-81.2988460372
 30
0.0
 11
36.5535393733
 21
-119.5285314478
 31
0.0
  0
LINE
  5
28D
330
1F
100
AcDbEntity
  8
0
  6
Continuous
 62
     7
100
AcDbLine
 10
26.2806769992
 20
-80.8528301109
 30
0.0
 11
38.6340341269
 21
-118.8725539717
 31
0.0
  0
LINE
  5
28E
330
1F
100
AcDbEntity
  8
0
  6
Continuous
 62
     7
100
AcDbLine
 10
27.6878058609
 20
-80.3821848514
 30
0.0
 11
40.7027636256
 21
-118.1803667642
 31
0.0
  0
LINE
  5
28F
330
1F
100
AcDbEntity
  8
0
  6
Continuous
 62
     7
100
AcDbLine
 10
29.0865095635
 20
-79.8870534623
 30
0.0
 11
42.7590977143
 21
-117.452180672
 31
0.0
  0
LINE
  5
290
330
1F
100
AcDbEntity
  8
0
  6
Continuous
 62
     7
100
AcDbLine
 10
30.4763620457
 20
-79.3675866061
 30
0.0
 11
44.8024100137
 21
-116.6882175079
 31
0.0
  0
LINE
  5
291
330
1F
100
AcDbEntity
  8
0
  6
Continuous
 62
     7
100
AcDbLine
 10
31.8569399364
 20
-78.8239423582
 30
0.0
 11
46.8320781111
 21
-115.8887099823
 31
0.0
  0
LINE
  5
292
330
1F
100
AcDbEntity
  8
0
  6
Continuous
 62
     7
100
AcDbLine
 10
33.2278226845
 20
-78.2562861589
 30
0.0
 11
48.8474837499
 21
-115.053901633
 31
0.0
  0
LINE
  5
293
330
1F
100
AcDbEntity
  8
0
  6
Continuous
 62
     7
100
AcDbLine
 10
34.5885926865
 20
-77.6647907636
 30
0.0
 11
50.848013018
 21
-114.1840467507
 31
0.0
  0
LINE
  5
294
330
1F
100
AcDbEntity
  8
0
  6
Continuous
 62
     7
100
AcDbLine
 10
35.9388354135
 20
-77.0496361901
 30
0.0
 11
52.833056535
 21
-113.2794103017
 31
0.0
  0
LINE
  5
295
330
1F
100
AcDbEntity
  8
0
  6
Continuous
 62
     7
100
AcDbLine
 10
37.2781395382
 20
-76.4110096637
 30
0.0
 11
54.8020096372
 21
-112.3402678469
 31
0.0
  0
LINE
  5
296
330
1F
100
AcDbEntity
  8
0
  6
Continuous
 62
     7
100
AcDbLine
 10
38.6060970598
 20
-75.749105561
 30
0.0
 11
56.7542725624
 21
-111.3669054583
 31
0.0
  0
LINE
  5
297
330
1F
100
AcDbEntity
  8
0
  6
Continuous
 62
     7
100
AcDbLine
 10
39.9223034282
 20
-75.0641253503
 30
0.0
 11
58.6892506326
 21
-110.3596196314
 31
0.0
  0
LINE
  5
298
330
1F
100
AcDbEntity
  8
0
  6
Continuous
 62
     7
100
AcDbLine
 10
41.2263576676
 20
-74.3562775308
 30
0.0
 11
60.6063544346
 21
-109.3187171954
 31
0.0
  0
LINE
  5
299
330
1F
100
AcDbEntity
  8
0
  6
Continuous
 62
     7
100
AcDbLine
 10
42.5178624987
 20
-73.6257775689
 30
0.0
 11
62.505
 21
-108.244515219
 31
0.0
  0
LINE
  5
29A
330
1F
100
AcDbEntity
  8
0
  6
Continuous
 62
     7
100
AcDbLine
 10
43.7964244593
 20
-72.8728478331
 30
0.0
 11
64.384608983
 21
-107.1373409148
 31
0.0
  0
LINE
  5
29B
330
1F
100
AcDbEntity
  8
0
  6
Continuous
 62
     7
100
AcDbLine
 10
45.0616540248
 20
-72.0977175264
 30
0.0
 11
66.2446088365
 21
-105.9975315386
 31
0.0
  0
LINE
  5
29C
330
1F
100
AcDbEntity
  8
0
  6
Continuous
 62
     7
100
AcDbLine
 10
46.3131657267
 20
-71.3006226163
 30
0.0
 11
68.0844329865
 21
-104.8254342875
 31
0.0
  0
LINE
  5
29D
330
1F
100
AcDbEntity
  8
0
  6
Continuous
 62
     7
100
AcDbLine
 10
47.55057827
 20
-70.4818057637
 30
0.0
 11
69.9035210048
 21
-103.6214061937
 31
0.0
  0
LINE
  5
29E
330
1F
100
AcDbEntity
  8
0
  6
Continuous
 62
     7
100
AcDbLine
 10
48.7735146496
 20
-69.6415162485
 30
0.0
 11
71.7013187795
 21
-102.3858140157
 31
0.0
  0
LINE
  5
29F
330
1F
100
AcDbEntity
  8
0
  6
Continuous
 62
     7
100
AcDbLine
 10
49.981602265
 20
-68.7800098945
 30
0.0
 11
73.477278684
 21
-101.1190341269
 31
0.0
  0
LINE
  5
2A0
330
1F
100
AcDbEntity
  8
0
  6
Continuous
 62
     7
100
AcDbLine
 10
51.1744730343
 20
-67.897548991
 30
0.0
 11
75.2308597438
 21
-99.8214524008
 31
0.0
  0
LINE
  5
2A1
330
1F
100
AcDbEntity
  8
0
  6
Continuous
 62
     7
100
AcDbLine
 10
52.3517635059
 20
-66.9944022136
 30
0.0
 11
76.961527801
 21
-98.4934640933
 31
0.0
  0
LINE
  5
2A2
330
1F
100
AcDbEntity
  8
0
  6
Continuous
 62
     7
100
AcDbLine
 10
53.5131149699
 20
-66.0708445421
 30
0.0
 11
78.6687556773
 21
-97.1354737225
 31
0.0
  0
LINE
  5
2A3
330
1F
100
AcDbEntity
  8
0
  6
Continuous
 62
     7
100
AcDbLine
 10
54.6581735671
 20
-65.1271571772
 30
0.0
 11
80.3520233347
 21
-95.7478949454
 31
0.0
  0
LINE
  5
2A4
330
1F
100
AcDbEntity
  8
0
  6
Continuous
 62
     7
100
AcDbLine
 10
55.7865903967
 20
-64.1636274549
 30
0.0
 11
82.0108180335
 21
-94.331150432
 31
0.0
  0
LINE
  5
2A5
330
1F
100
AcDbEntity
  8
0
  6
Continuous
 62
     7
100
AcDbLine
 10
56.8980216235
 20
-63.180548759
 30
0.0
 11
83.6446344888
 21
-92.8856717364
 31
0.0
  0
LINE
  5
2A6
330
1F
100
AcDbEntity
  8
0
  6
Continuous
 62
     7
100
AcDbLine
 10
57.992128582
 20
-62.178220432
 30
0.0
 11
85.2529750242
 21
-91.4118991654
 31
0.0
  0
LINE
  5
2A7
330
1F
100
AcDbEntity
  8
0
  6
Continuous
 62
     7
100
AcDbLine
 10
59.0685778799
 20
-61.156947684
 30
0.0
 11
86.8353497237
 21
-89.9102816443
 31
0.0
  0
LINE
  5
2A8
330
1F
100
AcDbEntity
  8
0
  6
Continuous
 62
     7
100
AcDbLine
 10
60.1270415001
 20
-60.1170415001
 30
0.0
 11
88.3912765805
 21
-88.3812765805
 31
0.0
  0
LINE
  5
2A9
330
1F
100
AcDbEntity
  8
0
  6
Continuous
 62
     7
100
AcDbLine
 10
61.1671969003
 20
-59.0588185453
 30
0.0
 11
89.9202816443
 21
-86.8253497237
 31
0.0
  0
LINE
  5
2AA
330
1F
100
AcDbEntity
  8
0
  6
Continuous
 62
     7
100
AcDbLine
 10
62.1887271117
 20
-57.9826010685
 30
0.0
 11
91.4218991654
 21
-85.2429750242
 31
0.0
  0
LINE
  5
2AB
330
1F
100
AcDbEntity
  8
0
  6
Continuous
 62
     7
100
AcDbLine
 10
63.1913208359
 20
-56.8887168047
 30
0.0
 11
92.8956717364
 21
-83.6346344888
 31
0.0
  0
LINE
  5
2AC
330
1F
100
AcDbEntity
  8
0
  6
Continuous
 62
     7
100
AcDbLine
 10
64.1746725392
 20
-55.7774988746
 30
0.0
 11
94.341150432
 21
-82.0008180335
 31
0.0
  0
LINE
  5
2AD
330
1F
100
AcDbEntity
  8
0
  6
Continuous
 62
     7
100
AcDbLine
 10
65.1384825465
 20
-54.6492856839
 30
0.0
 11
95.7578949454
 21
-80.3420233347
 31
0.0
  0
LINE
  5
2AE
330
1F
100
AcDbEntity
  8
0
  6
Continuous
 62
     7
100
AcDbLine
 10
66.0824571325
 20
-53.5044208198
 30
0.0
 11
97.1454737225
 21
-78.6587556773
 31
0.0
  0
LINE
  5
2AF
330
1F
100
AcDbEntity
  8
0
  6
Continuous
 62
     7
100
AcDbLine
 10
67.0063086113
 20
-52.343252947
 30
0.0
 11
98.5034640933
 21
-76.951527801
 31
0.0
  0
LINE
  5
2B0
330
1F
100
AcDbEntity
  8
0
  6
Continuous
 62
     7
100
AcDbLine
 10
67.9097554243
 20
-51.166135701
 30
0.0
 11
99.8314524008
 21
-75.2208597438
 31
0.0
  0
LINE
  5
2B1
330
1F
100
AcDbEntity
  8
0
  6
Continuous
 62
     7
100
AcDbLine
 10
68.792522226
 20
-49.9734275807
 30
0.0
 11
101.1290341269
 21
-73.467278684
 31
0.0
  0
LINE
  5
2B2
330
1F
100
AcDbEntity
  8
0
  6
Continuous
 62
     7
100
AcDbLine
 10
69.6543399683
 20
-48.7654918394
 30
0.0
 11
102.3958140157
 21
-71.6913187795
 31
0.0
  0
LINE
  5
2B3
330
1F
100
AcDbEntity
  8
0
  6
Continuous
 62
     7
100
AcDbLine
 10
70.4949459822
 20
-47.5426963742
 30
0.0
 11
103.6314061937
 21
-69.8935210048
 31
0.0
  0
LINE
  5
2B4
330
1F
100
AcDbEntity
  8
0
  6
Continuous
 62
     7
100
AcDbLine
 10
71.3140840587
 20
-46.3054136137
 30
0.0
 11
104.8354342875
 21
-68.0744329865
 31
0.0
  0
LINE
  5
2B5
330
1F
100
AcDbEntity
  8
0
  6
Continuous
 62
     7
100
AcDbLine
 10
72.1115045262
 20
-45.054020405
 30
0.0
 11
106.0075315386
 21
-66.2346088365
 31
0.0
  0
LINE
  5
2B6
330
1F
100
AcDbEntity
  8
0
  6
Continuous
 62
     7
100
AcDbLine
 10
72.8869643274
 20
-43.7888978986
 30
0.0
 11
107.1473409148
 21
-64.374608983
 31
0.0
  0
LINE
  5
2B7
330
1F
100
AcDbEntity
  8
0
  6
Continuous
 62
     7
100
AcDbLine
 10
73.6402270932
 20
-42.5104314327
 30
0.0
 11
108.254515219
 21
-62.495
 31
0.0
  0
LINE
  5
2B8
330
1F
100
AcDbEntity
  8
0
  6
Continuous
 62
     7
100
AcDbLine
 10
74.3710632148
 20
-41.2190104156
 30
0.0
 11
109.3287171954
 21
-60.5963544346
 31
0.0
  0
LINE
  5
2B9
330
1F
100
AcDbEntity
  8
0
  6
Continuous
 62
     7
100
AcDbLine
 10
75.0792499144
 20
-39.9150282072
 30
0.0
 11
110.3696196314
 21
-58.6792506326
 31
0.0
  0
LINE
  5
2BA
330
1F
100
AcDbEntity
  8
0
  6
Continuous
 62
     7
100
AcDbLine
 10
75.7645713124
 20
-38.5988819992
 30
0.0
 11
111.3769054583
 21
-56.7442725624
 31
0.0
  0
LINE
  5
2BB
330
1F
100
AcDbEntity
  8
0
  6
Continuous
 62
     7
100
AcDbLine
 10
76.4268184941
 20
-37.2709726941
 30
0.0
 11
112.3502678469
 21
-54.7920096372
 31
0.0
  0
LINE
  5
2BC
330
1F
100
AcDbEntity
  8
0
  6
Continuous
 62
     7
100
AcDbLine
 10
77.0657895731
 20
-35.9317047831
 30
0.0
 11
113.2894103017
 21
-52.823056535
 31
0.0
  0
LINE
  5
2BD
330
1F
100
AcDbEntity
  8
0
  6
Continuous
 62
     7
100
AcDbLine
 10
77.6812897532
 20
-34.581486223
 30
0.0
 11
114.1940467507
 21
-50.838013018
 31
0.0
  0
LINE
  5
2BE
330
1F
100
AcDbEntity
  8
0
  6
Continuous
 62
     7
100
AcDbLine
 10
78.2731313878
 20
-33.2207283118
 30
0.0
 11
115.063901633
 21
-48.8374837499
 31
0.0
  0
LINE
  5
2BF
330
1F
100
AcDbEntity
  8
0
  6
Continuous
 62
     7
100
AcDbLine
 10
78.8411340374
 20
-31.8498455634
 30
0.0
 11
115.8987099823
 21
-46.8220781111
 31
0.0
  0
LINE
  5
2C0
330
1F
100
AcDbEntity
  8
0
  6
Continuous
 62
     7
100
AcDbLine
 10
79.3851245245
 20
-30.4692555814
 30
0.0
 11
116.6982175079
 21
-44.7924100137
 31
0.0
  0
LINE
  5
2C1
330
1F
100
AcDbEntity
  8
0
  6
Continuous
 62
     7
100
AcDbLine
 10
79.9049369869
 20
-29.0793789318
 30
0.0
 11
117.462180672
 21
-42.7490977143
 31
0.0
  0
LINE
  5
2C2
330
1F
100
AcDbEntity
  8
0
  6
Continuous
 62
     7
100
AcDbLine
 10
80.400412928
 20
-27.6806390149
 30
0.0
 11
118.1903667642
 21
-40.6927636256
 31
0.0
  0
LINE
  5
2C3
330
1F
100
AcDbEntity
  8
0
  6
Continuous
 62
     7
100
AcDbLine
 10
80.8714012658
 20
-26.2734619362
 30
0.0
 11
118.8825539717
 21
-38.6240341269
 31
0.0
  0
LINE
  5
2C4
330
1F
100
AcDbEntity
  8
0
  6
Continuous
 62
     7
100
AcDbLine
 10
81.3177583785
 20
-24.8582763769
 30
0.0
 11
119.5385314478
 21
-36.5435393733
 31
0.0
  0
LINE
  5
2C5
330
1F
100
AcDbEntity
  8
0
  6
Continuous
 62
     7
100
AcDbLine
 10
81.739348149
 20
-23.4355134628
 30
0.0
 11
120.1580993753
 21
-34.4519131036
 31
0.0
  0
LINE
  5
2C6
330
1F
100
AcDbEntity
  8
0
  6
Continuous
 62
     7
100
AcDbLine
 10
82.1360420061
 20
-22.0056066331
 30
0.0
 11
120.7410690279
 21
-32.3497924474
 31
0.0
  0
LINE
  5
2C7
330
1F
100
AcDbEntity
  8
0
  6
Continuous
 62
     7
100
AcDbLine
 10
82.5077189641
 20
-20.5689915084
 30
0.0
 11
121.2872628272
 21
-30.237817731
 31
0.0
  0
LINE
  5
2C8
330
1F
100
AcDbEntity
  8
0
  6
Continuous
 62
     7
100
AcDbLine
 10
82.8542656598
 20
-19.126105758
 30
0.0
 11
121.7965143975
 21
-28.1166322824
 31
0.0
  0
LINE
  5
2C9
330
1F
100
AcDbEntity
  8
0
  6
Continuous
 62
     7
100
AcDbLine
 10
83.1755763873
 20
-17.6773889662
 30
0.0
 11
122.2686686157
 21
-25.9868822353
 31
0.0
  0
LINE
  5
2CA
330
1F
100
AcDbEntity
  8
0
  6
Continuous
 62
     7
100
AcDbLine
 10
83.47155313
 20
-16.2232824985
 30
0.0
 11
122.7035816591
 21
-23.8492163321
 31
0.0
  0
LINE
  5
2CB
330
1F
100
AcDbEntity
  8
0
  6
Continuous
 62
     7
100
AcDbLine
 10
83.742105591
 20
-14.7642293672
 30
0.0
 11
123.101121049
 21
-21.7042857266
 31
0.0
  0
LINE
  5
2CC
330
1F
100
AcDbEntity
  8
0
  6
Continuous
 62
     7
100
AcDbLine
 10
83.9871512208
 20
-13.3006740962
 30
0.0
 11
123.461165691
 21
-19.5527437854
 31
0.0
  0
LINE
  5
2CD
330
1F
100
AcDbEntity
  8
0
  6
Continuous
 62
     7
100
AcDbLine
 10
84.2066152424
 20
-11.8330625853
 30
0.0
 11
123.783605912
 21
-17.395245889
 31
0.0
  0
LINE
  5
2CE
330
1F
100
AcDbEntity
  8
0
  6
Continuous
 62
     7
100
AcDbLine
 10
84.4004306741
 20
-10.3618419747
 30
0.0
 11
124.0683434936
 21
-15.2324492322
 31
0.0
  0
LINE
  5
2CF
330
1F
100
AcDbEntity
  8
0
  6
Continuous
 62
     7
100
AcDbLine
 10
84.5685383506
 20
-8.8874605085
 30
0.0
 11
124.3152917021
 21
-13.0650126238
 31
0.0
  0
LINE
  5
2D0
330
1F
100
AcDbEntity
  8
0
  6
Continuous
 62
     7
100
AcDbLine
 10
84.7108869407
 20
-7.4103673979
 30
0.0
 11
124.5243753145
 21
-10.893596286
 31
0.0
  0
LINE
  5
2D1
330
1F
100
AcDbEntity
  8
0
  6
Continuous
 62
     7
100
AcDbLine
 10
84.8274329632
 20
-5.9310126844
 30
0.0
 11
124.695530642
 21
-8.7188616533
 31
0.0
  0
LINE
  5
2D2
330
1F
100
AcDbEntity
  8
0
  6
Continuous
 62
     7
100
AcDbLine
 10
84.9181408006
 20
-4.4498471024
 30
0.0
 11
124.828705549
 21
-6.5414711708
 31
0.0
  0
LINE
  5
2D3
330
1F
100
AcDbEntity
  8
0
  6
Continuous
 62
     7
100
AcDbLine
 10
84.9829827094
 20
-2.9673219422
 30
0.0
 11
124.9238594691
 21
-4.3620880928
 31
0.0
  0
LINE
  5
2D4
330
1F
100
AcDbEntity
  8
0
  6
Continuous
 62
     7
100
AcDbLine
 10
85.0219388294
 20
-1.4838889119
 30
0.0
 11
124.9809634176
 21
-2.1813762806
 31
0.0
  0
LINE
  5
2D5
330
1F
100
AcDbEntity
  8
0
  6
Continuous
 62
     7
100
AcDbLine
 10
85.0349971897
 20
0.0
 30
0.0
 11
125.0
 21
0.0
 31
0.0
  0
LINE
  5
2D6
330
1F
100
AcDbEntity
  8
0
  6
Continuous
 62
     7
100
AcDbLine
 10
85.0221537121
 20
1.4838926627
 30
0.0
 11
124.9809634176
 21
2.1813762806
 31
0.0
  0
LINE
  5
2D7
330
1F
100
AcDbEntity
  8
0
  6
Continuous
 62
     7
100
AcDbLine
 10
84.9834122129
 20
2.9673369408
 30
0.0
 11
124.9238594691
 21
4.3620880928
 31
0.0
  0
LINE
  5
2D8
330
1F
100
AcDbEntity
  8
0
  6
Continuous
 62
     7
100
AcDbLine
 10
84.9187844016
 20
4.4498808321
 30
0.0
 11
124.828705549
 21
6.5414711708
 31
0.0
  0
LINE
  5
2D9
330
1F
100
AcDbEntity
  8
0
  6
Continuous
 62
     7
100
AcDbLine
 10
84.8282898776
 20
5.9310726056
 30
0.0
 11
124.695530642
 21
8.7188616533
 31
0.0
  0
LINE
  5
2DA
330
1F
100
AcDbEntity
  8
0
  6
Continuous
 62
     7
100
AcDbLine
 10
84.7119561243
 20
7.4104609393
 30
0.0
 11
124.5243753145
 21
10.893596286
 31
0.0
  0
LINE
  5
2DB
330
1F
100
AcDbEntity
  8
0
  6
Continuous
 62
     7
100
AcDbLine
 10
84.5698185008
 20
8.8875950577
 30
0.0
 11
124.3152917021
 21
13.0650126238
 31
0.0
  0
LINE
  5
2DC
330
1F
100
AcDbEntity
  8
0
  6
Continuous
 62
     7
100
AcDbLine
 10
84.401920231
 20
10.3620248693
 30
0.0
 11
124.0683434936
 21
15.2324492322
 31
0.0
  0
LINE
  5
2DD
330
1F
100
AcDbEntity
  8
0
  6
Continuous
 62
     7
100
AcDbLine
 10
84.2083123911
 20
11.833301104
 30
0.0
 11
123.783605912
 21
17.395245889
 31
0.0
  0
LINE
  5
2DE
330
1F
100
AcDbEntity
  8
0
  6
Continuous
 62
     7
100
AcDbLine
 10
83.9890538936
 20
13.3009754499
 30
0.0
 11
123.461165691
 21
19.5527437854
 31
0.0
  0
LINE
  5
2DF
330
1F
100
AcDbEntity
  8
0
  6
Continuous
 62
     7
100
AcDbLine
 10
83.7442114695
 20
14.7646006904
 30
0.0
 11
123.101121049
 21
21.7042857266
 31
0.0
  0
LINE
  5
2E0
330
1F
100
AcDbEntity
  8
0
  6
Continuous
 62
     7
100
AcDbLine
 10
83.4738596483
 20
16.2237308403
 30
0.0
 11
122.7035816591
 21
23.8492163321
 31
0.0
  0
LINE
  5
2E1
330
1F
100
AcDbEntity
  8
0
  6
Continuous
 62
     7
100
AcDbLine
 10
83.1780807351
 20
17.6779212818
 30
0.0
 11
122.2686686157
 21
25.9868822353
 31
0.0
  0
LINE
  5
2E2
330
1F
100
AcDbEntity
  8
0
  6
Continuous
 62
     7
100
AcDbLine
 10
82.8569647858
 20
19.1267289004
 30
0.0
 11
121.7965143975
 21
28.1166322824
 31
0.0
  0
LINE
  5
2E3
330
1F
100
AcDbEntity
  8
0
  6
Continuous
 62
     7
100
AcDbLine
 10
82.5106095796
 20
20.5697122198
 30
0.0
 11
121.2872628272
 21
30.237817731
 31
0.0
  0
LINE
  5
2E4
330
1F
100
AcDbEntity
  8
0
  6
Continuous
 62
     7
100
AcDbLine
 10
82.139120589
 20
22.0064315369
 30
0.0
 11
120.7410690279
 21
32.3497924474
 31
0.0
  0
LINE
  5
2E5
330
1F
100
AcDbEntity
  8
0
  6
Continuous
 62
     7
100
AcDbLine
 10
81.7426109484
 20
23.4364490555
 30
0.0
 11
120.1580993753
 21
34.4519131036
 31
0.0
  0
LINE
  5
2E6
330
1F
100
AcDbEntity
  8
0
  6
Continuous
 62
     7
100
AcDbLine
 10
81.3212014189
 20
24.85932902
 30
0.0
 11
119.5385314478
 21
36.5435393733
 31
0.0
  0
LINE
  5
2E7
330
1F
100
AcDbEntity
  8
0
  6
Continuous
 62
     7
100
AcDbLine
 10
80.8750203521
 20
26.2746378487
 30
0.0
 11
118.8825539717
 21
38.6240341269
 31
0.0
  0
LINE
  5
2E8
330
1F
100
AcDbEntity
  8
0
  6
Continuous
 62
     7
100
AcDbLine
 10
80.4042036507
 20
27.6819442654
 30
0.0
 11
118.1903667642
 21
40.6927636256
 31
0.0
  0
LINE
  5
2E9
330
1F
100
AcDbEntity
  8
0
  6
Continuous
 62
     7
100
AcDbLine
 10
79.9088947272
 20
29.0808194315
 30
0.0
 11
117.462180672
 21
42.7490977143
 31
0.0
  0
LINE
  5
2EA
330
1F
100
AcDbEntity
  8
0
  6
Continuous
 62
     7
100
AcDbLine
 10
79.3892444603
 20
30.4708370766
 30
0.0
 11
116.6982175079
 21
44.7924100137
 31
0.0
  0
LINE
  5
2EB
330
1F
100
AcDbEntity
  8
0
  6
Continuous
 62
     7
100
AcDbLine
 10
78.8454111489
 20
31.8515736287
 30
0.0
 11
115.8987099823
 21
46.8220781111
 31
0.0
  0
LINE
  5
2EC
330
1F
100
AcDbEntity
  8
0
  6
Continuous
 62
     7
100
AcDbLine
 10
78.2775604637
 20
33.222608343
 30
0.0
 11
115.063901633
 21
48.8374837499
 31
0.0
  0
LINE
  5
2ED
330
1F
100
AcDbEntity
  8
0
  6
Continuous
 62
     7
100
AcDbLine
 10
77.685865397
 20
34.5835234309
 30
0.0
 11
114.1940467507
 21
50.838013018
 31
0.0
  0
LINE
  5
2EE
330
1F
100
AcDbEntity
  8
0
  6
Continuous
 62
     7
100
AcDbLine
 10
77.0705062098
 20
35.9339041869
 30
0.0
 11
113.2894103017
 21
52.823056535
 31
0.0
  0
LINE
  5
2EF
330
1F
100
AcDbEntity
  8
0
  6
Continuous
 62
     7
100
AcDbLine
 10
76.4316703769
 20
37.2733391154
 30
0.0
 11
112.3502678469
 21
54.7920096372
 31
0.0
  0
LINE
  5
2F0
330
1F
100
AcDbEntity
  8
0
  6
Continuous
 62
     7
100
AcDbLine
 10
75.7695525297
 20
38.6014200562
 30
0.0
 11
111.3769054583
 21
56.7442725624
 31
0.0
  0
LINE
  5
2F1
330
1F
100
AcDbEntity
  8
0
  6
Continuous
 62
     7
100
AcDbLine
 10
75.084354397
 20
39.9177423088
 30
0.0
 11
110.3696196314
 21
58.6792506326
 31
0.0
  0
LINE
  5
2F2
330
1F
100
AcDbEntity
  8
0
  6
Continuous
 62
     7
100
AcDbLine
 10
74.3762847435
 20
41.2219047562
 30
0.0
 11
109.3287171954
 21
60.5963544346
 31
0.0
  0
LINE
  5
2F3
330
1F
100
AcDbEntity
  8
0
  6
Continuous
 62
     7
100
AcDbLine
 10
73.6455593059
 20
42.5135099872
 30
0.0
 11
108.254515219
 21
62.495
 31
0.0
  0
LINE
  5
2F4
330
1F
100
AcDbEntity
  8
0
  6
Continuous
 62
     7
100
AcDbLine
 10
72.8924007275
 20
43.7921644173
 30
0.0
 11
107.1473409148
 21
64.374608983
 31
0.0
  0
LINE
  5
2F5
330
1F
100
AcDbEntity
  8
0
  6
Continuous
 62
     7
100
AcDbLine
 10
72.1170384898
 20
45.0574784093
 30
0.0
 11
106.0075315386
 21
66.2346088365
 31
0.0
  0
LINE
  5
2F6
330
1F
100
AcDbEntity
  8
0
  6
Continuous
 62
     7
100
AcDbLine
 10
71.3197088433
 20
46.3090663916
 30
0.0
 11
104.8354342875
 21
68.0744329865
 31
0.0
  0
LINE
  5
2F7
330
1F
100
AcDbEntity
  8
0
  6
Continuous
 62
     7
100
AcDbLine
 10
70.5006547347
 20
47.5465469763
 30
0.0
 11
103.6314061937
 21
69.8935210048
 31
0.0
  0
LINE
  5
2F8
330
1F
100
AcDbEntity
  8
0
  6
Continuous
 62
     7
100
AcDbLine
 10
69.660125733
 20
48.7695430755
 30
0.0
 11
102.3958140157
 21
71.6913187795
 31
0.0
  0
LINE
  5
2F9
330
1F
100
AcDbEntity
  8
0
  6
Continuous
 62
     7
100
AcDbLine
 10
68.7983779536
 20
49.9776820158
 30
0.0
 11
101.1290341269
 21
73.467278684
 31
0.0
  0
LINE
  5
2FA
330
1F
100
AcDbEntity
  8
0
  6
Continuous
 62
     7
100
AcDbLine
 10
67.9156739803
 20
51.1705956528
 30
0.0
 11
99.8314524008
 21
75.2208597438
 31
0.0
  0
LINE
  5
2FB
330
1F
100
AcDbEntity
  8
0
  6
Continuous
 62
     7
100
AcDbLine
 10
67.0122827846
 20
52.3479204827
 30
0.0
 11
98.5034640933
 21
76.951527801
 31
0.0
  0
LINE
  5
2FC
330
1F
100
AcDbEntity
  8
0
  6
Continuous
 62
     7
100
AcDbLine
 10
66.0884796442
 20
53.5092977537
 30
0.0
 11
97.1454737225
 21
78.6587556773
 31
0.0
  0
LINE
  5
2FD
330
1F
100
AcDbEntity
  8
0
  6
Continuous
 62
     7
100
AcDbLine
 10
65.1445460589
 20
54.6543735749
 30
0.0
 11
95.7578949454
 21
80.3420233347
 31
0.0
  0
LINE
  5
2FE
330
1F
100
AcDbEntity
  8
0
  6
Continuous
 62
     7
100
AcDbLine
 10
64.1807696646
 20
55.7827990249
 30
0.0
 11
94.341150432
 21
82.0008180335
 31
0.0
  0
LINE
  5
2FF
330
1F
100
AcDbEntity
  8
0
  6
Continuous
 62
     7
100
AcDbLine
 10
63.1974441458
 20
56.8942302577
 30
0.0
 11
92.8956717364
 21
83.6346344888
 31
0.0
  0
LINE
  5
300
330
1F
100
AcDbEntity
  8
0
  6
Continuous
 62
     7
100
AcDbLine
 10
62.1948691456
 20
57.9883286078
 30
0.0
 11
91.4218991654
 21
85.2429750242
 31
0.0
  0
LINE
  5
301
330
1F
100
AcDbEntity
  8
0
  6
Continuous
 62
     7
100
AcDbLine
 10
61.1733501748
 20
59.0647606934
 30
0.0
 11
89.9202816443
 21
86.8253497237
 31
0.0
  0
LINE
  5
302
330
1F
100
AcDbEntity
  8
0
  6
Continuous
 62
     7
100
AcDbLine
 10
60.1331985183
 20
60.1231985183
 30
0.0
 11
88.3912765805
 21
88.3812765805
 31
0.0
  0
LINE
  5
303
330
1F
100
AcDbEntity
  8
0
  6
Continuous
 62
     7
100
AcDbLine
 10
59.0747311404
 20
61.1633195718
 30
0.0
 11
86.8353497237
 21
89.9102816443
 31
0.0
  0
LINE
  5
304
330
1F
100
AcDbEntity
  8
0
  6
Continuous
 62
     7
100
AcDbLine
 10
57.9982705878
 20
62.1848069268
 30
0.0
 11
85.2529750242
 21
91.4118991654
 31
0.0
  0
LINE
  5
305
330
1F
100
AcDbEntity
  8
0
  6
Continuous
 62
     7
100
AcDbLine
 10
56.9041448915
 20
63.187349337
 30
0.0
 11
83.6446344888
 21
92.8856717364
 31
0.0
  0
LINE
  5
306
330
1F
100
AcDbEntity
  8
0
  6
Continuous
 62
     7
100
AcDbLine
 10
55.7926874665
 20
64.1706413313
 30
0.0
 11
82.0108180335
 21
94.331150432
 31
0.0
  0
LINE
  5
307
330
1F
100
AcDbEntity
  8
0
  6
Continuous
 62
     7
100
AcDbLine
 10
54.6642370102
 20
65.1343833074
 30
0.0
 11
80.3520233347
 21
95.7478949454
 31
0.0
  0
LINE
  5
308
330
1F
100
AcDbEntity
  8
0
  6
Continuous
 62
     7
100
AcDbLine
 10
53.5191373991
 20
66.0782816229
 30
0.0
 11
78.6687556773
 21
97.1354737225
 31
0.0
  0
LINE
  5
309
330
1F
100
AcDbEntity
  8
0
  6
Continuous
 62
     7
100
AcDbLine
 10
52.3577375838
 20
67.0020486846
 30
0.0
 11
76.961527801
 21
98.4934640933
 31
0.0
  0
LINE
  5
30A
330
1F
100
AcDbEntity
  8
0
  6
Continuous
 62
     7
100
AcDbLine
 10
51.1803914823
 20
67.9054030369
 30
0.0
 11
75.2308597438
 21
99.8214524008
 31
0.0
  0
LINE
  5
30B
330
1F
100
AcDbEntity
  8
0
  6
Continuous
 62
     7
100
AcDbLine
 10
49.9874578726
 20
68.7880694469
 30
0.0
 11
73.477278684
 21
101.1190341269
 31
0.0
  0
LINE
  5
30C
330
1F
100
AcDbEntity
  8
0
  6
Continuous
 62
     7
100
AcDbLine
 10
48.7793002826
 20
69.6497789888
 30
0.0
 11
71.7013187795
 21
102.3858140157
 31
0.0
  0
LINE
  5
30D
330
1F
100
AcDbEntity
  8
0
  6
Continuous
 62
     7
100
AcDbLine
 10
47.5562868797
 20
70.4902691255
 30
0.0
 11
69.9035210048
 21
103.6214061937
 31
0.0
  0
LINE
  5
30E
330
1F
100
AcDbEntity
  8
0
  6
Continuous
 62
     7
100
AcDbLine
 10
46.3187903581
 20
71.3092837891
 30
0.0
 11
68.0844329865
 21
104.8254342875
 31
0.0
  0
LINE
  5
30F
330
1F
100
AcDbEntity
  8
0
  6
Continuous
 62
     7
100
AcDbLine
 10
45.0671878253
 20
72.1065734583
 30
0.0
 11
66.2446088365
 21
105.9975315386
 31
0.0
  0
LINE
  5
310
330
1F
100
AcDbEntity
  8
0
  6
Continuous
 62
     7
100
AcDbLine
 10
43.801860687
 20
72.8818952353
 30
0.0
 11
64.384608983
 21
107.1373409148
 31
0.0
  0
LINE
  5
311
330
1F
100
AcDbEntity
  8
0
  6
Continuous
 62
     7
100
AcDbLine
 10
42.5231945306
 20
73.635012919
 30
0.0
 11
62.505
 21
108.244515219
 31
0.0
  0
LINE
  5
312
330
1F
100
AcDbEntity
  8
0
  6
Continuous
 62
     7
100
AcDbLine
 10
41.2315790077
 20
74.3656970775
 30
0.0
 11
60.6063544346
 21
109.3187171954
 31
0.0
  0
LINE
  5
313
330
1F
100
AcDbEntity
  8
0
  6
Continuous
 62
     7
100
AcDbLine
 10
39.9274077152
 20
75.0737251181
 30
0.0
 11
58.6892506326
 21
110.3596196314
 31
0.0
  0
LINE
  5
314
330
1F
100
AcDbEntity
  8
0
  6
Continuous
 62
     7
100
AcDbLine
 10
38.6110780753
 20
75.7588813545
 30
0.0
 11
56.7542725624
 21
111.3669054583
 31
0.0
  0
LINE
  5
315
330
1F
100
AcDbEntity
  8
0
  6
Continuous
 62
     7
100
AcDbLine
 10
37.282991214
 20
76.4209570731
 30
0.0
 11
54.8020096372
 21
112.3402678469
 31
0.0
  0
LINE
  5
316
330
1F
100
AcDbEntity
  8
0
  6
Continuous
 62
     7
100
AcDbLine
 10
35.9435518387
 20
77.0597505967
 30
0.0
 11
52.833056535
 21
113.2794103017
 31
0.0
  0
LINE
  5
317
330
1F
100
AcDbEntity
  8
0
  6
Continuous
 62
     7
100
AcDbLine
 10
34.5931681153
 20
77.6750673452
 30
0.0
 11
50.848013018
 21
114.1840467507
 31
0.0
  0
LINE
  5
318
330
1F
100
AcDbEntity
  8
0
  6
Continuous
 62
     7
100
AcDbLine
 10
33.232251543
 20
78.2667198955
 30
0.0
 11
48.8474837499
 21
115.053901633
 31
0.0
  0
LINE
  5
319
330
1F
100
AcDbEntity
  8
0
  6
Continuous
 62
     7
100
AcDbLine
 10
31.8612168289
 20
78.8345280385
 30
0.0
 11
46.8320781111
 21
115.8887099823
 31
0.0
  0
LINE
  5
31A
330
1F
100
AcDbEntity
  8
0
  6
Continuous
 62
     7
100
AcDbLine
 10
30.4804817619
 20
79.3783188338
 30
0.0
 11
44.8024100137
 21
116.6882175079
 31
0.0
  0
LINE
  5
31B
330
1F
100
AcDbEntity
  8
0
  6
Continuous
 62
     7
100
AcDbLine
 10
29.0904670847
 20
79.8979266623
 30
0.0
 11
42.7590977143
 21
117.452180672
 31
0.0
  0
LINE
  5
31C
330
1F
100
AcDbEntity
  8
0
  6
Continuous
 62
     7
100
AcDbLine
 10
27.6915963658
 20
80.3931932769
 30
0.0
 11
40.7027636256
 21
118.1803667642
 31
0.0
  0
LINE
  5
31D
330
1F
100
AcDbEntity
  8
0
  6
Continuous
 62
     7
100
AcDbLine
 10
26.2842958702
 20
80.8639678506
 30
0.0
 11
38.6340341269
 21
118.8725539717
 31
0.0
  0
LINE
  5
31E
330
1F
100
AcDbEntity
  8
0
  6
Continuous
 62
     7
100
AcDbLine
 10
24.8689944293
 20
81.3101070221
 30
0.0
 11
36.5535393733
 21
119.5285314478
 31
0.0
  0
LINE
  5
31F
330
1F
100
AcDbEntity
  8
0
  6
Continuous
 62
     7
100
AcDbLine
 10
23.4461233102
 20
81.7314749397
 30
0.0
 11
34.4619131036
 21
120.1480993753
 31
0.0
  0
LINE
  5
320
330
1F
100
AcDbEntity
  8
0
  6
Continuous
 62
     7
100
AcDbLine
 10
22.0161160839
 20
82.1279433025
 30
0.0
 11
32.3597924474
 21
120.7310690279
 31
0.0
  0
LINE
  5
321
330
1F
100
AcDbEntity
  8
0
  6
Continuous
 62
     7
100
AcDbLine
 10
20.5794084935
 20
82.4993913998
 30
0.0
 11
30.247817731
 21
121.2772628272
 31
0.0
  0
LINE
  5
322
330
1F
100
AcDbEntity
  8
0
  6
Continuous
 62
     7
100
AcDbLine
 10
19.1364383207
 20
82.8457061471
 30
0.0
 11
28.1266322824
 21
121.7865143975
 31
0.0
  0
LINE
  5
323
330
1F
100
AcDbEntity
  8
0
  6
Continuous
 62
     7
100
AcDbLine
 10
17.6876452528
 20
83.1667821209
 30
0.0
 11
25.9968822353
 21
122.2586686157
 31
0.0
  0
LINE
  5
324
330
1F
100
AcDbEntity
  8
0
  6
Continuous
 62
     7
100
AcDbLine
 10
16.2334707483
 20
83.462521591
 30
0.0
 11
23.8592163321
 21
122.6935816591
 31
0.0
  0
LINE
  5
325
330
1F
100
AcDbEntity
  8
0
  6
Continuous
 62
     7
100
AcDbLine
 10
14.7743579022
 20
83.7328345494
 30
0.0
 11
21.7142857266
 21
123.091121049
 31
0.0
  0
LINE
  5
326
330
1F
100
AcDbEntity
  8
0
  6
Continuous
 62
     7
100
AcDbLine
 10
13.3107513113
 20
83.9776387383
 30
0.0
 11
19.5627437854
 21
123.451165691
 31
0.0
  0
LINE
  5
327
330
1F
100
AcDbEntity
  8
0
  6
Continuous
 62
     7
100
AcDbLine
 10
11.843096938
 20
84.196859675
 30
0.0
 11
17.405245889
 21
123.773605912
 31
0.0
  0
LINE
  5
328
330
1F
100
AcDbEntity
  8
0
  6
Continuous
 62
     7
100
AcDbLine
 10
10.3718419747
 20
84.3904306741
 30
0.0
 11
15.2424492322
 21
124.0583434936
 31
0.0
  0
LINE
  5
329
330
1F
100
AcDbEntity
  8
0
  6
Continuous
 62
     7
100
AcDbLine
 10
8.8974347073
 20
84.558292868
 30
0.0
 11
13.0750126238
 21
124.3052917021
 31
0.0
  0
LINE
  5
32A
330
1F
100
AcDbEntity
  8
0
  6
Continuous
 62
     7
100
AcDbLine
 10
7.4203243783
 20
84.7003952245
 30
0.0
 11
10.903596286
 21
124.5143753145
 31
0.0
  0
LINE
  5
32B
330
1F
100
AcDbEntity
  8
0
  6
Continuous
 62
     7
100
AcDbLine
 10
5.9409610504
 20
84.8166945627
 30
0.0
 11
8.7288616533
 21
124.685530642
 31
0.0
  0
LINE
  5
32C
330
1F
100
AcDbEntity
  8
0
  6
Continuous
 62
     7
100
AcDbLine
 10
4.4597954684
 20
84.9071555653
 30
0.0
 11
6.5514711708
 21
124.818705549
 31
0.0
  0
LINE
  5
32D
330
1F
100
AcDbEntity
  8
0
  6
Continuous
 62
     7
100
AcDbLine
 10
2.9772789226
 20
84.9717507898
 30
0.0
 11
4.3720880928
 21
124.9138594691
 31
0.0
  0
LINE
  5
32E
330
1F
100
AcDbEntity
  8
0
  6
Continuous
 62
     7
100
AcDbLine
 10
1.4938631107
 20
85.0104606766
 30
0.0
 11
2.1913762806
 21
124.9709634176
 31
0.0
  0
LINE
  5
32F
330
1F
100
AcDbEntity
  8
0
  6
Continuous
 62
     7
100
AcDbLine
 10
0.01
 20
85.0232735547
 30
0.0
 11
0.01
 21
124.99
 31
0.0
  0
LINE
  5
330
330
1F
100
AcDbEntity
  8
0
  6
Continuous
 62
     7
100
AcDbLine
 10
-1.47385831
 20
85.0101856449
 30
0.0
 11
-2.1713762806
 21
124.9709634176
 31
0.0
  0
LINE
  5
331
330
1F
100
AcDbEntity
  8
0
  6
Continuous
 62
     7
100
AcDbLine
 10
-2.9572597257
 20
84.9712010615
 30
0.0
 11
-4.3520880928
 21
124.9138594691
 31
0.0
  0
LINE
  5
332
330
1F
100
AcDbEntity
  8
0
  6
Continuous
 62
     7
100
AcDbLine
 10
-4.4397522972
 20
84.9063318102
 30
0.0
 11
-6.5314711708
 21
124.818705549
 31
0.0
  0
LINE
  5
333
330
1F
100
AcDbEntity
  8
0
  6
Continuous
 62
     7
100
AcDbLine
 10
-5.9208843561
 20
84.8155977844
 30
0.0
 11
-8.7088616533
 21
124.685530642
 31
0.0
  0
LINE
  5
334
330
1F
100
AcDbEntity
  8
0
  6
Continuous
 62
     7
100
AcDbLine
 10
-7.4002046531
 20
84.6990267595
 30
0.0
 11
-10.883596286
 21
124.5143753145
 31
0.0
  0
LINE
  5
335
330
1F
100
AcDbEntity
  8
0
  6
Continuous
 62
     7
100
AcDbLine
 10
-8.8772624956
 20
84.5566543835
 30
0.0
 11
-13.0550126238
 21
124.3052917021
 31
0.0
  0
LINE
  5
336
330
1F
100
AcDbEntity
  8
0
  6
Continuous
 62
     7
100
AcDbLine
 10
-10.351607885
 20
84.3885241665
 30
0.0
 11
-15.2224492322
 21
124.0583434936
 31
0.0
  0
LINE
  5
337
330
1F
100
AcDbEntity
  8
0
  6
Continuous
 62
     7
100
AcDbLine
 10
-11.8227916542
 20
84.1946874672
 30
0.0
 11
-17.385245889
 21
123.773605912
 31
0.0
  0
LINE
  5
338
330
1F
100
AcDbEntity
  8
0
  6
Continuous
 62
     7
100
AcDbLine
 10
-13.2903656038
 20
83.975203477
 30
0.0
 11
-19.5427437854
 21
123.451165691
 31
0.0
  0
LINE
  5
339
330
1F
100
AcDbEntity
  8
0
  6
Continuous
 62
     7
100
AcDbLine
 10
-14.7538826397
 20
83.7301392016
 30
0.0
 11
-21.6942857266
 21
123.091121049
 31
0.0
  0
LINE
  5
33A
330
1F
100
AcDbEntity
  8
0
  6
Continuous
 62
     7
100
AcDbLine
 10
-16.2128969084
 20
83.4595694409
 30
0.0
 11
-23.8392163321
 21
122.6935816591
 31
0.0
  0
LINE
  5
33B
330
1F
100
AcDbEntity
  8
0
  6
Continuous
 62
     7
100
AcDbLine
 10
-17.6669639334
 20
83.1635767654
 30
0.0
 11
-25.9768822353
 21
122.2586686157
 31
0.0
  0
LINE
  5
33C
330
1F
100
AcDbEntity
  8
0
  6
Continuous
 62
     7
100
AcDbLine
 10
-19.1156407506
 20
82.8422514916
 30
0.0
 11
-28.1066322824
 21
121.7865143975
 31
0.0
  0
LINE
  5
33D
330
1F
100
AcDbEntity
  8
0
  6
Continuous
 62
     7
100
AcDbLine
 10
-20.5584860431
 20
82.4956916535
 30
0.0
 11
-30.227817731
 21
121.2772628272
 31
0.0
  0
LINE
  5
33E
330
1F
100
AcDbEntity
  8
0
  6
Continuous
 62
     7
100
AcDbLine
 10
-21.9950602759
 20
82.1240029732
 30
0.0
 11
-32.3397924474
 21
120.7310690279
 31
0.0
  0
LINE
  5
33F
330
1F
100
AcDbEntity
  8
0
  6
Continuous
 62
     7
100
AcDbLine
 10
-123.7837041798
 20
17.395245889
 30
0.0
 11
-84.1728017317
 21
11.831524529
 31
0.0
  0
LINE
  5
340
330
1F
100
AcDbEntity
  8
0
  6
Continuous
 62
     7
100
AcDbLine
 10
-121.794003479
 20
28.128645836
 30
0.0
 11
-82.8202539889
 21
19.1308467898
 31
0.0
  0
LINE
  5
341
330
1F
100
AcDbEntity
  8
0
  6
Continuous
 62
     7
100
AcDbLine
 10
-120.7379909603
 20
32.3625947487
 30
0.0
 11
-82.1023491741
 21
22.010205733
 31
0.0
  0
LINE
  5
342
330
1F
100
AcDbEntity
  8
0
  6
Continuous
 62
     7
100
AcDbLine
 10
-120.1547218274
 20
34.4650957142
 30
0.0
 11
-81.705818257
 21
23.4400500279
 31
0.0
  0
LINE
  5
343
330
1F
100
AcDbEntity
  8
0
  6
Continuous
 62
     7
100
AcDbLine
 10
-105.9982235304
 20
66.252370587
 30
0.0
 11
-72.0807243638
 21
45.0583648643
 31
0.0
  0
POINT
  5
344
330
1F
100
AcDbEntity
  8
0
  6
Continuous
 62
     7
100
AcDbPoint
 10
0.01
 20
0.0
 30
0.0
  0
ENDSEC
  0
SECTION
  2
OBJECTS
  0
DICTIONARY
  5
C
330
0
100
AcDbDictionary
281
     1
  3
ACAD_GROUP
350
D
  3
ACAD_LAYOUT
350
1A
  3
ACAD_MLINESTYLE
350
17
  3
ACAD_PLOTSETTINGS
350
19
  3
ACAD_PLOTSTYLENAME
350
E
  3
ACAD_SCALELIST
350
47
  0
DICTIONARY
  5
D
102
{ACAD_REACTORS
330
C
102
}
330
C
100
AcDbDictionary
281
     1
  0
DICTIONARY
  5
1A
102
{ACAD_REACTORS
330
C
102
}
330
C
100
AcDbDictionary
281
     1
  3
Layout1
350
1E
  3
Layout2
350
26
  3
Model
350
22
  0
DICTIONARY
  5
17
102
{ACAD_REACTORS
330
C
102
}
330
C
100
AcDbDictionary
281
     1
  3
Standard
350
18
  0
DICTIONARY
  5
19
102
{ACAD_REACTORS
330
C
102
}
330
C
100
AcDbDictionary
281
     1
  0
ACDBDICTIONARYWDFLT
  5
E
102
{ACAD_REACTORS
330
C
102
}
330
C
100
AcDbDictionary
281
     1
  3
Normal
350
F
100
AcDbDictionaryWithDefault
340
F
  0
DICTIONARY
  5
47
102
{ACAD_REACTORS
330
C
102
}
330
C
100
AcDbDictionary
281
     1
  3
A0
350
48
  3
A1
350
49
  3
A2
350
4A
  3
A3
350
4B
  3
A4
350
4C
  3
A5
350
4D
  3
A6
350
4E
  3
A7
350
4F
  3
A8
350
50
  3
A9
350
51
  3
B0
350
52
  3
B1
350
53
  3
B2
350
54
  3
B3
350
55
  3
B4
350
56
  3
B5
350
57
  3
B6
350
58
  3
B7
350
59
  3
B8
350
5A
  3
B9
350
5B
  3
C0
350
5C
  3
C1
350
5D
  3
C2
350
5E
  3
C3
350
5F
  3
C4
350
60
  3
C5
350
61
  3
C6
350
62
  3
C7
350
63
  3
C8
350
64
  3
C9
350
65
  3
D0
350
66
  3
D1
350
67
  3
D2
350
68
  0
LAYOUT
  5
1E
102
{ACAD_REACTORS
330
1A
102
}
330
1A
100
AcDbPlotSettings
  1

  2
none_device
  4

  6

 40
0.0
 41
0.0
 42
0.0
 43
0.0
 44
0.0
 45
0.0
 46
0.0
 47
0.0
 48
0.0
 49
0.0
140
0.0
141
0.0
142
1.0
143
1.0
 70
   688
 72
     1
 73
     0
 74
     5
  7

 75
    16
147
1.0
148
0.0
149
0.0
100
AcDbLayout
  1
Layout1
 70
     1
 71
     1
 10
0.0
 20
0.0
 11
420.0
 21
297.0
 12
0.0
 22
0.0
 32
0.0
 14
1.0000000000E+20
 24
1.0000000000E+20
 34
1.0000000000E+20
 15
-1.0000000000E+20
 25
-1.0000000000E+20
 35
-1.0000000000E+20
146
0.0
 13
0.0
 23
0.0
 33
0.0
 16
1.0
 26
0.0
 36
0.0
 17
0.0
 27
1.0
 37
0.0
 76
     0
330
1B
  0
LAYOUT
  5
26
102
{ACAD_REACTORS
330
1A
102
}
330
1A
100
AcDbPlotSettings
  1

  2
none_device
  4

  6

 40
0.0
 41
0.0
 42
0.0
 43
0.0
 44
0.0
 45
0.0
 46
0.0
 47
0.0
 48
0.0
 49
0.0
140
0.0
141
0.0
142
1.0
143
1.0
 70
   688
 72
     1
 73
     0
 74
     5
  7

 75
    16
147
1.0
148
0.0
149
0.0
100
AcDbLayout
  1
Layout2
 70
     1
 71
     2
 10
0.0
 20
0.0
 11
0.0
 21
0.0
 12
0.0
 22
0.0
 32
0.0
 14
0.0
 24
0.0
 34
0.0
 15
0.0
 25
0.0
 35
0.0
146
0.0
 13
0.0
 23
0.0
 33
0.0
 16
1.0
 26
0.0
 36
0.0
 17
0.0
 27
1.0
 37
0.0
 76
     0
330
23
  0
LAYOUT
  5
22
102
{ACAD_REACTORS
330
1A
102
}
330
1A
100
AcDbPlotSettings
  1

  2
none_device
  4
ANSI_A_(11.00_x_8.50_Inches)
  6

 40
6.35
 41
19.05
 42
6.35000508
 43
19.05000254
 44
279.4
 45
215.9
 46
133.34999746
 47
88.89999873
 48
0.0
 49
0.0
140
0.0
141
0.0
142
0.03366
143
1.0
 70
  1696
 72
     0
 73
     0
 74
     0
  7

 75
     0
147
0.0179189148
148
-1300.4909072572
149
0.0
100
AcDbLayout
  1
Model
 70
     1
 71
     0
 10
0.0
 20
0.0
 11
420.0
 21
297.0
 12
0.0
 22
0.0
 32
0.0
 14
-125.0
 24
-125.0
 34
0.0
 15
125.0
 25
125.0
 35
0.0
146
0.0
 13
0.0
 23
0.0
 33
0.0
 16
1.0
 26
0.0
 36
0.0
 17
0.0
 27
1.0
 37
0.0
 76
     0
330
1F
331
29
  0
MLINESTYLE
  5
18
102
{ACAD_REACTORS
330
17
102
}
330
17
100
AcDbMlineStyle
  2
Standard
 70
     0
  3

 62
   256
 51
90.0
 52
90.0
 71
     2
 49
0.5
 62
   256
  6
BYLAYER
 49
-0.5
 62
   256
  6
BYLAYER
  0
ACDBPLACEHOLDER
  5
F
102
{ACAD_REACTORS
330
E
102
}
330
E
  0
SCALE
  5
48
102
{ACAD_REACTORS
330
47
102
}
330
47
100
AcDbScale
 70
     0
300
1:1
140
1.0
141
1.0
290
     1
  0
SCALE
  5
49
102
{ACAD_REACTORS
330
47
102
}
330
47
100
AcDbScale
 70
     0
300
1:2
140
1.0
141
2.0
290
     0
  0
SCALE
  5
4A
102
{ACAD_REACTORS
330
47
102
}
330
47
100
AcDbScale
 70
     0
300
1:4
140
1.0
141
4.0
290
     0
  0
SCALE
  5
4B
102
{ACAD_REACTORS
330
47
102
}
330
47
100
AcDbScale
 70
     0
300
1:5
140
1.0
141
5.0
290
     0
  0
SCALE
  5
4C
102
{ACAD_REACTORS
330
47
102
}
330
47
100
AcDbScale
 70
     0
300
1:8
140
1.0
141
8.0
290
     0
  0
SCALE
  5
4D
102
{ACAD_REACTORS
330
47
102
}
330
47
100
AcDbScale
 70
     0
300
1:10
140
1.0
141
10.0
290
     0
  0
SCALE
  5
4E
102
{ACAD_REACTORS
330
47
102
}
330
47
100
AcDbScale
 70
     0
300
1:16
140
1.0
141
16.0
290
     0
  0
SCALE
  5
4F
102
{ACAD_REACTORS
330
47
102
}
330
47
100
AcDbScale
 70
     0
300
1:20
140
1.0
141
20.0
290
     0
  0
SCALE
  5
50
102
{ACAD_REACTORS
330
47
102
}
330
47
100
AcDbScale
 70
     0
300
1:30
140
1.0
141
30.0
290
     0
  0
SCALE
  5
51
102
{ACAD_REACTORS
330
47
102
}
330
47
100
AcDbScale
 70
     0
300
1:40
140
1.0
141
40.0
290
     0
  0
SCALE
  5
52
102
{ACAD_REACTORS
330
47
102
}
330
47
100
AcDbScale
 70
     0
300
1:50
140
1.0
141
50.0
290
     0
  0
SCALE
  5
53
102
{ACAD_REACTORS
330
47
102
}
330
47
100
AcDbScale
 70
     0
300
1:100
140
1.0
141
100.0
290
     0
  0
SCALE
  5
54
102
{ACAD_REACTORS
330
47
102
}
330
47
100
AcDbScale
 70
     0
300
2:1
140
2.0
141
1.0
290
     0
  0
SCALE
  5
55
102
{ACAD_REACTORS
330
47
102
}
330
47
100
AcDbScale
 70
     0
300
4:1
140
4.0
141
1.0
290
     0
  0
SCALE
  5
56
102
{ACAD_REACTORS
330
47
102
}
330
47
100
AcDbScale
 70
     0
300
8:1
140
8.0
141
1.0
290
     0
  0
SCALE
  5
57
102
{ACAD_REACTORS
330
47
102
}
330
47
100
AcDbScale
 70
     0
300
10:1
140
10.0
141
1.0
290
     0
  0
SCALE
  5
58
102
{ACAD_REACTORS
330
47
102
}
330
47
100
AcDbScale
 70
     0
300
100:1
140
100.0
141
1.0
290
     0
  0
SCALE
  5
59
102
{ACAD_REACTORS
330
47
102
}
330
47
100
AcDbScale
 70
     0
300
1/128" = 1'-0"
140
0.0078125
141
12.0
290
     0
  0
SCALE
  5
5A
102
{ACAD_REACTORS
330
47
102
}
330
47
100
AcDbScale
 70
     0
300
1/64" = 1'-0"
140
0.015625
141
12.0
290
     0
  0
SCALE
  5
5B
102
{ACAD_REACTORS
330
47
102
}
330
47
100
AcDbScale
 70
     0
300
1/32" = 1'-0"
140
0.03125
141
12.0
290
     0
  0
SCALE
  5
5C
102
{ACAD_REACTORS
330
47
102
}
330
47
100
AcDbScale
 70
     0
300
1/16" = 1'-0"
140
0.0625
141
12.0
290
     0
  0
SCALE
  5
5D
102
{ACAD_REACTORS
330
47
102
}
330
47
100
AcDbScale
 70
     0
300
3/32" = 1'-0"
140
0.09375
141
12.0
290
     0
  0
SCALE
  5
5E
102
{ACAD_REACTORS
330
47
102
}
330
47
100
AcDbScale
 70
     0
300
1/8" = 1'-0"
140
0.125
141
12.0
290
     0
  0
SCALE
  5
5F
102
{ACAD_REACTORS
330
47
102
}
330
47
100
AcDbScale
 70
     0
300
3/16" = 1'-0"
140
0.1875
141
12.0
290
     0
  0
SCALE
  5
60
102
{ACAD_REACTORS
330
47
102
}
330
47
100
AcDbScale
 70
     0
300
1/4" = 1'-0"
140
0.25
141
12.0
290
     0
  0
SCALE
  5
61
102
{ACAD_REACTORS
330
47
102
}
330
47
100
AcDbScale
 70
     0
300
3/8" = 1'-0"
140
0.375
141
12.0
290
     0
  0
SCALE
  5
62
102
{ACAD_REACTORS
330
47
102
}
330
47
100
AcDbScale
 70
     0
300
1/2" = 1'-0"
140
0.5
141
12.0
290
     0
  0
SCALE
  5
63
102
{ACAD_REACTORS
330
47
102
}
330
47
100
AcDbScale
 70
     0
300
3/4" = 1'-0"
140
0.75
141
12.0
290
     0
  0
SCALE
  5
64
102
{ACAD_REACTORS
330
47
102
}
330
47
100
AcDbScale
 70
     0
300
1" = 1'-0"
140
1.0
141
12.0
290
     0
  0
SCALE
  5
65
102
{ACAD_REACTORS
330
47
102
}
330
47
100
AcDbScale
 70
     0
300
1-1/2" = 1'-0"
140
1.5
141
12.0
290
     0
  0
SCALE
  5
66
102
{ACAD_REACTORS
330
47
102
}
330
47
100
AcDbScale
 70
     0
300
3" = 1'-0"
140
3.0
141
12.0
290
     0
  0
SCALE
  5
67
102
{ACAD_REACTORS
330
47
102
}
330
47
100
AcDbScale
 70
     0
300
6" = 1'-0"
140
6.0
141
12.0
290
     0
  0
SCALE
  5
68
102
{ACAD_REACTORS
330
47
102
}
330
47
100
AcDbScale
 70
     0
300
1'-0" = 1'-0"
140
12.0
141
12.0
290
     0
  0
ENDSEC
  0
EOF
